G04 #@! TF.GenerationSoftware,KiCad,Pcbnew,(5.0.0)*
G04 #@! TF.CreationDate,2019-02-20T13:04:28+09:00*
G04 #@! TF.ProjectId,pi-ups,70692D7570732E6B696361645F706362,rev?*
G04 #@! TF.SameCoordinates,Original*
G04 #@! TF.FileFunction,Legend,Bot*
G04 #@! TF.FilePolarity,Positive*
%FSLAX46Y46*%
G04 Gerber Fmt 4.6, Leading zero omitted, Abs format (unit mm)*
G04 Created by KiCad (PCBNEW (5.0.0)) date 02/20/19 13:04:28*
%MOMM*%
%LPD*%
G01*
G04 APERTURE LIST*
%ADD10C,0.300000*%
%ADD11C,0.120000*%
%ADD12C,0.150000*%
G04 APERTURE END LIST*
D10*
X145144285Y-116161428D02*
X145072857Y-116090000D01*
X144930000Y-116018571D01*
X144572857Y-116018571D01*
X144430000Y-116090000D01*
X144358571Y-116161428D01*
X144287142Y-116304285D01*
X144287142Y-116447142D01*
X144358571Y-116661428D01*
X145215714Y-117518571D01*
X144287142Y-117518571D01*
X143358571Y-116018571D02*
X143215714Y-116018571D01*
X143072857Y-116090000D01*
X143001428Y-116161428D01*
X142930000Y-116304285D01*
X142858571Y-116590000D01*
X142858571Y-116947142D01*
X142930000Y-117232857D01*
X143001428Y-117375714D01*
X143072857Y-117447142D01*
X143215714Y-117518571D01*
X143358571Y-117518571D01*
X143501428Y-117447142D01*
X143572857Y-117375714D01*
X143644285Y-117232857D01*
X143715714Y-116947142D01*
X143715714Y-116590000D01*
X143644285Y-116304285D01*
X143572857Y-116161428D01*
X143501428Y-116090000D01*
X143358571Y-116018571D01*
X141430000Y-117518571D02*
X142287142Y-117518571D01*
X141858571Y-117518571D02*
X141858571Y-116018571D01*
X142001428Y-116232857D01*
X142144285Y-116375714D01*
X142287142Y-116447142D01*
X140715714Y-117518571D02*
X140430000Y-117518571D01*
X140287142Y-117447142D01*
X140215714Y-117375714D01*
X140072857Y-117161428D01*
X140001428Y-116875714D01*
X140001428Y-116304285D01*
X140072857Y-116161428D01*
X140144285Y-116090000D01*
X140287142Y-116018571D01*
X140572857Y-116018571D01*
X140715714Y-116090000D01*
X140787142Y-116161428D01*
X140858571Y-116304285D01*
X140858571Y-116661428D01*
X140787142Y-116804285D01*
X140715714Y-116875714D01*
X140572857Y-116947142D01*
X140287142Y-116947142D01*
X140144285Y-116875714D01*
X140072857Y-116804285D01*
X140001428Y-116661428D01*
X139358571Y-117375714D02*
X139287142Y-117447142D01*
X139358571Y-117518571D01*
X139430000Y-117447142D01*
X139358571Y-117375714D01*
X139358571Y-117518571D01*
X138358571Y-116018571D02*
X138215714Y-116018571D01*
X138072857Y-116090000D01*
X138001428Y-116161428D01*
X137930000Y-116304285D01*
X137858571Y-116590000D01*
X137858571Y-116947142D01*
X137930000Y-117232857D01*
X138001428Y-117375714D01*
X138072857Y-117447142D01*
X138215714Y-117518571D01*
X138358571Y-117518571D01*
X138501428Y-117447142D01*
X138572857Y-117375714D01*
X138644285Y-117232857D01*
X138715714Y-116947142D01*
X138715714Y-116590000D01*
X138644285Y-116304285D01*
X138572857Y-116161428D01*
X138501428Y-116090000D01*
X138358571Y-116018571D01*
X137287142Y-116161428D02*
X137215714Y-116090000D01*
X137072857Y-116018571D01*
X136715714Y-116018571D01*
X136572857Y-116090000D01*
X136501428Y-116161428D01*
X136430000Y-116304285D01*
X136430000Y-116447142D01*
X136501428Y-116661428D01*
X137358571Y-117518571D01*
X136430000Y-117518571D01*
X135787142Y-117375714D02*
X135715714Y-117447142D01*
X135787142Y-117518571D01*
X135858571Y-117447142D01*
X135787142Y-117375714D01*
X135787142Y-117518571D01*
X135144285Y-116161428D02*
X135072857Y-116090000D01*
X134930000Y-116018571D01*
X134572857Y-116018571D01*
X134430000Y-116090000D01*
X134358571Y-116161428D01*
X134287142Y-116304285D01*
X134287142Y-116447142D01*
X134358571Y-116661428D01*
X135215714Y-117518571D01*
X134287142Y-117518571D01*
X133358571Y-116018571D02*
X133215714Y-116018571D01*
X133072857Y-116090000D01*
X133001428Y-116161428D01*
X132930000Y-116304285D01*
X132858571Y-116590000D01*
X132858571Y-116947142D01*
X132930000Y-117232857D01*
X133001428Y-117375714D01*
X133072857Y-117447142D01*
X133215714Y-117518571D01*
X133358571Y-117518571D01*
X133501428Y-117447142D01*
X133572857Y-117375714D01*
X133644285Y-117232857D01*
X133715714Y-116947142D01*
X133715714Y-116590000D01*
X133644285Y-116304285D01*
X133572857Y-116161428D01*
X133501428Y-116090000D01*
X133358571Y-116018571D01*
X142053571Y-100917857D02*
X142053571Y-100203571D01*
X142767857Y-100132142D01*
X142696428Y-100203571D01*
X142625000Y-100346428D01*
X142625000Y-100703571D01*
X142696428Y-100846428D01*
X142767857Y-100917857D01*
X142910714Y-100989285D01*
X143267857Y-100989285D01*
X143410714Y-100917857D01*
X143482142Y-100846428D01*
X143553571Y-100703571D01*
X143553571Y-100346428D01*
X143482142Y-100203571D01*
X143410714Y-100132142D01*
X142053571Y-101417857D02*
X143553571Y-101917857D01*
X142053571Y-102417857D01*
X142982142Y-104060714D02*
X142982142Y-105203571D01*
X143553571Y-104632142D02*
X142410714Y-104632142D01*
X142982142Y-108203571D02*
X142982142Y-109346428D01*
D11*
G04 #@! TO.C,C5*
X125030000Y-106640000D02*
X139130000Y-106640000D01*
X125030000Y-106680000D02*
X139130000Y-106680000D01*
X125030000Y-106720000D02*
X139130000Y-106720000D01*
X125031000Y-106760000D02*
X139129000Y-106760000D01*
X125031000Y-106800000D02*
X139129000Y-106800000D01*
X125032000Y-106840000D02*
X139128000Y-106840000D01*
X125034000Y-106880000D02*
X139126000Y-106880000D01*
X125035000Y-106920000D02*
X139125000Y-106920000D01*
X125037000Y-106960000D02*
X139123000Y-106960000D01*
X125039000Y-107000000D02*
X139121000Y-107000000D01*
X125041000Y-107040000D02*
X139119000Y-107040000D01*
X125043000Y-107080000D02*
X139117000Y-107080000D01*
X125046000Y-107120000D02*
X139114000Y-107120000D01*
X125049000Y-107160000D02*
X139111000Y-107160000D01*
X125052000Y-107200000D02*
X139108000Y-107200000D01*
X125055000Y-107240000D02*
X139105000Y-107240000D01*
X125058000Y-107280000D02*
X139102000Y-107280000D01*
X125062000Y-107320000D02*
X139098000Y-107320000D01*
X125066000Y-107361000D02*
X139094000Y-107361000D01*
X125070000Y-107401000D02*
X139090000Y-107401000D01*
X125075000Y-107441000D02*
X139085000Y-107441000D01*
X125079000Y-107481000D02*
X139081000Y-107481000D01*
X125084000Y-107521000D02*
X139076000Y-107521000D01*
X125089000Y-107561000D02*
X139071000Y-107561000D01*
X125095000Y-107601000D02*
X139065000Y-107601000D01*
X125100000Y-107641000D02*
X139060000Y-107641000D01*
X125106000Y-107681000D02*
X139054000Y-107681000D01*
X125112000Y-107721000D02*
X139048000Y-107721000D01*
X125119000Y-107761000D02*
X130700000Y-107761000D01*
X133460000Y-107761000D02*
X139041000Y-107761000D01*
X125125000Y-107801000D02*
X130700000Y-107801000D01*
X133460000Y-107801000D02*
X139035000Y-107801000D01*
X125132000Y-107841000D02*
X130700000Y-107841000D01*
X133460000Y-107841000D02*
X139028000Y-107841000D01*
X125139000Y-107881000D02*
X130700000Y-107881000D01*
X133460000Y-107881000D02*
X139021000Y-107881000D01*
X125146000Y-107921000D02*
X130700000Y-107921000D01*
X133460000Y-107921000D02*
X139014000Y-107921000D01*
X125153000Y-107961000D02*
X130700000Y-107961000D01*
X133460000Y-107961000D02*
X139007000Y-107961000D01*
X125161000Y-108001000D02*
X130700000Y-108001000D01*
X133460000Y-108001000D02*
X138999000Y-108001000D01*
X125169000Y-108041000D02*
X130700000Y-108041000D01*
X133460000Y-108041000D02*
X138991000Y-108041000D01*
X125177000Y-108081000D02*
X130700000Y-108081000D01*
X133460000Y-108081000D02*
X138983000Y-108081000D01*
X125186000Y-108121000D02*
X130700000Y-108121000D01*
X133460000Y-108121000D02*
X138974000Y-108121000D01*
X125194000Y-108161000D02*
X130700000Y-108161000D01*
X133460000Y-108161000D02*
X138966000Y-108161000D01*
X125203000Y-108201000D02*
X130700000Y-108201000D01*
X133460000Y-108201000D02*
X138957000Y-108201000D01*
X125212000Y-108241000D02*
X130700000Y-108241000D01*
X133460000Y-108241000D02*
X138948000Y-108241000D01*
X125222000Y-108281000D02*
X130700000Y-108281000D01*
X133460000Y-108281000D02*
X138938000Y-108281000D01*
X125231000Y-108321000D02*
X130700000Y-108321000D01*
X133460000Y-108321000D02*
X138929000Y-108321000D01*
X125241000Y-108361000D02*
X130700000Y-108361000D01*
X133460000Y-108361000D02*
X138919000Y-108361000D01*
X125251000Y-108401000D02*
X130700000Y-108401000D01*
X133460000Y-108401000D02*
X138909000Y-108401000D01*
X125262000Y-108441000D02*
X130700000Y-108441000D01*
X133460000Y-108441000D02*
X138898000Y-108441000D01*
X125272000Y-108481000D02*
X130700000Y-108481000D01*
X133460000Y-108481000D02*
X138888000Y-108481000D01*
X125283000Y-108521000D02*
X130700000Y-108521000D01*
X133460000Y-108521000D02*
X138877000Y-108521000D01*
X125294000Y-108561000D02*
X130700000Y-108561000D01*
X133460000Y-108561000D02*
X138866000Y-108561000D01*
X125306000Y-108601000D02*
X130700000Y-108601000D01*
X133460000Y-108601000D02*
X138854000Y-108601000D01*
X125317000Y-108641000D02*
X130700000Y-108641000D01*
X133460000Y-108641000D02*
X138843000Y-108641000D01*
X125329000Y-108681000D02*
X130700000Y-108681000D01*
X133460000Y-108681000D02*
X138831000Y-108681000D01*
X125341000Y-108721000D02*
X130700000Y-108721000D01*
X133460000Y-108721000D02*
X138819000Y-108721000D01*
X125354000Y-108761000D02*
X130700000Y-108761000D01*
X133460000Y-108761000D02*
X138806000Y-108761000D01*
X125367000Y-108801000D02*
X130700000Y-108801000D01*
X133460000Y-108801000D02*
X138793000Y-108801000D01*
X125379000Y-108841000D02*
X130700000Y-108841000D01*
X133460000Y-108841000D02*
X138781000Y-108841000D01*
X125393000Y-108881000D02*
X130700000Y-108881000D01*
X133460000Y-108881000D02*
X138767000Y-108881000D01*
X125406000Y-108921000D02*
X130700000Y-108921000D01*
X133460000Y-108921000D02*
X138754000Y-108921000D01*
X125420000Y-108961000D02*
X130700000Y-108961000D01*
X133460000Y-108961000D02*
X138740000Y-108961000D01*
X125434000Y-109001000D02*
X130700000Y-109001000D01*
X133460000Y-109001000D02*
X138726000Y-109001000D01*
X125448000Y-109041000D02*
X130700000Y-109041000D01*
X133460000Y-109041000D02*
X138712000Y-109041000D01*
X125463000Y-109081000D02*
X130700000Y-109081000D01*
X133460000Y-109081000D02*
X138697000Y-109081000D01*
X125477000Y-109121000D02*
X130700000Y-109121000D01*
X133460000Y-109121000D02*
X138683000Y-109121000D01*
X125492000Y-109161000D02*
X130700000Y-109161000D01*
X133460000Y-109161000D02*
X138668000Y-109161000D01*
X125508000Y-109201000D02*
X130700000Y-109201000D01*
X133460000Y-109201000D02*
X138652000Y-109201000D01*
X125523000Y-109241000D02*
X130700000Y-109241000D01*
X133460000Y-109241000D02*
X138637000Y-109241000D01*
X125539000Y-109281000D02*
X130700000Y-109281000D01*
X133460000Y-109281000D02*
X138621000Y-109281000D01*
X125556000Y-109321000D02*
X130700000Y-109321000D01*
X133460000Y-109321000D02*
X138604000Y-109321000D01*
X125572000Y-109361000D02*
X130700000Y-109361000D01*
X133460000Y-109361000D02*
X138588000Y-109361000D01*
X125589000Y-109401000D02*
X130700000Y-109401000D01*
X133460000Y-109401000D02*
X138571000Y-109401000D01*
X125606000Y-109441000D02*
X130700000Y-109441000D01*
X133460000Y-109441000D02*
X138554000Y-109441000D01*
X125623000Y-109481000D02*
X130700000Y-109481000D01*
X133460000Y-109481000D02*
X138537000Y-109481000D01*
X125641000Y-109521000D02*
X130700000Y-109521000D01*
X133460000Y-109521000D02*
X138519000Y-109521000D01*
X125659000Y-109561000D02*
X130700000Y-109561000D01*
X133460000Y-109561000D02*
X138501000Y-109561000D01*
X125677000Y-109601000D02*
X130700000Y-109601000D01*
X133460000Y-109601000D02*
X138483000Y-109601000D01*
X125695000Y-109641000D02*
X130700000Y-109641000D01*
X133460000Y-109641000D02*
X138465000Y-109641000D01*
X125714000Y-109681000D02*
X130700000Y-109681000D01*
X133460000Y-109681000D02*
X138446000Y-109681000D01*
X125733000Y-109721000D02*
X130700000Y-109721000D01*
X133460000Y-109721000D02*
X138427000Y-109721000D01*
X125753000Y-109761000D02*
X130700000Y-109761000D01*
X133460000Y-109761000D02*
X138407000Y-109761000D01*
X125773000Y-109801000D02*
X130700000Y-109801000D01*
X133460000Y-109801000D02*
X138387000Y-109801000D01*
X125793000Y-109841000D02*
X130700000Y-109841000D01*
X133460000Y-109841000D02*
X138367000Y-109841000D01*
X125813000Y-109881000D02*
X130700000Y-109881000D01*
X133460000Y-109881000D02*
X138347000Y-109881000D01*
X125834000Y-109921000D02*
X130700000Y-109921000D01*
X133460000Y-109921000D02*
X138326000Y-109921000D01*
X125855000Y-109961000D02*
X130700000Y-109961000D01*
X133460000Y-109961000D02*
X138305000Y-109961000D01*
X125876000Y-110001000D02*
X130700000Y-110001000D01*
X133460000Y-110001000D02*
X138284000Y-110001000D01*
X125898000Y-110041000D02*
X130700000Y-110041000D01*
X133460000Y-110041000D02*
X138262000Y-110041000D01*
X125920000Y-110081000D02*
X130700000Y-110081000D01*
X133460000Y-110081000D02*
X138240000Y-110081000D01*
X125942000Y-110121000D02*
X130700000Y-110121000D01*
X133460000Y-110121000D02*
X138218000Y-110121000D01*
X125965000Y-110161000D02*
X130700000Y-110161000D01*
X133460000Y-110161000D02*
X138195000Y-110161000D01*
X125988000Y-110201000D02*
X130700000Y-110201000D01*
X133460000Y-110201000D02*
X138172000Y-110201000D01*
X126011000Y-110241000D02*
X130700000Y-110241000D01*
X133460000Y-110241000D02*
X138149000Y-110241000D01*
X126035000Y-110281000D02*
X130700000Y-110281000D01*
X133460000Y-110281000D02*
X138125000Y-110281000D01*
X126059000Y-110321000D02*
X130700000Y-110321000D01*
X133460000Y-110321000D02*
X138101000Y-110321000D01*
X126084000Y-110361000D02*
X130700000Y-110361000D01*
X133460000Y-110361000D02*
X138076000Y-110361000D01*
X126109000Y-110401000D02*
X130700000Y-110401000D01*
X133460000Y-110401000D02*
X138051000Y-110401000D01*
X126134000Y-110441000D02*
X130700000Y-110441000D01*
X133460000Y-110441000D02*
X138026000Y-110441000D01*
X126159000Y-110481000D02*
X130700000Y-110481000D01*
X133460000Y-110481000D02*
X138001000Y-110481000D01*
X126185000Y-110521000D02*
X137975000Y-110521000D01*
X126212000Y-110561000D02*
X137948000Y-110561000D01*
X126238000Y-110601000D02*
X137922000Y-110601000D01*
X126266000Y-110641000D02*
X137894000Y-110641000D01*
X126293000Y-110681000D02*
X137867000Y-110681000D01*
X126321000Y-110721000D02*
X137839000Y-110721000D01*
X126349000Y-110761000D02*
X137811000Y-110761000D01*
X126378000Y-110801000D02*
X137782000Y-110801000D01*
X126407000Y-110841000D02*
X137753000Y-110841000D01*
X126437000Y-110881000D02*
X137723000Y-110881000D01*
X126467000Y-110921000D02*
X137693000Y-110921000D01*
X126498000Y-110961000D02*
X137662000Y-110961000D01*
X126529000Y-111001000D02*
X137631000Y-111001000D01*
X126560000Y-111041000D02*
X137600000Y-111041000D01*
X126592000Y-111081000D02*
X137568000Y-111081000D01*
X126624000Y-111121000D02*
X137536000Y-111121000D01*
X126657000Y-111161000D02*
X137503000Y-111161000D01*
X126690000Y-111201000D02*
X137470000Y-111201000D01*
X126724000Y-111241000D02*
X137436000Y-111241000D01*
X126759000Y-111281000D02*
X137401000Y-111281000D01*
X126794000Y-111321000D02*
X137366000Y-111321000D01*
X126829000Y-111361000D02*
X137331000Y-111361000D01*
X126865000Y-111401000D02*
X137295000Y-111401000D01*
X126901000Y-111441000D02*
X137259000Y-111441000D01*
X126939000Y-111481000D02*
X137221000Y-111481000D01*
X126976000Y-111521000D02*
X137184000Y-111521000D01*
X127014000Y-111561000D02*
X137146000Y-111561000D01*
X127053000Y-111601000D02*
X137107000Y-111601000D01*
X127093000Y-111641000D02*
X137067000Y-111641000D01*
X127133000Y-111681000D02*
X137027000Y-111681000D01*
X127174000Y-111721000D02*
X136986000Y-111721000D01*
X127215000Y-111761000D02*
X136945000Y-111761000D01*
X127257000Y-111801000D02*
X136903000Y-111801000D01*
X127300000Y-111841000D02*
X136860000Y-111841000D01*
X127343000Y-111881000D02*
X136817000Y-111881000D01*
X127388000Y-111921000D02*
X136772000Y-111921000D01*
X127433000Y-111961000D02*
X136727000Y-111961000D01*
X127479000Y-112001000D02*
X136681000Y-112001000D01*
X127525000Y-112041000D02*
X136635000Y-112041000D01*
X127573000Y-112081000D02*
X136587000Y-112081000D01*
X127621000Y-112121000D02*
X136539000Y-112121000D01*
X127670000Y-112161000D02*
X136490000Y-112161000D01*
X127720000Y-112201000D02*
X136440000Y-112201000D01*
X127771000Y-112241000D02*
X136389000Y-112241000D01*
X127823000Y-112281000D02*
X136337000Y-112281000D01*
X127876000Y-112321000D02*
X136284000Y-112321000D01*
X127930000Y-112361000D02*
X136230000Y-112361000D01*
X127985000Y-112401000D02*
X136175000Y-112401000D01*
X128042000Y-112441000D02*
X136118000Y-112441000D01*
X128099000Y-112481000D02*
X136061000Y-112481000D01*
X128158000Y-112521000D02*
X136002000Y-112521000D01*
X128218000Y-112561000D02*
X135942000Y-112561000D01*
X128279000Y-112601000D02*
X135881000Y-112601000D01*
X128342000Y-112641000D02*
X135818000Y-112641000D01*
X128406000Y-112681000D02*
X135754000Y-112681000D01*
X128472000Y-112721000D02*
X135688000Y-112721000D01*
X128540000Y-112761000D02*
X135620000Y-112761000D01*
X128609000Y-112801000D02*
X135551000Y-112801000D01*
X128680000Y-112841000D02*
X135480000Y-112841000D01*
X128753000Y-112881000D02*
X135407000Y-112881000D01*
X128829000Y-112921000D02*
X135331000Y-112921000D01*
X128906000Y-112961000D02*
X135254000Y-112961000D01*
X128986000Y-113001000D02*
X135174000Y-113001000D01*
X129069000Y-113041000D02*
X135091000Y-113041000D01*
X129154000Y-113081000D02*
X135006000Y-113081000D01*
X129242000Y-113121000D02*
X134918000Y-113121000D01*
X129334000Y-113161000D02*
X134826000Y-113161000D01*
X129430000Y-113201000D02*
X134730000Y-113201000D01*
X129530000Y-113241000D02*
X134630000Y-113241000D01*
X129634000Y-113281000D02*
X134526000Y-113281000D01*
X129743000Y-113321000D02*
X134417000Y-113321000D01*
X129859000Y-113361000D02*
X134301000Y-113361000D01*
X129982000Y-113401000D02*
X134178000Y-113401000D01*
X130112000Y-113441000D02*
X134048000Y-113441000D01*
X130253000Y-113481000D02*
X133907000Y-113481000D01*
X130407000Y-113521000D02*
X133753000Y-113521000D01*
X130576000Y-113561000D02*
X133584000Y-113561000D01*
X130768000Y-113601000D02*
X133392000Y-113601000D01*
X130993000Y-113641000D02*
X133167000Y-113641000D01*
X131279000Y-113681000D02*
X132881000Y-113681000D01*
X131743000Y-113721000D02*
X132417000Y-113721000D01*
X132080000Y-100940000D02*
X132080000Y-102740000D01*
X131180000Y-101840000D02*
X132980000Y-101840000D01*
X139170000Y-106640000D02*
G75*
G03X139170000Y-106640000I-7090000J0D01*
G01*
D12*
X124377142Y-106473333D02*
X124424761Y-106425714D01*
X124472380Y-106282857D01*
X124472380Y-106187619D01*
X124424761Y-106044761D01*
X124329523Y-105949523D01*
X124234285Y-105901904D01*
X124043809Y-105854285D01*
X123900952Y-105854285D01*
X123710476Y-105901904D01*
X123615238Y-105949523D01*
X123520000Y-106044761D01*
X123472380Y-106187619D01*
X123472380Y-106282857D01*
X123520000Y-106425714D01*
X123567619Y-106473333D01*
X123472380Y-107378095D02*
X123472380Y-106901904D01*
X123948571Y-106854285D01*
X123900952Y-106901904D01*
X123853333Y-106997142D01*
X123853333Y-107235238D01*
X123900952Y-107330476D01*
X123948571Y-107378095D01*
X124043809Y-107425714D01*
X124281904Y-107425714D01*
X124377142Y-107378095D01*
X124424761Y-107330476D01*
X124472380Y-107235238D01*
X124472380Y-106997142D01*
X124424761Y-106901904D01*
X124377142Y-106854285D01*
G04 #@! TD*
M02*
