G04 #@! TF.GenerationSoftware,KiCad,Pcbnew,(5.0.0)*
G04 #@! TF.CreationDate,2019-02-20T13:04:28+09:00*
G04 #@! TF.ProjectId,pi-ups,70692D7570732E6B696361645F706362,rev?*
G04 #@! TF.SameCoordinates,Original*
G04 #@! TF.FileFunction,Copper,L1,Top,Signal*
G04 #@! TF.FilePolarity,Positive*
%FSLAX46Y46*%
G04 Gerber Fmt 4.6, Leading zero omitted, Abs format (unit mm)*
G04 Created by KiCad (PCBNEW (5.0.0)) date 02/20/19 13:04:28*
%MOMM*%
%LPD*%
G01*
G04 APERTURE LIST*
G04 #@! TA.AperFunction,ComponentPad*
%ADD10R,1.600000X1.600000*%
G04 #@! TD*
G04 #@! TA.AperFunction,ComponentPad*
%ADD11C,1.600000*%
G04 #@! TD*
G04 #@! TA.AperFunction,SMDPad,CuDef*
%ADD12R,0.750000X0.800000*%
G04 #@! TD*
G04 #@! TA.AperFunction,ComponentPad*
%ADD13R,1.200000X1.200000*%
G04 #@! TD*
G04 #@! TA.AperFunction,ComponentPad*
%ADD14C,1.200000*%
G04 #@! TD*
G04 #@! TA.AperFunction,ComponentPad*
%ADD15R,2.400000X2.400000*%
G04 #@! TD*
G04 #@! TA.AperFunction,ComponentPad*
%ADD16C,2.400000*%
G04 #@! TD*
G04 #@! TA.AperFunction,SMDPad,CuDef*
%ADD17R,3.900000X3.900000*%
G04 #@! TD*
G04 #@! TA.AperFunction,SMDPad,CuDef*
%ADD18R,0.800000X0.750000*%
G04 #@! TD*
G04 #@! TA.AperFunction,ComponentPad*
%ADD19C,2.500000*%
G04 #@! TD*
G04 #@! TA.AperFunction,ComponentPad*
%ADD20R,2.500000X2.500000*%
G04 #@! TD*
G04 #@! TA.AperFunction,ComponentPad*
%ADD21R,1.700000X1.700000*%
G04 #@! TD*
G04 #@! TA.AperFunction,ComponentPad*
%ADD22O,1.700000X1.700000*%
G04 #@! TD*
G04 #@! TA.AperFunction,ComponentPad*
%ADD23R,1.750000X1.750000*%
G04 #@! TD*
G04 #@! TA.AperFunction,ComponentPad*
%ADD24C,1.750000*%
G04 #@! TD*
G04 #@! TA.AperFunction,SMDPad,CuDef*
%ADD25R,4.070000X1.770000*%
G04 #@! TD*
G04 #@! TA.AperFunction,SMDPad,CuDef*
%ADD26R,1.770000X4.070000*%
G04 #@! TD*
G04 #@! TA.AperFunction,SMDPad,CuDef*
%ADD27R,3.000000X1.200000*%
G04 #@! TD*
G04 #@! TA.AperFunction,SMDPad,CuDef*
%ADD28R,1.200000X3.000000*%
G04 #@! TD*
G04 #@! TA.AperFunction,SMDPad,CuDef*
%ADD29R,1.500000X1.200000*%
G04 #@! TD*
G04 #@! TA.AperFunction,SMDPad,CuDef*
%ADD30R,1.000000X1.200000*%
G04 #@! TD*
G04 #@! TA.AperFunction,SMDPad,CuDef*
%ADD31R,1.630000X1.200000*%
G04 #@! TD*
G04 #@! TA.AperFunction,SMDPad,CuDef*
%ADD32R,1.200000X1.630000*%
G04 #@! TD*
G04 #@! TA.AperFunction,ViaPad*
%ADD33C,0.800000*%
G04 #@! TD*
G04 #@! TA.AperFunction,Conductor*
%ADD34C,1.200000*%
G04 #@! TD*
G04 #@! TA.AperFunction,Conductor*
%ADD35C,0.250000*%
G04 #@! TD*
G04 #@! TA.AperFunction,Conductor*
%ADD36C,0.254000*%
G04 #@! TD*
G04 APERTURE END LIST*
D10*
G04 #@! TO.P,C1,1*
G04 #@! TO.N,Net-(C1-Pad1)*
X95250000Y-110490000D03*
D11*
G04 #@! TO.P,C1,2*
G04 #@! TO.N,pi-06*
X95250000Y-112990000D03*
G04 #@! TD*
D12*
G04 #@! TO.P,C2,1*
G04 #@! TO.N,pi-06*
X100965000Y-103275000D03*
G04 #@! TO.P,C2,2*
G04 #@! TO.N,Net-(C1-Pad1)*
X100965000Y-104775000D03*
G04 #@! TD*
G04 #@! TO.P,C3,2*
G04 #@! TO.N,pi-06*
X118745000Y-103275000D03*
G04 #@! TO.P,C3,1*
G04 #@! TO.N,Net-(C3-Pad1)*
X118745000Y-104775000D03*
G04 #@! TD*
D13*
G04 #@! TO.P,C4,1*
G04 #@! TO.N,Net-(C3-Pad1)*
X120745000Y-99060000D03*
D14*
G04 #@! TO.P,C4,2*
G04 #@! TO.N,pi-06*
X118745000Y-99060000D03*
G04 #@! TD*
D15*
G04 #@! TO.P,C5,1*
G04 #@! TO.N,pi-02*
X132080000Y-104140000D03*
D16*
G04 #@! TO.P,C5,2*
G04 #@! TO.N,pi-06*
X132080000Y-109140000D03*
G04 #@! TD*
D17*
G04 #@! TO.P,D1,1*
G04 #@! TO.N,pi-02*
X134620000Y-98680000D03*
G04 #@! TO.P,D1,2*
G04 #@! TO.N,Net-(C3-Pad1)*
X126620000Y-98680000D03*
G04 #@! TD*
D18*
G04 #@! TO.P,D2,2*
G04 #@! TO.N,Net-(D2-Pad2)*
X143510000Y-97155000D03*
G04 #@! TO.P,D2,1*
G04 #@! TO.N,pi-06*
X145010000Y-97155000D03*
G04 #@! TD*
G04 #@! TO.P,D3,1*
G04 #@! TO.N,pi-06*
X145010000Y-99695000D03*
G04 #@! TO.P,D3,2*
G04 #@! TO.N,Net-(D3-Pad2)*
X143510000Y-99695000D03*
G04 #@! TD*
D19*
G04 #@! TO.P,J1,2*
G04 #@! TO.N,Net-(C1-Pad1)*
X92075000Y-105330000D03*
D20*
G04 #@! TO.P,J1,1*
G04 #@! TO.N,pi-06*
X92075000Y-100330000D03*
G04 #@! TD*
D21*
G04 #@! TO.P,J2,1*
G04 #@! TO.N,pi-01*
X95370000Y-93270000D03*
D22*
G04 #@! TO.P,J2,2*
G04 #@! TO.N,pi-02*
X95370000Y-90730000D03*
G04 #@! TO.P,J2,3*
G04 #@! TO.N,N/C*
X97910000Y-93270000D03*
G04 #@! TO.P,J2,4*
G04 #@! TO.N,pi-02*
X97910000Y-90730000D03*
G04 #@! TO.P,J2,5*
G04 #@! TO.N,N/C*
X100450000Y-93270000D03*
G04 #@! TO.P,J2,6*
G04 #@! TO.N,pi-06*
X100450000Y-90730000D03*
G04 #@! TO.P,J2,7*
G04 #@! TO.N,N/C*
X102990000Y-93270000D03*
G04 #@! TO.P,J2,8*
G04 #@! TO.N,pi-08*
X102990000Y-90730000D03*
G04 #@! TO.P,J2,9*
G04 #@! TO.N,pi-06*
X105530000Y-93270000D03*
G04 #@! TO.P,J2,10*
G04 #@! TO.N,pi-10*
X105530000Y-90730000D03*
G04 #@! TO.P,J2,11*
G04 #@! TO.N,N/C*
X108070000Y-93270000D03*
G04 #@! TO.P,J2,12*
G04 #@! TO.N,pi-12*
X108070000Y-90730000D03*
G04 #@! TO.P,J2,13*
G04 #@! TO.N,N/C*
X110610000Y-93270000D03*
G04 #@! TO.P,J2,14*
G04 #@! TO.N,pi-06*
X110610000Y-90730000D03*
G04 #@! TO.P,J2,15*
G04 #@! TO.N,N/C*
X113150000Y-93270000D03*
G04 #@! TO.P,J2,16*
X113150000Y-90730000D03*
G04 #@! TO.P,J2,17*
G04 #@! TO.N,pi-01*
X115690000Y-93270000D03*
G04 #@! TO.P,J2,18*
G04 #@! TO.N,N/C*
X115690000Y-90730000D03*
G04 #@! TO.P,J2,19*
X118230000Y-93270000D03*
G04 #@! TO.P,J2,20*
G04 #@! TO.N,pi-06*
X118230000Y-90730000D03*
G04 #@! TO.P,J2,21*
G04 #@! TO.N,N/C*
X120770000Y-93270000D03*
G04 #@! TO.P,J2,22*
X120770000Y-90730000D03*
G04 #@! TO.P,J2,23*
X123310000Y-93270000D03*
G04 #@! TO.P,J2,24*
X123310000Y-90730000D03*
G04 #@! TO.P,J2,25*
G04 #@! TO.N,pi-06*
X125850000Y-93270000D03*
G04 #@! TO.P,J2,26*
G04 #@! TO.N,N/C*
X125850000Y-90730000D03*
G04 #@! TO.P,J2,27*
X128390000Y-93270000D03*
G04 #@! TO.P,J2,28*
X128390000Y-90730000D03*
G04 #@! TO.P,J2,29*
X130930000Y-93270000D03*
G04 #@! TO.P,J2,30*
G04 #@! TO.N,pi-06*
X130930000Y-90730000D03*
G04 #@! TO.P,J2,31*
G04 #@! TO.N,N/C*
X133470000Y-93270000D03*
G04 #@! TO.P,J2,32*
X133470000Y-90730000D03*
G04 #@! TO.P,J2,33*
X136010000Y-93270000D03*
G04 #@! TO.P,J2,34*
G04 #@! TO.N,pi-06*
X136010000Y-90730000D03*
G04 #@! TO.P,J2,35*
G04 #@! TO.N,N/C*
X138550000Y-93270000D03*
G04 #@! TO.P,J2,36*
X138550000Y-90730000D03*
G04 #@! TO.P,J2,37*
G04 #@! TO.N,pi-37*
X141090000Y-93270000D03*
G04 #@! TO.P,J2,38*
G04 #@! TO.N,N/C*
X141090000Y-90730000D03*
G04 #@! TO.P,J2,39*
G04 #@! TO.N,pi-06*
X143630000Y-93270000D03*
G04 #@! TO.P,J2,40*
G04 #@! TO.N,N/C*
X143630000Y-90730000D03*
G04 #@! TD*
D23*
G04 #@! TO.P,J3,1*
G04 #@! TO.N,pi-02*
X101720000Y-97790000D03*
D24*
G04 #@! TO.P,J3,2*
G04 #@! TO.N,pi-06*
X104220000Y-97790000D03*
G04 #@! TO.P,J3,3*
G04 #@! TO.N,pi-08*
X106720000Y-97790000D03*
G04 #@! TO.P,J3,4*
G04 #@! TO.N,pi-10*
X109220000Y-97790000D03*
G04 #@! TO.P,J3,5*
G04 #@! TO.N,pi-12*
X111720000Y-97790000D03*
G04 #@! TD*
D20*
G04 #@! TO.P,J4,1*
G04 #@! TO.N,pi-06*
X147320000Y-109220000D03*
D19*
G04 #@! TO.P,J4,2*
G04 #@! TO.N,pi-02*
X147320000Y-104220000D03*
G04 #@! TD*
D12*
G04 #@! TO.P,R1,1*
G04 #@! TO.N,Net-(C1-Pad1)*
X100330000Y-108355000D03*
G04 #@! TO.P,R1,2*
G04 #@! TO.N,Net-(R1-Pad2)*
X100330000Y-109855000D03*
G04 #@! TD*
G04 #@! TO.P,R2,1*
G04 #@! TO.N,Net-(C3-Pad1)*
X121285000Y-104775000D03*
G04 #@! TO.P,R2,2*
G04 #@! TO.N,pi-06*
X121285000Y-103275000D03*
G04 #@! TD*
D18*
G04 #@! TO.P,R3,2*
G04 #@! TO.N,pi-06*
X121515000Y-114935000D03*
G04 #@! TO.P,R3,1*
G04 #@! TO.N,Net-(R3-Pad1)*
X120015000Y-114935000D03*
G04 #@! TD*
G04 #@! TO.P,R4,1*
G04 #@! TO.N,Net-(C3-Pad1)*
X139470000Y-97155000D03*
G04 #@! TO.P,R4,2*
G04 #@! TO.N,Net-(D2-Pad2)*
X140970000Y-97155000D03*
G04 #@! TD*
G04 #@! TO.P,R5,2*
G04 #@! TO.N,Net-(D3-Pad2)*
X140970000Y-99695000D03*
G04 #@! TO.P,R5,1*
G04 #@! TO.N,pi-02*
X139470000Y-99695000D03*
G04 #@! TD*
D12*
G04 #@! TO.P,R6,2*
G04 #@! TO.N,pi-37*
X100330000Y-113490000D03*
G04 #@! TO.P,R6,1*
X100330000Y-111990000D03*
G04 #@! TD*
D21*
G04 #@! TO.P,SW1,1*
G04 #@! TO.N,Net-(C1-Pad1)*
X100330000Y-116840000D03*
D22*
G04 #@! TO.P,SW1,2*
G04 #@! TO.N,Net-(R1-Pad2)*
X97790000Y-116840000D03*
G04 #@! TO.P,SW1,3*
G04 #@! TO.N,pi-06*
X95250000Y-116840000D03*
G04 #@! TD*
D25*
G04 #@! TO.P,U1,2*
G04 #@! TO.N,Net-(C1-Pad1)*
X107110000Y-105570000D03*
G04 #@! TO.P,U1,3*
G04 #@! TO.N,pi-06*
X111690000Y-105570000D03*
D26*
G04 #@! TO.P,U1,4*
G04 #@! TO.N,Net-(C3-Pad1)*
X115130000Y-106720000D03*
D27*
G04 #@! TO.P,U1,1*
G04 #@! TO.N,Net-(R1-Pad2)*
X104940000Y-110150000D03*
G04 #@! TO.P,U1,10*
G04 #@! TO.N,pi-37*
X104940000Y-112440000D03*
G04 #@! TO.P,U1,9*
G04 #@! TO.N,N/C*
X104940000Y-114730000D03*
D28*
G04 #@! TO.P,U1,8*
X108250000Y-115630000D03*
G04 #@! TO.P,U1,7*
G04 #@! TO.N,pi-06*
X110540000Y-115630000D03*
G04 #@! TO.P,U1,12*
G04 #@! TO.N,N/C*
X112830000Y-115630000D03*
D27*
G04 #@! TO.P,U1,5*
G04 #@! TO.N,pi-02*
X116140000Y-110150000D03*
G04 #@! TO.P,U1,6*
G04 #@! TO.N,Net-(R3-Pad1)*
X116140000Y-114730000D03*
D29*
G04 #@! TO.P,U1,11*
G04 #@! TO.N,Net-(U1-Pad11)*
X116890000Y-112440000D03*
D30*
X115140000Y-112440000D03*
D31*
G04 #@! TO.P,U1,2*
G04 #@! TO.N,Net-(C1-Pad1)*
X104260000Y-105570000D03*
D32*
X108270000Y-103870000D03*
G04 #@! TO.P,U1,3*
G04 #@! TO.N,pi-06*
X110560000Y-103870000D03*
X112850000Y-103870000D03*
D31*
G04 #@! TO.P,U1,4*
G04 #@! TO.N,Net-(C3-Pad1)*
X116830000Y-105570000D03*
G04 #@! TD*
D33*
G04 #@! TO.N,pi-37*
X144145000Y-114935000D03*
X102235000Y-114935000D03*
G04 #@! TD*
D34*
G04 #@! TO.N,Net-(C1-Pad1)*
X97155000Y-106840000D02*
X98425000Y-105570000D01*
X97155000Y-108585000D02*
X97155000Y-106840000D01*
X95250000Y-110490000D02*
X97155000Y-108585000D01*
D35*
X100330000Y-105570000D02*
X100330000Y-108355000D01*
D34*
X100330000Y-105570000D02*
X98425000Y-105570000D01*
X100965000Y-104775000D02*
X100965000Y-105570000D01*
X104260000Y-105570000D02*
X100965000Y-105570000D01*
X100965000Y-105570000D02*
X100330000Y-105570000D01*
X93345000Y-106600000D02*
X92075000Y-105330000D01*
X95250000Y-110490000D02*
X93345000Y-108585000D01*
X93345000Y-108585000D02*
X93345000Y-106600000D01*
G04 #@! TO.N,Net-(C3-Pad1)*
X120745000Y-99060000D02*
X120745000Y-98965000D01*
X121030000Y-98680000D02*
X126620000Y-98680000D01*
X120745000Y-98965000D02*
X121030000Y-98680000D01*
D35*
X139470000Y-96530000D02*
X138825000Y-95885000D01*
X139470000Y-97155000D02*
X139470000Y-96530000D01*
X138825000Y-95885000D02*
X127000000Y-95885000D01*
X126620000Y-96265000D02*
X126620000Y-98680000D01*
X127000000Y-95885000D02*
X126620000Y-96265000D01*
D34*
X121285000Y-104775000D02*
X121285000Y-105570000D01*
X118745000Y-104775000D02*
X118745000Y-105570000D01*
X116830000Y-105570000D02*
X118745000Y-105570000D01*
X120745000Y-100860000D02*
X121485000Y-101600000D01*
X121485000Y-101600000D02*
X122555000Y-101600000D01*
X122555000Y-101600000D02*
X123190000Y-102235000D01*
X120745000Y-99060000D02*
X120745000Y-100860000D01*
X122776000Y-105570000D02*
X123190000Y-105156000D01*
X123190000Y-102235000D02*
X123190000Y-105156000D01*
X118745000Y-105570000D02*
X120650000Y-105570000D01*
X120650000Y-105570000D02*
X121285000Y-105570000D01*
X120650000Y-105570000D02*
X122776000Y-105570000D01*
G04 #@! TO.N,pi-02*
X134480000Y-104140000D02*
X132080000Y-104140000D01*
X134620000Y-104000000D02*
X134480000Y-104140000D01*
X134620000Y-98680000D02*
X134620000Y-104000000D01*
X147240000Y-104140000D02*
X147320000Y-104220000D01*
X132080000Y-104140000D02*
X147240000Y-104140000D01*
X124475002Y-110150000D02*
X116140000Y-110150000D01*
X126070000Y-110150000D02*
X124475002Y-110150000D01*
X126675002Y-109544998D02*
X126070000Y-110150000D01*
X126675002Y-105099998D02*
X126675002Y-109544998D01*
X132080000Y-104140000D02*
X127635000Y-104140000D01*
X127635000Y-104140000D02*
X126675002Y-105099998D01*
D35*
X135635000Y-99695000D02*
X134620000Y-98680000D01*
X139470000Y-99695000D02*
X135635000Y-99695000D01*
G04 #@! TO.N,Net-(D2-Pad2)*
X140970000Y-97155000D02*
X143510000Y-97155000D01*
G04 #@! TO.N,Net-(D3-Pad2)*
X143510000Y-99695000D02*
X141605000Y-99695000D01*
X141605000Y-99695000D02*
X140970000Y-99695000D01*
G04 #@! TO.N,pi-08*
X104165001Y-95235001D02*
X106720000Y-97790000D01*
X102990000Y-90730000D02*
X104165001Y-91905001D01*
X104165001Y-91905001D02*
X104165001Y-95235001D01*
G04 #@! TO.N,pi-10*
X106705001Y-95275001D02*
X109220000Y-97790000D01*
X105530000Y-90730000D02*
X106705001Y-91905001D01*
X106705001Y-91905001D02*
X106705001Y-95275001D01*
G04 #@! TO.N,pi-12*
X109245001Y-95315001D02*
X111720000Y-97790000D01*
X108070000Y-90730000D02*
X109245001Y-91905001D01*
X109245001Y-91905001D02*
X109245001Y-95315001D01*
G04 #@! TO.N,pi-37*
X100330000Y-111990000D02*
X102465000Y-111990000D01*
X102915000Y-112440000D02*
X104940000Y-112440000D01*
X102465000Y-111990000D02*
X102915000Y-112440000D01*
X100330000Y-113490000D02*
X100330000Y-111990000D01*
X141939999Y-92420001D02*
X141939999Y-92375001D01*
X141090000Y-93270000D02*
X141939999Y-92420001D01*
X141939999Y-92375001D02*
X142240000Y-92075000D01*
X142240000Y-92075000D02*
X144174002Y-92075000D01*
X144174002Y-92075000D02*
X145415000Y-92075000D01*
X145415000Y-92075000D02*
X146050000Y-92710000D01*
X146050000Y-92710000D02*
X146050000Y-93980000D01*
X146050000Y-93980000D02*
X147320000Y-95250000D01*
X147320000Y-95250000D02*
X148590000Y-95250000D01*
X148590000Y-95250000D02*
X149860000Y-96520000D01*
X149860000Y-96520000D02*
X149860000Y-109765002D01*
X149860000Y-109765002D02*
X149860000Y-111760000D01*
X149860000Y-111760000D02*
X149225000Y-112395000D01*
X149225000Y-112395000D02*
X146685000Y-112395000D01*
X146685000Y-112395000D02*
X144145000Y-114935000D01*
X100330000Y-113490000D02*
X100330000Y-113515000D01*
X100330000Y-113515000D02*
X100330000Y-114300000D01*
X100330000Y-114300000D02*
X100965000Y-114935000D01*
X100965000Y-114935000D02*
X102235000Y-114935000D01*
G04 #@! TO.N,Net-(R1-Pad2)*
X100330000Y-109855000D02*
X101600000Y-109855000D01*
X101895000Y-110150000D02*
X104940000Y-110150000D01*
X101600000Y-109855000D02*
X101895000Y-110150000D01*
X97790000Y-110490000D02*
X97790000Y-116840000D01*
X100330000Y-109855000D02*
X98425000Y-109855000D01*
X98425000Y-109855000D02*
X97790000Y-110490000D01*
G04 #@! TO.N,Net-(R3-Pad1)*
X119810000Y-114730000D02*
X120015000Y-114935000D01*
X116140000Y-114730000D02*
X119810000Y-114730000D01*
G04 #@! TD*
D36*
G04 #@! TO.N,pi-06*
G36*
X93802560Y-110789114D02*
X93802560Y-111290000D01*
X93851843Y-111537765D01*
X93992191Y-111747809D01*
X94202235Y-111888157D01*
X94436187Y-111934693D01*
X94421861Y-111982255D01*
X95250000Y-112810395D01*
X96078139Y-111982255D01*
X96063813Y-111934693D01*
X96297765Y-111888157D01*
X96507809Y-111747809D01*
X96648157Y-111537765D01*
X96697440Y-111290000D01*
X96697440Y-110789113D01*
X97019720Y-110466833D01*
X97015112Y-110490000D01*
X97030000Y-110564847D01*
X97030001Y-115561821D01*
X96719375Y-115769375D01*
X96506157Y-116088478D01*
X96445183Y-115958642D01*
X96016924Y-115568355D01*
X95606890Y-115398524D01*
X95377000Y-115519845D01*
X95377000Y-116713000D01*
X95397000Y-116713000D01*
X95397000Y-116967000D01*
X95377000Y-116967000D01*
X95377000Y-116987000D01*
X95123000Y-116987000D01*
X95123000Y-116967000D01*
X93929181Y-116967000D01*
X93808514Y-117196892D01*
X94054817Y-117721358D01*
X94130137Y-117790000D01*
X93169650Y-117790000D01*
X93143391Y-117779123D01*
X92904101Y-117731525D01*
X92822798Y-117677201D01*
X92768475Y-117595901D01*
X92720877Y-117356609D01*
X92710000Y-117330350D01*
X92710000Y-116483108D01*
X93808514Y-116483108D01*
X93929181Y-116713000D01*
X95123000Y-116713000D01*
X95123000Y-115519845D01*
X94893110Y-115398524D01*
X94483076Y-115568355D01*
X94054817Y-115958642D01*
X93808514Y-116483108D01*
X92710000Y-116483108D01*
X92710000Y-113997745D01*
X94421861Y-113997745D01*
X94495995Y-114243864D01*
X95033223Y-114436965D01*
X95603454Y-114409778D01*
X96004005Y-114243864D01*
X96078139Y-113997745D01*
X95250000Y-113169605D01*
X94421861Y-113997745D01*
X92710000Y-113997745D01*
X92710000Y-112773223D01*
X93803035Y-112773223D01*
X93830222Y-113343454D01*
X93996136Y-113744005D01*
X94242255Y-113818139D01*
X95070395Y-112990000D01*
X95429605Y-112990000D01*
X96257745Y-113818139D01*
X96503864Y-113744005D01*
X96696965Y-113206777D01*
X96669778Y-112636546D01*
X96503864Y-112235995D01*
X96257745Y-112161861D01*
X95429605Y-112990000D01*
X95070395Y-112990000D01*
X94242255Y-112161861D01*
X93996136Y-112235995D01*
X93803035Y-112773223D01*
X92710000Y-112773223D01*
X92710000Y-109696553D01*
X93802560Y-110789114D01*
X93802560Y-110789114D01*
G37*
X93802560Y-110789114D02*
X93802560Y-111290000D01*
X93851843Y-111537765D01*
X93992191Y-111747809D01*
X94202235Y-111888157D01*
X94436187Y-111934693D01*
X94421861Y-111982255D01*
X95250000Y-112810395D01*
X96078139Y-111982255D01*
X96063813Y-111934693D01*
X96297765Y-111888157D01*
X96507809Y-111747809D01*
X96648157Y-111537765D01*
X96697440Y-111290000D01*
X96697440Y-110789113D01*
X97019720Y-110466833D01*
X97015112Y-110490000D01*
X97030000Y-110564847D01*
X97030001Y-115561821D01*
X96719375Y-115769375D01*
X96506157Y-116088478D01*
X96445183Y-115958642D01*
X96016924Y-115568355D01*
X95606890Y-115398524D01*
X95377000Y-115519845D01*
X95377000Y-116713000D01*
X95397000Y-116713000D01*
X95397000Y-116967000D01*
X95377000Y-116967000D01*
X95377000Y-116987000D01*
X95123000Y-116987000D01*
X95123000Y-116967000D01*
X93929181Y-116967000D01*
X93808514Y-117196892D01*
X94054817Y-117721358D01*
X94130137Y-117790000D01*
X93169650Y-117790000D01*
X93143391Y-117779123D01*
X92904101Y-117731525D01*
X92822798Y-117677201D01*
X92768475Y-117595901D01*
X92720877Y-117356609D01*
X92710000Y-117330350D01*
X92710000Y-116483108D01*
X93808514Y-116483108D01*
X93929181Y-116713000D01*
X95123000Y-116713000D01*
X95123000Y-115519845D01*
X94893110Y-115398524D01*
X94483076Y-115568355D01*
X94054817Y-115958642D01*
X93808514Y-116483108D01*
X92710000Y-116483108D01*
X92710000Y-113997745D01*
X94421861Y-113997745D01*
X94495995Y-114243864D01*
X95033223Y-114436965D01*
X95603454Y-114409778D01*
X96004005Y-114243864D01*
X96078139Y-113997745D01*
X95250000Y-113169605D01*
X94421861Y-113997745D01*
X92710000Y-113997745D01*
X92710000Y-112773223D01*
X93803035Y-112773223D01*
X93830222Y-113343454D01*
X93996136Y-113744005D01*
X94242255Y-113818139D01*
X95070395Y-112990000D01*
X95429605Y-112990000D01*
X96257745Y-113818139D01*
X96503864Y-113744005D01*
X96696965Y-113206777D01*
X96669778Y-112636546D01*
X96503864Y-112235995D01*
X96257745Y-112161861D01*
X95429605Y-112990000D01*
X95070395Y-112990000D01*
X94242255Y-112161861D01*
X93996136Y-112235995D01*
X93803035Y-112773223D01*
X92710000Y-112773223D01*
X92710000Y-109696553D01*
X93802560Y-110789114D01*
G36*
X149525708Y-88776100D02*
X150023212Y-88956685D01*
X150465835Y-89246881D01*
X150829823Y-89631116D01*
X151095658Y-90088784D01*
X151251892Y-90604629D01*
X151290000Y-91031618D01*
X151290001Y-115314712D01*
X151286063Y-115325301D01*
X151269945Y-115414884D01*
X151199405Y-116019918D01*
X151020809Y-116511944D01*
X150733810Y-116949689D01*
X150353807Y-117309670D01*
X149901180Y-117572576D01*
X149390584Y-117727220D01*
X148934663Y-117767910D01*
X148828463Y-117790000D01*
X101807549Y-117790000D01*
X101827440Y-117690000D01*
X101827440Y-115990000D01*
X101804995Y-115877162D01*
X102029126Y-115970000D01*
X102440874Y-115970000D01*
X102821280Y-115812431D01*
X102927601Y-115706110D01*
X102982191Y-115787809D01*
X103192235Y-115928157D01*
X103440000Y-115977440D01*
X106440000Y-115977440D01*
X106687765Y-115928157D01*
X106897809Y-115787809D01*
X107002560Y-115631039D01*
X107002560Y-117130000D01*
X107051843Y-117377765D01*
X107192191Y-117587809D01*
X107402235Y-117728157D01*
X107650000Y-117777440D01*
X108850000Y-117777440D01*
X109097765Y-117728157D01*
X109307809Y-117587809D01*
X109390840Y-117463545D01*
X109401673Y-117489698D01*
X109580301Y-117668327D01*
X109813690Y-117765000D01*
X110254250Y-117765000D01*
X110413000Y-117606250D01*
X110413000Y-115757000D01*
X110393000Y-115757000D01*
X110393000Y-115503000D01*
X110413000Y-115503000D01*
X110413000Y-115483000D01*
X110667000Y-115483000D01*
X110667000Y-115503000D01*
X110687000Y-115503000D01*
X110687000Y-115757000D01*
X110667000Y-115757000D01*
X110667000Y-117606250D01*
X110825750Y-117765000D01*
X111266310Y-117765000D01*
X111499699Y-117668327D01*
X111678327Y-117489698D01*
X111689160Y-117463545D01*
X111772191Y-117587809D01*
X111982235Y-117728157D01*
X112230000Y-117777440D01*
X113430000Y-117777440D01*
X113677765Y-117728157D01*
X113887809Y-117587809D01*
X114028157Y-117377765D01*
X114077440Y-117130000D01*
X114077440Y-115631039D01*
X114182191Y-115787809D01*
X114392235Y-115928157D01*
X114640000Y-115977440D01*
X117640000Y-115977440D01*
X117887765Y-115928157D01*
X118097809Y-115787809D01*
X118238157Y-115577765D01*
X118255614Y-115490000D01*
X119003364Y-115490000D01*
X119016843Y-115557765D01*
X119157191Y-115767809D01*
X119367235Y-115908157D01*
X119615000Y-115957440D01*
X120415000Y-115957440D01*
X120662765Y-115908157D01*
X120754102Y-115847127D01*
X120755302Y-115848327D01*
X120988691Y-115945000D01*
X121229250Y-115945000D01*
X121388000Y-115786250D01*
X121388000Y-115062000D01*
X121642000Y-115062000D01*
X121642000Y-115786250D01*
X121800750Y-115945000D01*
X122041309Y-115945000D01*
X122274698Y-115848327D01*
X122453327Y-115669699D01*
X122550000Y-115436310D01*
X122550000Y-115220750D01*
X122391250Y-115062000D01*
X121642000Y-115062000D01*
X121388000Y-115062000D01*
X121368000Y-115062000D01*
X121368000Y-114808000D01*
X121388000Y-114808000D01*
X121388000Y-114083750D01*
X121642000Y-114083750D01*
X121642000Y-114808000D01*
X122391250Y-114808000D01*
X122550000Y-114649250D01*
X122550000Y-114433690D01*
X122453327Y-114200301D01*
X122274698Y-114021673D01*
X122041309Y-113925000D01*
X121800750Y-113925000D01*
X121642000Y-114083750D01*
X121388000Y-114083750D01*
X121229250Y-113925000D01*
X120988691Y-113925000D01*
X120755302Y-114021673D01*
X120754102Y-114022873D01*
X120662765Y-113961843D01*
X120415000Y-113912560D01*
X119615000Y-113912560D01*
X119367235Y-113961843D01*
X119355027Y-113970000D01*
X118255614Y-113970000D01*
X118238157Y-113882235D01*
X118097809Y-113672191D01*
X117967319Y-113585000D01*
X118097809Y-113497809D01*
X118238157Y-113287765D01*
X118287440Y-113040000D01*
X118287440Y-111840000D01*
X118238157Y-111592235D01*
X118099686Y-111385000D01*
X125948368Y-111385000D01*
X126070000Y-111409194D01*
X126191632Y-111385000D01*
X126191636Y-111385000D01*
X126551873Y-111313344D01*
X126960385Y-111040385D01*
X127029287Y-110937266D01*
X127462268Y-110504285D01*
X127562705Y-110437175D01*
X130962430Y-110437175D01*
X131085565Y-110724788D01*
X131767734Y-110984707D01*
X132497443Y-110963786D01*
X133074435Y-110724788D01*
X133197570Y-110437175D01*
X132080000Y-109319605D01*
X130962430Y-110437175D01*
X127562705Y-110437175D01*
X127565387Y-110435383D01*
X127838346Y-110026871D01*
X127910002Y-109666634D01*
X127910002Y-109666631D01*
X127934196Y-109544999D01*
X127910002Y-109423367D01*
X127910002Y-108827734D01*
X130235293Y-108827734D01*
X130256214Y-109557443D01*
X130495212Y-110134435D01*
X130782825Y-110257570D01*
X131900395Y-109140000D01*
X132259605Y-109140000D01*
X133377175Y-110257570D01*
X133664788Y-110134435D01*
X133904328Y-109505750D01*
X145435000Y-109505750D01*
X145435000Y-110596309D01*
X145531673Y-110829698D01*
X145710301Y-111008327D01*
X145943690Y-111105000D01*
X147034250Y-111105000D01*
X147193000Y-110946250D01*
X147193000Y-109347000D01*
X145593750Y-109347000D01*
X145435000Y-109505750D01*
X133904328Y-109505750D01*
X133924707Y-109452266D01*
X133903786Y-108722557D01*
X133664788Y-108145565D01*
X133377175Y-108022430D01*
X132259605Y-109140000D01*
X131900395Y-109140000D01*
X130782825Y-108022430D01*
X130495212Y-108145565D01*
X130235293Y-108827734D01*
X127910002Y-108827734D01*
X127910002Y-107842825D01*
X130962430Y-107842825D01*
X132080000Y-108960395D01*
X133196704Y-107843691D01*
X145435000Y-107843691D01*
X145435000Y-108934250D01*
X145593750Y-109093000D01*
X147193000Y-109093000D01*
X147193000Y-107493750D01*
X147034250Y-107335000D01*
X145943690Y-107335000D01*
X145710301Y-107431673D01*
X145531673Y-107610302D01*
X145435000Y-107843691D01*
X133196704Y-107843691D01*
X133197570Y-107842825D01*
X133074435Y-107555212D01*
X132392266Y-107295293D01*
X131662557Y-107316214D01*
X131085565Y-107555212D01*
X130962430Y-107842825D01*
X127910002Y-107842825D01*
X127910002Y-105611551D01*
X128146554Y-105375000D01*
X130239522Y-105375000D01*
X130281843Y-105587765D01*
X130422191Y-105797809D01*
X130632235Y-105938157D01*
X130880000Y-105987440D01*
X133280000Y-105987440D01*
X133527765Y-105938157D01*
X133737809Y-105797809D01*
X133878157Y-105587765D01*
X133920478Y-105375000D01*
X134358368Y-105375000D01*
X134480000Y-105399194D01*
X134601632Y-105375000D01*
X145809207Y-105375000D01*
X146252233Y-105818026D01*
X146945050Y-106105000D01*
X147694950Y-106105000D01*
X148387767Y-105818026D01*
X148918026Y-105287767D01*
X149100001Y-104848441D01*
X149100001Y-107601976D01*
X148929699Y-107431673D01*
X148696310Y-107335000D01*
X147605750Y-107335000D01*
X147447000Y-107493750D01*
X147447000Y-109093000D01*
X147467000Y-109093000D01*
X147467000Y-109347000D01*
X147447000Y-109347000D01*
X147447000Y-110946250D01*
X147605750Y-111105000D01*
X148696310Y-111105000D01*
X148929699Y-111008327D01*
X149100001Y-110838025D01*
X149100001Y-111445198D01*
X148910199Y-111635000D01*
X146759846Y-111635000D01*
X146684999Y-111620112D01*
X146610152Y-111635000D01*
X146610148Y-111635000D01*
X146388463Y-111679096D01*
X146325902Y-111720898D01*
X146200526Y-111804671D01*
X146200524Y-111804673D01*
X146137071Y-111847071D01*
X146094673Y-111910524D01*
X144105199Y-113900000D01*
X143939126Y-113900000D01*
X143558720Y-114057569D01*
X143267569Y-114348720D01*
X143110000Y-114729126D01*
X143110000Y-115140874D01*
X143267569Y-115521280D01*
X143558720Y-115812431D01*
X143939126Y-115970000D01*
X144350874Y-115970000D01*
X144731280Y-115812431D01*
X145022431Y-115521280D01*
X145180000Y-115140874D01*
X145180000Y-114974801D01*
X146999803Y-113155000D01*
X147767170Y-113155000D01*
X147375588Y-113317199D01*
X146817199Y-113875588D01*
X146515000Y-114605159D01*
X146515000Y-115394841D01*
X146817199Y-116124412D01*
X147375588Y-116682801D01*
X148105159Y-116985000D01*
X148894841Y-116985000D01*
X149624412Y-116682801D01*
X150182801Y-116124412D01*
X150485000Y-115394841D01*
X150485000Y-114605159D01*
X150182801Y-113875588D01*
X149624412Y-113317199D01*
X149254572Y-113164006D01*
X149299847Y-113155000D01*
X149299852Y-113155000D01*
X149521537Y-113110904D01*
X149772929Y-112942929D01*
X149815331Y-112879470D01*
X150344473Y-112350329D01*
X150407929Y-112307929D01*
X150575904Y-112056537D01*
X150620000Y-111834852D01*
X150620000Y-111834848D01*
X150634888Y-111760000D01*
X150620000Y-111685152D01*
X150620000Y-96594846D01*
X150634888Y-96519999D01*
X150620000Y-96445152D01*
X150620000Y-96445148D01*
X150575904Y-96223463D01*
X150407929Y-95972071D01*
X150344473Y-95929671D01*
X149180331Y-94765530D01*
X149137929Y-94702071D01*
X148886537Y-94534096D01*
X148664852Y-94490000D01*
X148664847Y-94490000D01*
X148590000Y-94475112D01*
X148515153Y-94490000D01*
X147634802Y-94490000D01*
X146810000Y-93665199D01*
X146810000Y-93107032D01*
X146817199Y-93124412D01*
X147375588Y-93682801D01*
X148105159Y-93985000D01*
X148894841Y-93985000D01*
X149624412Y-93682801D01*
X150182801Y-93124412D01*
X150485000Y-92394841D01*
X150485000Y-91605159D01*
X150182801Y-90875588D01*
X149624412Y-90317199D01*
X148894841Y-90015000D01*
X148105159Y-90015000D01*
X147375588Y-90317199D01*
X146817199Y-90875588D01*
X146515000Y-91605159D01*
X146515000Y-92100198D01*
X146005331Y-91590530D01*
X145962929Y-91527071D01*
X145711537Y-91359096D01*
X145489852Y-91315000D01*
X145489847Y-91315000D01*
X145415000Y-91300112D01*
X145340153Y-91315000D01*
X145025109Y-91315000D01*
X145028839Y-91309418D01*
X145144092Y-90730000D01*
X145028839Y-90150582D01*
X144700625Y-89659375D01*
X144209418Y-89331161D01*
X143776256Y-89245000D01*
X143483744Y-89245000D01*
X143050582Y-89331161D01*
X142559375Y-89659375D01*
X142360000Y-89957761D01*
X142160625Y-89659375D01*
X141669418Y-89331161D01*
X141236256Y-89245000D01*
X140943744Y-89245000D01*
X140510582Y-89331161D01*
X140019375Y-89659375D01*
X139820000Y-89957761D01*
X139620625Y-89659375D01*
X139129418Y-89331161D01*
X138696256Y-89245000D01*
X138403744Y-89245000D01*
X137970582Y-89331161D01*
X137479375Y-89659375D01*
X137266157Y-89978478D01*
X137205183Y-89848642D01*
X136776924Y-89458355D01*
X136366890Y-89288524D01*
X136137000Y-89409845D01*
X136137000Y-90603000D01*
X136157000Y-90603000D01*
X136157000Y-90857000D01*
X136137000Y-90857000D01*
X136137000Y-90877000D01*
X135883000Y-90877000D01*
X135883000Y-90857000D01*
X135863000Y-90857000D01*
X135863000Y-90603000D01*
X135883000Y-90603000D01*
X135883000Y-89409845D01*
X135653110Y-89288524D01*
X135243076Y-89458355D01*
X134814817Y-89848642D01*
X134753843Y-89978478D01*
X134540625Y-89659375D01*
X134049418Y-89331161D01*
X133616256Y-89245000D01*
X133323744Y-89245000D01*
X132890582Y-89331161D01*
X132399375Y-89659375D01*
X132186157Y-89978478D01*
X132125183Y-89848642D01*
X131696924Y-89458355D01*
X131286890Y-89288524D01*
X131057000Y-89409845D01*
X131057000Y-90603000D01*
X131077000Y-90603000D01*
X131077000Y-90857000D01*
X131057000Y-90857000D01*
X131057000Y-90877000D01*
X130803000Y-90877000D01*
X130803000Y-90857000D01*
X130783000Y-90857000D01*
X130783000Y-90603000D01*
X130803000Y-90603000D01*
X130803000Y-89409845D01*
X130573110Y-89288524D01*
X130163076Y-89458355D01*
X129734817Y-89848642D01*
X129673843Y-89978478D01*
X129460625Y-89659375D01*
X128969418Y-89331161D01*
X128536256Y-89245000D01*
X128243744Y-89245000D01*
X127810582Y-89331161D01*
X127319375Y-89659375D01*
X127120000Y-89957761D01*
X126920625Y-89659375D01*
X126429418Y-89331161D01*
X125996256Y-89245000D01*
X125703744Y-89245000D01*
X125270582Y-89331161D01*
X124779375Y-89659375D01*
X124580000Y-89957761D01*
X124380625Y-89659375D01*
X123889418Y-89331161D01*
X123456256Y-89245000D01*
X123163744Y-89245000D01*
X122730582Y-89331161D01*
X122239375Y-89659375D01*
X122040000Y-89957761D01*
X121840625Y-89659375D01*
X121349418Y-89331161D01*
X120916256Y-89245000D01*
X120623744Y-89245000D01*
X120190582Y-89331161D01*
X119699375Y-89659375D01*
X119486157Y-89978478D01*
X119425183Y-89848642D01*
X118996924Y-89458355D01*
X118586890Y-89288524D01*
X118357000Y-89409845D01*
X118357000Y-90603000D01*
X118377000Y-90603000D01*
X118377000Y-90857000D01*
X118357000Y-90857000D01*
X118357000Y-90877000D01*
X118103000Y-90877000D01*
X118103000Y-90857000D01*
X118083000Y-90857000D01*
X118083000Y-90603000D01*
X118103000Y-90603000D01*
X118103000Y-89409845D01*
X117873110Y-89288524D01*
X117463076Y-89458355D01*
X117034817Y-89848642D01*
X116973843Y-89978478D01*
X116760625Y-89659375D01*
X116269418Y-89331161D01*
X115836256Y-89245000D01*
X115543744Y-89245000D01*
X115110582Y-89331161D01*
X114619375Y-89659375D01*
X114420000Y-89957761D01*
X114220625Y-89659375D01*
X113729418Y-89331161D01*
X113296256Y-89245000D01*
X113003744Y-89245000D01*
X112570582Y-89331161D01*
X112079375Y-89659375D01*
X111866157Y-89978478D01*
X111805183Y-89848642D01*
X111376924Y-89458355D01*
X110966890Y-89288524D01*
X110737000Y-89409845D01*
X110737000Y-90603000D01*
X110757000Y-90603000D01*
X110757000Y-90857000D01*
X110737000Y-90857000D01*
X110737000Y-90877000D01*
X110483000Y-90877000D01*
X110483000Y-90857000D01*
X110463000Y-90857000D01*
X110463000Y-90603000D01*
X110483000Y-90603000D01*
X110483000Y-89409845D01*
X110253110Y-89288524D01*
X109843076Y-89458355D01*
X109414817Y-89848642D01*
X109353843Y-89978478D01*
X109140625Y-89659375D01*
X108649418Y-89331161D01*
X108216256Y-89245000D01*
X107923744Y-89245000D01*
X107490582Y-89331161D01*
X106999375Y-89659375D01*
X106800000Y-89957761D01*
X106600625Y-89659375D01*
X106109418Y-89331161D01*
X105676256Y-89245000D01*
X105383744Y-89245000D01*
X104950582Y-89331161D01*
X104459375Y-89659375D01*
X104260000Y-89957761D01*
X104060625Y-89659375D01*
X103569418Y-89331161D01*
X103136256Y-89245000D01*
X102843744Y-89245000D01*
X102410582Y-89331161D01*
X101919375Y-89659375D01*
X101706157Y-89978478D01*
X101645183Y-89848642D01*
X101216924Y-89458355D01*
X100806890Y-89288524D01*
X100577000Y-89409845D01*
X100577000Y-90603000D01*
X100597000Y-90603000D01*
X100597000Y-90857000D01*
X100577000Y-90857000D01*
X100577000Y-90877000D01*
X100323000Y-90877000D01*
X100323000Y-90857000D01*
X100303000Y-90857000D01*
X100303000Y-90603000D01*
X100323000Y-90603000D01*
X100323000Y-89409845D01*
X100093110Y-89288524D01*
X99683076Y-89458355D01*
X99254817Y-89848642D01*
X99193843Y-89978478D01*
X98980625Y-89659375D01*
X98489418Y-89331161D01*
X98056256Y-89245000D01*
X97763744Y-89245000D01*
X97330582Y-89331161D01*
X96839375Y-89659375D01*
X96640000Y-89957761D01*
X96440625Y-89659375D01*
X95949418Y-89331161D01*
X95516256Y-89245000D01*
X95223744Y-89245000D01*
X94790582Y-89331161D01*
X94299375Y-89659375D01*
X93971161Y-90150582D01*
X93855908Y-90730000D01*
X93971161Y-91309418D01*
X94299375Y-91800625D01*
X94317619Y-91812816D01*
X94272235Y-91821843D01*
X94062191Y-91962191D01*
X93921843Y-92172235D01*
X93872560Y-92420000D01*
X93872560Y-94120000D01*
X93921843Y-94367765D01*
X94062191Y-94577809D01*
X94272235Y-94718157D01*
X94520000Y-94767440D01*
X96220000Y-94767440D01*
X96467765Y-94718157D01*
X96677809Y-94577809D01*
X96818157Y-94367765D01*
X96827184Y-94322381D01*
X96839375Y-94340625D01*
X97330582Y-94668839D01*
X97763744Y-94755000D01*
X98056256Y-94755000D01*
X98489418Y-94668839D01*
X98980625Y-94340625D01*
X99180000Y-94042239D01*
X99379375Y-94340625D01*
X99870582Y-94668839D01*
X100303744Y-94755000D01*
X100596256Y-94755000D01*
X101029418Y-94668839D01*
X101520625Y-94340625D01*
X101720000Y-94042239D01*
X101919375Y-94340625D01*
X102410582Y-94668839D01*
X102843744Y-94755000D01*
X103136256Y-94755000D01*
X103405002Y-94701543D01*
X103405002Y-95160149D01*
X103390113Y-95235001D01*
X103405002Y-95309853D01*
X103449098Y-95531538D01*
X103617073Y-95782930D01*
X103680529Y-95825330D01*
X104137362Y-96282163D01*
X103854542Y-96294421D01*
X103420884Y-96474047D01*
X103337546Y-96727938D01*
X103222914Y-96613306D01*
X103183475Y-96652745D01*
X103052809Y-96457191D01*
X102842765Y-96316843D01*
X102595000Y-96267560D01*
X100845000Y-96267560D01*
X100597235Y-96316843D01*
X100387191Y-96457191D01*
X100246843Y-96667235D01*
X100197560Y-96915000D01*
X100197560Y-98665000D01*
X100246843Y-98912765D01*
X100387191Y-99122809D01*
X100597235Y-99263157D01*
X100845000Y-99312440D01*
X102595000Y-99312440D01*
X102842765Y-99263157D01*
X103052809Y-99122809D01*
X103183475Y-98927255D01*
X103222914Y-98966694D01*
X103337546Y-98852062D01*
X103420884Y-99105953D01*
X103985306Y-99311590D01*
X104585458Y-99285579D01*
X105019116Y-99105953D01*
X105102455Y-98852060D01*
X104220000Y-97969605D01*
X104205858Y-97983748D01*
X104026253Y-97804143D01*
X104040395Y-97790000D01*
X104026253Y-97775858D01*
X104205858Y-97596253D01*
X104220000Y-97610395D01*
X104234143Y-97596253D01*
X104413748Y-97775858D01*
X104399605Y-97790000D01*
X105282060Y-98672455D01*
X105430879Y-98623606D01*
X105439884Y-98645346D01*
X105864654Y-99070116D01*
X106419642Y-99300000D01*
X107020358Y-99300000D01*
X107575346Y-99070116D01*
X107970000Y-98675462D01*
X108364654Y-99070116D01*
X108919642Y-99300000D01*
X109520358Y-99300000D01*
X110075346Y-99070116D01*
X110470000Y-98675462D01*
X110864654Y-99070116D01*
X111419642Y-99300000D01*
X112020358Y-99300000D01*
X112575346Y-99070116D01*
X112754426Y-98891036D01*
X117497193Y-98891036D01*
X117527518Y-99381413D01*
X117656836Y-99693617D01*
X117882265Y-99743130D01*
X118565395Y-99060000D01*
X117882265Y-98376870D01*
X117656836Y-98426383D01*
X117497193Y-98891036D01*
X112754426Y-98891036D01*
X113000116Y-98645346D01*
X113230000Y-98090358D01*
X113230000Y-97489642D01*
X113000116Y-96934654D01*
X112575346Y-96509884D01*
X112020358Y-96280000D01*
X111419642Y-96280000D01*
X111324296Y-96319494D01*
X110005001Y-95000200D01*
X110005001Y-94651746D01*
X110030582Y-94668839D01*
X110463744Y-94755000D01*
X110756256Y-94755000D01*
X111189418Y-94668839D01*
X111680625Y-94340625D01*
X111880000Y-94042239D01*
X112079375Y-94340625D01*
X112570582Y-94668839D01*
X113003744Y-94755000D01*
X113296256Y-94755000D01*
X113729418Y-94668839D01*
X114220625Y-94340625D01*
X114420000Y-94042239D01*
X114619375Y-94340625D01*
X115110582Y-94668839D01*
X115543744Y-94755000D01*
X115836256Y-94755000D01*
X116269418Y-94668839D01*
X116760625Y-94340625D01*
X116960000Y-94042239D01*
X117159375Y-94340625D01*
X117650582Y-94668839D01*
X118083744Y-94755000D01*
X118376256Y-94755000D01*
X118809418Y-94668839D01*
X119300625Y-94340625D01*
X119500000Y-94042239D01*
X119699375Y-94340625D01*
X120190582Y-94668839D01*
X120623744Y-94755000D01*
X120916256Y-94755000D01*
X121349418Y-94668839D01*
X121840625Y-94340625D01*
X122040000Y-94042239D01*
X122239375Y-94340625D01*
X122730582Y-94668839D01*
X123163744Y-94755000D01*
X123456256Y-94755000D01*
X123889418Y-94668839D01*
X124380625Y-94340625D01*
X124593843Y-94021522D01*
X124654817Y-94151358D01*
X125083076Y-94541645D01*
X125493110Y-94711476D01*
X125723000Y-94590155D01*
X125723000Y-93397000D01*
X125703000Y-93397000D01*
X125703000Y-93143000D01*
X125723000Y-93143000D01*
X125723000Y-93123000D01*
X125977000Y-93123000D01*
X125977000Y-93143000D01*
X125997000Y-93143000D01*
X125997000Y-93397000D01*
X125977000Y-93397000D01*
X125977000Y-94590155D01*
X126206890Y-94711476D01*
X126616924Y-94541645D01*
X127045183Y-94151358D01*
X127106157Y-94021522D01*
X127319375Y-94340625D01*
X127810582Y-94668839D01*
X128243744Y-94755000D01*
X128536256Y-94755000D01*
X128969418Y-94668839D01*
X129460625Y-94340625D01*
X129660000Y-94042239D01*
X129859375Y-94340625D01*
X130350582Y-94668839D01*
X130783744Y-94755000D01*
X131076256Y-94755000D01*
X131509418Y-94668839D01*
X132000625Y-94340625D01*
X132200000Y-94042239D01*
X132399375Y-94340625D01*
X132890582Y-94668839D01*
X133323744Y-94755000D01*
X133616256Y-94755000D01*
X134049418Y-94668839D01*
X134540625Y-94340625D01*
X134740000Y-94042239D01*
X134939375Y-94340625D01*
X135430582Y-94668839D01*
X135863744Y-94755000D01*
X136156256Y-94755000D01*
X136589418Y-94668839D01*
X137080625Y-94340625D01*
X137280000Y-94042239D01*
X137479375Y-94340625D01*
X137970582Y-94668839D01*
X138403744Y-94755000D01*
X138696256Y-94755000D01*
X139129418Y-94668839D01*
X139620625Y-94340625D01*
X139820000Y-94042239D01*
X140019375Y-94340625D01*
X140510582Y-94668839D01*
X140943744Y-94755000D01*
X141236256Y-94755000D01*
X141669418Y-94668839D01*
X142160625Y-94340625D01*
X142373843Y-94021522D01*
X142434817Y-94151358D01*
X142863076Y-94541645D01*
X143273110Y-94711476D01*
X143503000Y-94590155D01*
X143503000Y-93397000D01*
X143757000Y-93397000D01*
X143757000Y-94590155D01*
X143986890Y-94711476D01*
X144396924Y-94541645D01*
X144825183Y-94151358D01*
X145071486Y-93626892D01*
X144950819Y-93397000D01*
X143757000Y-93397000D01*
X143503000Y-93397000D01*
X143483000Y-93397000D01*
X143483000Y-93143000D01*
X143503000Y-93143000D01*
X143503000Y-93123000D01*
X143757000Y-93123000D01*
X143757000Y-93143000D01*
X144950819Y-93143000D01*
X145071486Y-92913108D01*
X145034804Y-92835000D01*
X145100199Y-92835000D01*
X145290000Y-93024802D01*
X145290001Y-93905149D01*
X145275112Y-93980000D01*
X145334097Y-94276537D01*
X145456759Y-94460113D01*
X145502072Y-94527929D01*
X145565528Y-94570329D01*
X146729670Y-95734472D01*
X146772071Y-95797929D01*
X147023463Y-95965904D01*
X147245148Y-96010000D01*
X147245152Y-96010000D01*
X147319999Y-96024888D01*
X147394846Y-96010000D01*
X148275199Y-96010000D01*
X149100000Y-96834802D01*
X149100001Y-103591559D01*
X148918026Y-103152233D01*
X148387767Y-102621974D01*
X147694950Y-102335000D01*
X146945050Y-102335000D01*
X146252233Y-102621974D01*
X145969207Y-102905000D01*
X135855000Y-102905000D01*
X135855000Y-101277440D01*
X136570000Y-101277440D01*
X136817765Y-101228157D01*
X137027809Y-101087809D01*
X137168157Y-100877765D01*
X137217440Y-100630000D01*
X137217440Y-100455000D01*
X138563541Y-100455000D01*
X138612191Y-100527809D01*
X138822235Y-100668157D01*
X139070000Y-100717440D01*
X139870000Y-100717440D01*
X140117765Y-100668157D01*
X140220000Y-100599845D01*
X140322235Y-100668157D01*
X140570000Y-100717440D01*
X141370000Y-100717440D01*
X141617765Y-100668157D01*
X141827809Y-100527809D01*
X141876459Y-100455000D01*
X142603541Y-100455000D01*
X142652191Y-100527809D01*
X142862235Y-100668157D01*
X143110000Y-100717440D01*
X143910000Y-100717440D01*
X144157765Y-100668157D01*
X144249102Y-100607127D01*
X144250302Y-100608327D01*
X144483691Y-100705000D01*
X144724250Y-100705000D01*
X144883000Y-100546250D01*
X144883000Y-99822000D01*
X145137000Y-99822000D01*
X145137000Y-100546250D01*
X145295750Y-100705000D01*
X145536309Y-100705000D01*
X145769698Y-100608327D01*
X145948327Y-100429699D01*
X146045000Y-100196310D01*
X146045000Y-99980750D01*
X145886250Y-99822000D01*
X145137000Y-99822000D01*
X144883000Y-99822000D01*
X144863000Y-99822000D01*
X144863000Y-99568000D01*
X144883000Y-99568000D01*
X144883000Y-98843750D01*
X145137000Y-98843750D01*
X145137000Y-99568000D01*
X145886250Y-99568000D01*
X146045000Y-99409250D01*
X146045000Y-99193690D01*
X145948327Y-98960301D01*
X145769698Y-98781673D01*
X145536309Y-98685000D01*
X145295750Y-98685000D01*
X145137000Y-98843750D01*
X144883000Y-98843750D01*
X144724250Y-98685000D01*
X144483691Y-98685000D01*
X144250302Y-98781673D01*
X144249102Y-98782873D01*
X144157765Y-98721843D01*
X143910000Y-98672560D01*
X143110000Y-98672560D01*
X142862235Y-98721843D01*
X142652191Y-98862191D01*
X142603541Y-98935000D01*
X141876459Y-98935000D01*
X141827809Y-98862191D01*
X141617765Y-98721843D01*
X141370000Y-98672560D01*
X140570000Y-98672560D01*
X140322235Y-98721843D01*
X140220000Y-98790155D01*
X140117765Y-98721843D01*
X139870000Y-98672560D01*
X139070000Y-98672560D01*
X138822235Y-98721843D01*
X138612191Y-98862191D01*
X138563541Y-98935000D01*
X137217440Y-98935000D01*
X137217440Y-96730000D01*
X137200533Y-96645000D01*
X138449413Y-96645000D01*
X138422560Y-96780000D01*
X138422560Y-97530000D01*
X138471843Y-97777765D01*
X138612191Y-97987809D01*
X138822235Y-98128157D01*
X139070000Y-98177440D01*
X139870000Y-98177440D01*
X140117765Y-98128157D01*
X140220000Y-98059845D01*
X140322235Y-98128157D01*
X140570000Y-98177440D01*
X141370000Y-98177440D01*
X141617765Y-98128157D01*
X141827809Y-97987809D01*
X141876459Y-97915000D01*
X142603541Y-97915000D01*
X142652191Y-97987809D01*
X142862235Y-98128157D01*
X143110000Y-98177440D01*
X143910000Y-98177440D01*
X144157765Y-98128157D01*
X144249102Y-98067127D01*
X144250302Y-98068327D01*
X144483691Y-98165000D01*
X144724250Y-98165000D01*
X144883000Y-98006250D01*
X144883000Y-97282000D01*
X145137000Y-97282000D01*
X145137000Y-98006250D01*
X145295750Y-98165000D01*
X145536309Y-98165000D01*
X145769698Y-98068327D01*
X145948327Y-97889699D01*
X146045000Y-97656310D01*
X146045000Y-97440750D01*
X145886250Y-97282000D01*
X145137000Y-97282000D01*
X144883000Y-97282000D01*
X144863000Y-97282000D01*
X144863000Y-97028000D01*
X144883000Y-97028000D01*
X144883000Y-96303750D01*
X145137000Y-96303750D01*
X145137000Y-97028000D01*
X145886250Y-97028000D01*
X146045000Y-96869250D01*
X146045000Y-96653690D01*
X145948327Y-96420301D01*
X145769698Y-96241673D01*
X145536309Y-96145000D01*
X145295750Y-96145000D01*
X145137000Y-96303750D01*
X144883000Y-96303750D01*
X144724250Y-96145000D01*
X144483691Y-96145000D01*
X144250302Y-96241673D01*
X144249102Y-96242873D01*
X144157765Y-96181843D01*
X143910000Y-96132560D01*
X143110000Y-96132560D01*
X142862235Y-96181843D01*
X142652191Y-96322191D01*
X142603541Y-96395000D01*
X141876459Y-96395000D01*
X141827809Y-96322191D01*
X141617765Y-96181843D01*
X141370000Y-96132560D01*
X140570000Y-96132560D01*
X140322235Y-96181843D01*
X140220000Y-96250155D01*
X140178553Y-96222461D01*
X140060329Y-96045527D01*
X140017929Y-95982071D01*
X139954473Y-95939671D01*
X139415331Y-95400530D01*
X139372929Y-95337071D01*
X139121537Y-95169096D01*
X138899852Y-95125000D01*
X138899847Y-95125000D01*
X138825000Y-95110112D01*
X138750153Y-95125000D01*
X127074846Y-95125000D01*
X126999999Y-95110112D01*
X126925152Y-95125000D01*
X126925148Y-95125000D01*
X126703463Y-95169096D01*
X126452071Y-95337071D01*
X126409669Y-95400530D01*
X126135530Y-95674669D01*
X126072071Y-95717071D01*
X125904096Y-95968464D01*
X125881401Y-96082560D01*
X124670000Y-96082560D01*
X124422235Y-96131843D01*
X124212191Y-96272191D01*
X124071843Y-96482235D01*
X124022560Y-96730000D01*
X124022560Y-97445000D01*
X121151632Y-97445000D01*
X121030000Y-97420806D01*
X120908368Y-97445000D01*
X120908364Y-97445000D01*
X120548127Y-97516656D01*
X120139615Y-97789615D01*
X120121108Y-97817312D01*
X119897235Y-97861843D01*
X119687191Y-98002191D01*
X119597970Y-98135718D01*
X119543822Y-98081570D01*
X119428129Y-98197263D01*
X119378617Y-97971836D01*
X118913964Y-97812193D01*
X118423587Y-97842518D01*
X118111383Y-97971836D01*
X118061870Y-98197265D01*
X118745000Y-98880395D01*
X118759143Y-98866253D01*
X118938748Y-99045858D01*
X118924605Y-99060000D01*
X118938748Y-99074143D01*
X118759143Y-99253748D01*
X118745000Y-99239605D01*
X118061870Y-99922735D01*
X118111383Y-100148164D01*
X118576036Y-100307807D01*
X119066413Y-100277482D01*
X119378617Y-100148164D01*
X119428129Y-99922737D01*
X119510000Y-100004608D01*
X119510001Y-100738364D01*
X119485806Y-100860000D01*
X119581656Y-101341872D01*
X119785714Y-101647267D01*
X119785716Y-101647269D01*
X119854616Y-101750385D01*
X119957732Y-101819285D01*
X120512711Y-102374264D01*
X120371673Y-102515302D01*
X120275000Y-102748691D01*
X120275000Y-102989250D01*
X120433750Y-103148000D01*
X121158000Y-103148000D01*
X121158000Y-103128000D01*
X121412000Y-103128000D01*
X121412000Y-103148000D01*
X121432000Y-103148000D01*
X121432000Y-103402000D01*
X121412000Y-103402000D01*
X121412000Y-103422000D01*
X121158000Y-103422000D01*
X121158000Y-103402000D01*
X120433750Y-103402000D01*
X120275000Y-103560750D01*
X120275000Y-103801309D01*
X120342076Y-103963245D01*
X120121656Y-104293128D01*
X120113327Y-104335000D01*
X119916673Y-104335000D01*
X119908344Y-104293127D01*
X119687924Y-103963245D01*
X119755000Y-103801309D01*
X119755000Y-103560750D01*
X119596250Y-103402000D01*
X118872000Y-103402000D01*
X118872000Y-103422000D01*
X118618000Y-103422000D01*
X118618000Y-103402000D01*
X117893750Y-103402000D01*
X117735000Y-103560750D01*
X117735000Y-103801309D01*
X117802076Y-103963245D01*
X117581656Y-104293128D01*
X117575802Y-104322560D01*
X116536533Y-104322560D01*
X116472809Y-104227191D01*
X116262765Y-104086843D01*
X116015000Y-104037560D01*
X114245000Y-104037560D01*
X114012964Y-104083714D01*
X113926250Y-103997000D01*
X112977000Y-103997000D01*
X112977000Y-104017000D01*
X112723000Y-104017000D01*
X112723000Y-103997000D01*
X111773750Y-103997000D01*
X111705000Y-104065750D01*
X111636250Y-103997000D01*
X110687000Y-103997000D01*
X110687000Y-104017000D01*
X110433000Y-104017000D01*
X110433000Y-103997000D01*
X110413000Y-103997000D01*
X110413000Y-103743000D01*
X110433000Y-103743000D01*
X110433000Y-102578750D01*
X110687000Y-102578750D01*
X110687000Y-103743000D01*
X111636250Y-103743000D01*
X111705000Y-103674250D01*
X111773750Y-103743000D01*
X112723000Y-103743000D01*
X112723000Y-102578750D01*
X112977000Y-102578750D01*
X112977000Y-103743000D01*
X113926250Y-103743000D01*
X114085000Y-103584250D01*
X114085000Y-102928691D01*
X114010442Y-102748691D01*
X117735000Y-102748691D01*
X117735000Y-102989250D01*
X117893750Y-103148000D01*
X118618000Y-103148000D01*
X118618000Y-102398750D01*
X118872000Y-102398750D01*
X118872000Y-103148000D01*
X119596250Y-103148000D01*
X119755000Y-102989250D01*
X119755000Y-102748691D01*
X119658327Y-102515302D01*
X119479699Y-102336673D01*
X119246310Y-102240000D01*
X119030750Y-102240000D01*
X118872000Y-102398750D01*
X118618000Y-102398750D01*
X118459250Y-102240000D01*
X118243690Y-102240000D01*
X118010301Y-102336673D01*
X117831673Y-102515302D01*
X117735000Y-102748691D01*
X114010442Y-102748691D01*
X113988327Y-102695302D01*
X113809699Y-102516673D01*
X113576310Y-102420000D01*
X113135750Y-102420000D01*
X112977000Y-102578750D01*
X112723000Y-102578750D01*
X112564250Y-102420000D01*
X112123690Y-102420000D01*
X111890301Y-102516673D01*
X111711673Y-102695302D01*
X111705000Y-102711412D01*
X111698327Y-102695302D01*
X111519699Y-102516673D01*
X111286310Y-102420000D01*
X110845750Y-102420000D01*
X110687000Y-102578750D01*
X110433000Y-102578750D01*
X110274250Y-102420000D01*
X109833690Y-102420000D01*
X109600301Y-102516673D01*
X109421673Y-102695302D01*
X109410840Y-102721455D01*
X109327809Y-102597191D01*
X109117765Y-102456843D01*
X108870000Y-102407560D01*
X107670000Y-102407560D01*
X107422235Y-102456843D01*
X107212191Y-102597191D01*
X107071843Y-102807235D01*
X107022560Y-103055000D01*
X107022560Y-104037560D01*
X105075000Y-104037560D01*
X104827235Y-104086843D01*
X104617191Y-104227191D01*
X104553467Y-104322560D01*
X103445000Y-104322560D01*
X103382459Y-104335000D01*
X102136673Y-104335000D01*
X102128344Y-104293127D01*
X101907924Y-103963245D01*
X101975000Y-103801309D01*
X101975000Y-103560750D01*
X101816250Y-103402000D01*
X101092000Y-103402000D01*
X101092000Y-103422000D01*
X100838000Y-103422000D01*
X100838000Y-103402000D01*
X100113750Y-103402000D01*
X99955000Y-103560750D01*
X99955000Y-103801309D01*
X100022076Y-103963245D01*
X99801656Y-104293128D01*
X99793327Y-104335000D01*
X98546630Y-104335000D01*
X98424999Y-104310806D01*
X98303368Y-104335000D01*
X98303364Y-104335000D01*
X97943127Y-104406656D01*
X97785183Y-104512191D01*
X97637732Y-104610714D01*
X97637731Y-104610715D01*
X97534615Y-104679615D01*
X97465715Y-104782731D01*
X96367731Y-105880716D01*
X96264616Y-105949615D01*
X96195716Y-106052731D01*
X96195714Y-106052733D01*
X95991656Y-106358128D01*
X95980305Y-106415195D01*
X95920000Y-106718364D01*
X95920000Y-106718368D01*
X95895806Y-106840000D01*
X95920000Y-106961632D01*
X95920000Y-108073446D01*
X95250000Y-108743446D01*
X94580000Y-108073447D01*
X94580000Y-106721630D01*
X94604194Y-106599999D01*
X94580000Y-106478368D01*
X94580000Y-106478364D01*
X94508344Y-106118127D01*
X94364773Y-105903258D01*
X94304286Y-105812732D01*
X94304285Y-105812731D01*
X94235385Y-105709615D01*
X94132269Y-105640715D01*
X93960000Y-105468446D01*
X93960000Y-104955050D01*
X93673026Y-104262233D01*
X93142767Y-103731974D01*
X92449950Y-103445000D01*
X91700050Y-103445000D01*
X91007233Y-103731974D01*
X90476974Y-104262233D01*
X90190000Y-104955050D01*
X90190000Y-105704950D01*
X90476974Y-106397767D01*
X91007233Y-106928026D01*
X91700050Y-107215000D01*
X92110001Y-107215000D01*
X92110000Y-107678120D01*
X91791027Y-107464990D01*
X91526074Y-107355243D01*
X91143391Y-107279123D01*
X90856608Y-107279123D01*
X90830349Y-107290000D01*
X88169650Y-107290000D01*
X88143391Y-107279123D01*
X87904101Y-107231525D01*
X87822798Y-107177201D01*
X87768475Y-107095901D01*
X87720877Y-106856609D01*
X87710000Y-106830350D01*
X87710000Y-102748691D01*
X99955000Y-102748691D01*
X99955000Y-102989250D01*
X100113750Y-103148000D01*
X100838000Y-103148000D01*
X100838000Y-102398750D01*
X101092000Y-102398750D01*
X101092000Y-103148000D01*
X101816250Y-103148000D01*
X101975000Y-102989250D01*
X101975000Y-102748691D01*
X101878327Y-102515302D01*
X101699699Y-102336673D01*
X101466310Y-102240000D01*
X101250750Y-102240000D01*
X101092000Y-102398750D01*
X100838000Y-102398750D01*
X100679250Y-102240000D01*
X100463690Y-102240000D01*
X100230301Y-102336673D01*
X100051673Y-102515302D01*
X99955000Y-102748691D01*
X87710000Y-102748691D01*
X87710000Y-100615750D01*
X90190000Y-100615750D01*
X90190000Y-101706309D01*
X90286673Y-101939698D01*
X90465301Y-102118327D01*
X90698690Y-102215000D01*
X91789250Y-102215000D01*
X91948000Y-102056250D01*
X91948000Y-100457000D01*
X92202000Y-100457000D01*
X92202000Y-102056250D01*
X92360750Y-102215000D01*
X93451310Y-102215000D01*
X93684699Y-102118327D01*
X93863327Y-101939698D01*
X93960000Y-101706309D01*
X93960000Y-100615750D01*
X93801250Y-100457000D01*
X92202000Y-100457000D01*
X91948000Y-100457000D01*
X90348750Y-100457000D01*
X90190000Y-100615750D01*
X87710000Y-100615750D01*
X87710000Y-98953691D01*
X90190000Y-98953691D01*
X90190000Y-100044250D01*
X90348750Y-100203000D01*
X91948000Y-100203000D01*
X91948000Y-98603750D01*
X92202000Y-98603750D01*
X92202000Y-100203000D01*
X93801250Y-100203000D01*
X93960000Y-100044250D01*
X93960000Y-98953691D01*
X93863327Y-98720302D01*
X93684699Y-98541673D01*
X93451310Y-98445000D01*
X92360750Y-98445000D01*
X92202000Y-98603750D01*
X91948000Y-98603750D01*
X91789250Y-98445000D01*
X90698690Y-98445000D01*
X90465301Y-98541673D01*
X90286673Y-98720302D01*
X90190000Y-98953691D01*
X87710000Y-98953691D01*
X87710000Y-91605159D01*
X88515000Y-91605159D01*
X88515000Y-92394841D01*
X88817199Y-93124412D01*
X89375588Y-93682801D01*
X90105159Y-93985000D01*
X90894841Y-93985000D01*
X91624412Y-93682801D01*
X92182801Y-93124412D01*
X92485000Y-92394841D01*
X92485000Y-91605159D01*
X92182801Y-90875588D01*
X91624412Y-90317199D01*
X90894841Y-90015000D01*
X90105159Y-90015000D01*
X89375588Y-90317199D01*
X88817199Y-90875588D01*
X88515000Y-91605159D01*
X87710000Y-91605159D01*
X87710000Y-91041247D01*
X87776100Y-90474292D01*
X87956685Y-89976788D01*
X88246881Y-89534165D01*
X88631116Y-89170177D01*
X89088784Y-88904342D01*
X89604629Y-88748108D01*
X90031618Y-88710000D01*
X148958753Y-88710000D01*
X149525708Y-88776100D01*
X149525708Y-88776100D01*
G37*
X149525708Y-88776100D02*
X150023212Y-88956685D01*
X150465835Y-89246881D01*
X150829823Y-89631116D01*
X151095658Y-90088784D01*
X151251892Y-90604629D01*
X151290000Y-91031618D01*
X151290001Y-115314712D01*
X151286063Y-115325301D01*
X151269945Y-115414884D01*
X151199405Y-116019918D01*
X151020809Y-116511944D01*
X150733810Y-116949689D01*
X150353807Y-117309670D01*
X149901180Y-117572576D01*
X149390584Y-117727220D01*
X148934663Y-117767910D01*
X148828463Y-117790000D01*
X101807549Y-117790000D01*
X101827440Y-117690000D01*
X101827440Y-115990000D01*
X101804995Y-115877162D01*
X102029126Y-115970000D01*
X102440874Y-115970000D01*
X102821280Y-115812431D01*
X102927601Y-115706110D01*
X102982191Y-115787809D01*
X103192235Y-115928157D01*
X103440000Y-115977440D01*
X106440000Y-115977440D01*
X106687765Y-115928157D01*
X106897809Y-115787809D01*
X107002560Y-115631039D01*
X107002560Y-117130000D01*
X107051843Y-117377765D01*
X107192191Y-117587809D01*
X107402235Y-117728157D01*
X107650000Y-117777440D01*
X108850000Y-117777440D01*
X109097765Y-117728157D01*
X109307809Y-117587809D01*
X109390840Y-117463545D01*
X109401673Y-117489698D01*
X109580301Y-117668327D01*
X109813690Y-117765000D01*
X110254250Y-117765000D01*
X110413000Y-117606250D01*
X110413000Y-115757000D01*
X110393000Y-115757000D01*
X110393000Y-115503000D01*
X110413000Y-115503000D01*
X110413000Y-115483000D01*
X110667000Y-115483000D01*
X110667000Y-115503000D01*
X110687000Y-115503000D01*
X110687000Y-115757000D01*
X110667000Y-115757000D01*
X110667000Y-117606250D01*
X110825750Y-117765000D01*
X111266310Y-117765000D01*
X111499699Y-117668327D01*
X111678327Y-117489698D01*
X111689160Y-117463545D01*
X111772191Y-117587809D01*
X111982235Y-117728157D01*
X112230000Y-117777440D01*
X113430000Y-117777440D01*
X113677765Y-117728157D01*
X113887809Y-117587809D01*
X114028157Y-117377765D01*
X114077440Y-117130000D01*
X114077440Y-115631039D01*
X114182191Y-115787809D01*
X114392235Y-115928157D01*
X114640000Y-115977440D01*
X117640000Y-115977440D01*
X117887765Y-115928157D01*
X118097809Y-115787809D01*
X118238157Y-115577765D01*
X118255614Y-115490000D01*
X119003364Y-115490000D01*
X119016843Y-115557765D01*
X119157191Y-115767809D01*
X119367235Y-115908157D01*
X119615000Y-115957440D01*
X120415000Y-115957440D01*
X120662765Y-115908157D01*
X120754102Y-115847127D01*
X120755302Y-115848327D01*
X120988691Y-115945000D01*
X121229250Y-115945000D01*
X121388000Y-115786250D01*
X121388000Y-115062000D01*
X121642000Y-115062000D01*
X121642000Y-115786250D01*
X121800750Y-115945000D01*
X122041309Y-115945000D01*
X122274698Y-115848327D01*
X122453327Y-115669699D01*
X122550000Y-115436310D01*
X122550000Y-115220750D01*
X122391250Y-115062000D01*
X121642000Y-115062000D01*
X121388000Y-115062000D01*
X121368000Y-115062000D01*
X121368000Y-114808000D01*
X121388000Y-114808000D01*
X121388000Y-114083750D01*
X121642000Y-114083750D01*
X121642000Y-114808000D01*
X122391250Y-114808000D01*
X122550000Y-114649250D01*
X122550000Y-114433690D01*
X122453327Y-114200301D01*
X122274698Y-114021673D01*
X122041309Y-113925000D01*
X121800750Y-113925000D01*
X121642000Y-114083750D01*
X121388000Y-114083750D01*
X121229250Y-113925000D01*
X120988691Y-113925000D01*
X120755302Y-114021673D01*
X120754102Y-114022873D01*
X120662765Y-113961843D01*
X120415000Y-113912560D01*
X119615000Y-113912560D01*
X119367235Y-113961843D01*
X119355027Y-113970000D01*
X118255614Y-113970000D01*
X118238157Y-113882235D01*
X118097809Y-113672191D01*
X117967319Y-113585000D01*
X118097809Y-113497809D01*
X118238157Y-113287765D01*
X118287440Y-113040000D01*
X118287440Y-111840000D01*
X118238157Y-111592235D01*
X118099686Y-111385000D01*
X125948368Y-111385000D01*
X126070000Y-111409194D01*
X126191632Y-111385000D01*
X126191636Y-111385000D01*
X126551873Y-111313344D01*
X126960385Y-111040385D01*
X127029287Y-110937266D01*
X127462268Y-110504285D01*
X127562705Y-110437175D01*
X130962430Y-110437175D01*
X131085565Y-110724788D01*
X131767734Y-110984707D01*
X132497443Y-110963786D01*
X133074435Y-110724788D01*
X133197570Y-110437175D01*
X132080000Y-109319605D01*
X130962430Y-110437175D01*
X127562705Y-110437175D01*
X127565387Y-110435383D01*
X127838346Y-110026871D01*
X127910002Y-109666634D01*
X127910002Y-109666631D01*
X127934196Y-109544999D01*
X127910002Y-109423367D01*
X127910002Y-108827734D01*
X130235293Y-108827734D01*
X130256214Y-109557443D01*
X130495212Y-110134435D01*
X130782825Y-110257570D01*
X131900395Y-109140000D01*
X132259605Y-109140000D01*
X133377175Y-110257570D01*
X133664788Y-110134435D01*
X133904328Y-109505750D01*
X145435000Y-109505750D01*
X145435000Y-110596309D01*
X145531673Y-110829698D01*
X145710301Y-111008327D01*
X145943690Y-111105000D01*
X147034250Y-111105000D01*
X147193000Y-110946250D01*
X147193000Y-109347000D01*
X145593750Y-109347000D01*
X145435000Y-109505750D01*
X133904328Y-109505750D01*
X133924707Y-109452266D01*
X133903786Y-108722557D01*
X133664788Y-108145565D01*
X133377175Y-108022430D01*
X132259605Y-109140000D01*
X131900395Y-109140000D01*
X130782825Y-108022430D01*
X130495212Y-108145565D01*
X130235293Y-108827734D01*
X127910002Y-108827734D01*
X127910002Y-107842825D01*
X130962430Y-107842825D01*
X132080000Y-108960395D01*
X133196704Y-107843691D01*
X145435000Y-107843691D01*
X145435000Y-108934250D01*
X145593750Y-109093000D01*
X147193000Y-109093000D01*
X147193000Y-107493750D01*
X147034250Y-107335000D01*
X145943690Y-107335000D01*
X145710301Y-107431673D01*
X145531673Y-107610302D01*
X145435000Y-107843691D01*
X133196704Y-107843691D01*
X133197570Y-107842825D01*
X133074435Y-107555212D01*
X132392266Y-107295293D01*
X131662557Y-107316214D01*
X131085565Y-107555212D01*
X130962430Y-107842825D01*
X127910002Y-107842825D01*
X127910002Y-105611551D01*
X128146554Y-105375000D01*
X130239522Y-105375000D01*
X130281843Y-105587765D01*
X130422191Y-105797809D01*
X130632235Y-105938157D01*
X130880000Y-105987440D01*
X133280000Y-105987440D01*
X133527765Y-105938157D01*
X133737809Y-105797809D01*
X133878157Y-105587765D01*
X133920478Y-105375000D01*
X134358368Y-105375000D01*
X134480000Y-105399194D01*
X134601632Y-105375000D01*
X145809207Y-105375000D01*
X146252233Y-105818026D01*
X146945050Y-106105000D01*
X147694950Y-106105000D01*
X148387767Y-105818026D01*
X148918026Y-105287767D01*
X149100001Y-104848441D01*
X149100001Y-107601976D01*
X148929699Y-107431673D01*
X148696310Y-107335000D01*
X147605750Y-107335000D01*
X147447000Y-107493750D01*
X147447000Y-109093000D01*
X147467000Y-109093000D01*
X147467000Y-109347000D01*
X147447000Y-109347000D01*
X147447000Y-110946250D01*
X147605750Y-111105000D01*
X148696310Y-111105000D01*
X148929699Y-111008327D01*
X149100001Y-110838025D01*
X149100001Y-111445198D01*
X148910199Y-111635000D01*
X146759846Y-111635000D01*
X146684999Y-111620112D01*
X146610152Y-111635000D01*
X146610148Y-111635000D01*
X146388463Y-111679096D01*
X146325902Y-111720898D01*
X146200526Y-111804671D01*
X146200524Y-111804673D01*
X146137071Y-111847071D01*
X146094673Y-111910524D01*
X144105199Y-113900000D01*
X143939126Y-113900000D01*
X143558720Y-114057569D01*
X143267569Y-114348720D01*
X143110000Y-114729126D01*
X143110000Y-115140874D01*
X143267569Y-115521280D01*
X143558720Y-115812431D01*
X143939126Y-115970000D01*
X144350874Y-115970000D01*
X144731280Y-115812431D01*
X145022431Y-115521280D01*
X145180000Y-115140874D01*
X145180000Y-114974801D01*
X146999803Y-113155000D01*
X147767170Y-113155000D01*
X147375588Y-113317199D01*
X146817199Y-113875588D01*
X146515000Y-114605159D01*
X146515000Y-115394841D01*
X146817199Y-116124412D01*
X147375588Y-116682801D01*
X148105159Y-116985000D01*
X148894841Y-116985000D01*
X149624412Y-116682801D01*
X150182801Y-116124412D01*
X150485000Y-115394841D01*
X150485000Y-114605159D01*
X150182801Y-113875588D01*
X149624412Y-113317199D01*
X149254572Y-113164006D01*
X149299847Y-113155000D01*
X149299852Y-113155000D01*
X149521537Y-113110904D01*
X149772929Y-112942929D01*
X149815331Y-112879470D01*
X150344473Y-112350329D01*
X150407929Y-112307929D01*
X150575904Y-112056537D01*
X150620000Y-111834852D01*
X150620000Y-111834848D01*
X150634888Y-111760000D01*
X150620000Y-111685152D01*
X150620000Y-96594846D01*
X150634888Y-96519999D01*
X150620000Y-96445152D01*
X150620000Y-96445148D01*
X150575904Y-96223463D01*
X150407929Y-95972071D01*
X150344473Y-95929671D01*
X149180331Y-94765530D01*
X149137929Y-94702071D01*
X148886537Y-94534096D01*
X148664852Y-94490000D01*
X148664847Y-94490000D01*
X148590000Y-94475112D01*
X148515153Y-94490000D01*
X147634802Y-94490000D01*
X146810000Y-93665199D01*
X146810000Y-93107032D01*
X146817199Y-93124412D01*
X147375588Y-93682801D01*
X148105159Y-93985000D01*
X148894841Y-93985000D01*
X149624412Y-93682801D01*
X150182801Y-93124412D01*
X150485000Y-92394841D01*
X150485000Y-91605159D01*
X150182801Y-90875588D01*
X149624412Y-90317199D01*
X148894841Y-90015000D01*
X148105159Y-90015000D01*
X147375588Y-90317199D01*
X146817199Y-90875588D01*
X146515000Y-91605159D01*
X146515000Y-92100198D01*
X146005331Y-91590530D01*
X145962929Y-91527071D01*
X145711537Y-91359096D01*
X145489852Y-91315000D01*
X145489847Y-91315000D01*
X145415000Y-91300112D01*
X145340153Y-91315000D01*
X145025109Y-91315000D01*
X145028839Y-91309418D01*
X145144092Y-90730000D01*
X145028839Y-90150582D01*
X144700625Y-89659375D01*
X144209418Y-89331161D01*
X143776256Y-89245000D01*
X143483744Y-89245000D01*
X143050582Y-89331161D01*
X142559375Y-89659375D01*
X142360000Y-89957761D01*
X142160625Y-89659375D01*
X141669418Y-89331161D01*
X141236256Y-89245000D01*
X140943744Y-89245000D01*
X140510582Y-89331161D01*
X140019375Y-89659375D01*
X139820000Y-89957761D01*
X139620625Y-89659375D01*
X139129418Y-89331161D01*
X138696256Y-89245000D01*
X138403744Y-89245000D01*
X137970582Y-89331161D01*
X137479375Y-89659375D01*
X137266157Y-89978478D01*
X137205183Y-89848642D01*
X136776924Y-89458355D01*
X136366890Y-89288524D01*
X136137000Y-89409845D01*
X136137000Y-90603000D01*
X136157000Y-90603000D01*
X136157000Y-90857000D01*
X136137000Y-90857000D01*
X136137000Y-90877000D01*
X135883000Y-90877000D01*
X135883000Y-90857000D01*
X135863000Y-90857000D01*
X135863000Y-90603000D01*
X135883000Y-90603000D01*
X135883000Y-89409845D01*
X135653110Y-89288524D01*
X135243076Y-89458355D01*
X134814817Y-89848642D01*
X134753843Y-89978478D01*
X134540625Y-89659375D01*
X134049418Y-89331161D01*
X133616256Y-89245000D01*
X133323744Y-89245000D01*
X132890582Y-89331161D01*
X132399375Y-89659375D01*
X132186157Y-89978478D01*
X132125183Y-89848642D01*
X131696924Y-89458355D01*
X131286890Y-89288524D01*
X131057000Y-89409845D01*
X131057000Y-90603000D01*
X131077000Y-90603000D01*
X131077000Y-90857000D01*
X131057000Y-90857000D01*
X131057000Y-90877000D01*
X130803000Y-90877000D01*
X130803000Y-90857000D01*
X130783000Y-90857000D01*
X130783000Y-90603000D01*
X130803000Y-90603000D01*
X130803000Y-89409845D01*
X130573110Y-89288524D01*
X130163076Y-89458355D01*
X129734817Y-89848642D01*
X129673843Y-89978478D01*
X129460625Y-89659375D01*
X128969418Y-89331161D01*
X128536256Y-89245000D01*
X128243744Y-89245000D01*
X127810582Y-89331161D01*
X127319375Y-89659375D01*
X127120000Y-89957761D01*
X126920625Y-89659375D01*
X126429418Y-89331161D01*
X125996256Y-89245000D01*
X125703744Y-89245000D01*
X125270582Y-89331161D01*
X124779375Y-89659375D01*
X124580000Y-89957761D01*
X124380625Y-89659375D01*
X123889418Y-89331161D01*
X123456256Y-89245000D01*
X123163744Y-89245000D01*
X122730582Y-89331161D01*
X122239375Y-89659375D01*
X122040000Y-89957761D01*
X121840625Y-89659375D01*
X121349418Y-89331161D01*
X120916256Y-89245000D01*
X120623744Y-89245000D01*
X120190582Y-89331161D01*
X119699375Y-89659375D01*
X119486157Y-89978478D01*
X119425183Y-89848642D01*
X118996924Y-89458355D01*
X118586890Y-89288524D01*
X118357000Y-89409845D01*
X118357000Y-90603000D01*
X118377000Y-90603000D01*
X118377000Y-90857000D01*
X118357000Y-90857000D01*
X118357000Y-90877000D01*
X118103000Y-90877000D01*
X118103000Y-90857000D01*
X118083000Y-90857000D01*
X118083000Y-90603000D01*
X118103000Y-90603000D01*
X118103000Y-89409845D01*
X117873110Y-89288524D01*
X117463076Y-89458355D01*
X117034817Y-89848642D01*
X116973843Y-89978478D01*
X116760625Y-89659375D01*
X116269418Y-89331161D01*
X115836256Y-89245000D01*
X115543744Y-89245000D01*
X115110582Y-89331161D01*
X114619375Y-89659375D01*
X114420000Y-89957761D01*
X114220625Y-89659375D01*
X113729418Y-89331161D01*
X113296256Y-89245000D01*
X113003744Y-89245000D01*
X112570582Y-89331161D01*
X112079375Y-89659375D01*
X111866157Y-89978478D01*
X111805183Y-89848642D01*
X111376924Y-89458355D01*
X110966890Y-89288524D01*
X110737000Y-89409845D01*
X110737000Y-90603000D01*
X110757000Y-90603000D01*
X110757000Y-90857000D01*
X110737000Y-90857000D01*
X110737000Y-90877000D01*
X110483000Y-90877000D01*
X110483000Y-90857000D01*
X110463000Y-90857000D01*
X110463000Y-90603000D01*
X110483000Y-90603000D01*
X110483000Y-89409845D01*
X110253110Y-89288524D01*
X109843076Y-89458355D01*
X109414817Y-89848642D01*
X109353843Y-89978478D01*
X109140625Y-89659375D01*
X108649418Y-89331161D01*
X108216256Y-89245000D01*
X107923744Y-89245000D01*
X107490582Y-89331161D01*
X106999375Y-89659375D01*
X106800000Y-89957761D01*
X106600625Y-89659375D01*
X106109418Y-89331161D01*
X105676256Y-89245000D01*
X105383744Y-89245000D01*
X104950582Y-89331161D01*
X104459375Y-89659375D01*
X104260000Y-89957761D01*
X104060625Y-89659375D01*
X103569418Y-89331161D01*
X103136256Y-89245000D01*
X102843744Y-89245000D01*
X102410582Y-89331161D01*
X101919375Y-89659375D01*
X101706157Y-89978478D01*
X101645183Y-89848642D01*
X101216924Y-89458355D01*
X100806890Y-89288524D01*
X100577000Y-89409845D01*
X100577000Y-90603000D01*
X100597000Y-90603000D01*
X100597000Y-90857000D01*
X100577000Y-90857000D01*
X100577000Y-90877000D01*
X100323000Y-90877000D01*
X100323000Y-90857000D01*
X100303000Y-90857000D01*
X100303000Y-90603000D01*
X100323000Y-90603000D01*
X100323000Y-89409845D01*
X100093110Y-89288524D01*
X99683076Y-89458355D01*
X99254817Y-89848642D01*
X99193843Y-89978478D01*
X98980625Y-89659375D01*
X98489418Y-89331161D01*
X98056256Y-89245000D01*
X97763744Y-89245000D01*
X97330582Y-89331161D01*
X96839375Y-89659375D01*
X96640000Y-89957761D01*
X96440625Y-89659375D01*
X95949418Y-89331161D01*
X95516256Y-89245000D01*
X95223744Y-89245000D01*
X94790582Y-89331161D01*
X94299375Y-89659375D01*
X93971161Y-90150582D01*
X93855908Y-90730000D01*
X93971161Y-91309418D01*
X94299375Y-91800625D01*
X94317619Y-91812816D01*
X94272235Y-91821843D01*
X94062191Y-91962191D01*
X93921843Y-92172235D01*
X93872560Y-92420000D01*
X93872560Y-94120000D01*
X93921843Y-94367765D01*
X94062191Y-94577809D01*
X94272235Y-94718157D01*
X94520000Y-94767440D01*
X96220000Y-94767440D01*
X96467765Y-94718157D01*
X96677809Y-94577809D01*
X96818157Y-94367765D01*
X96827184Y-94322381D01*
X96839375Y-94340625D01*
X97330582Y-94668839D01*
X97763744Y-94755000D01*
X98056256Y-94755000D01*
X98489418Y-94668839D01*
X98980625Y-94340625D01*
X99180000Y-94042239D01*
X99379375Y-94340625D01*
X99870582Y-94668839D01*
X100303744Y-94755000D01*
X100596256Y-94755000D01*
X101029418Y-94668839D01*
X101520625Y-94340625D01*
X101720000Y-94042239D01*
X101919375Y-94340625D01*
X102410582Y-94668839D01*
X102843744Y-94755000D01*
X103136256Y-94755000D01*
X103405002Y-94701543D01*
X103405002Y-95160149D01*
X103390113Y-95235001D01*
X103405002Y-95309853D01*
X103449098Y-95531538D01*
X103617073Y-95782930D01*
X103680529Y-95825330D01*
X104137362Y-96282163D01*
X103854542Y-96294421D01*
X103420884Y-96474047D01*
X103337546Y-96727938D01*
X103222914Y-96613306D01*
X103183475Y-96652745D01*
X103052809Y-96457191D01*
X102842765Y-96316843D01*
X102595000Y-96267560D01*
X100845000Y-96267560D01*
X100597235Y-96316843D01*
X100387191Y-96457191D01*
X100246843Y-96667235D01*
X100197560Y-96915000D01*
X100197560Y-98665000D01*
X100246843Y-98912765D01*
X100387191Y-99122809D01*
X100597235Y-99263157D01*
X100845000Y-99312440D01*
X102595000Y-99312440D01*
X102842765Y-99263157D01*
X103052809Y-99122809D01*
X103183475Y-98927255D01*
X103222914Y-98966694D01*
X103337546Y-98852062D01*
X103420884Y-99105953D01*
X103985306Y-99311590D01*
X104585458Y-99285579D01*
X105019116Y-99105953D01*
X105102455Y-98852060D01*
X104220000Y-97969605D01*
X104205858Y-97983748D01*
X104026253Y-97804143D01*
X104040395Y-97790000D01*
X104026253Y-97775858D01*
X104205858Y-97596253D01*
X104220000Y-97610395D01*
X104234143Y-97596253D01*
X104413748Y-97775858D01*
X104399605Y-97790000D01*
X105282060Y-98672455D01*
X105430879Y-98623606D01*
X105439884Y-98645346D01*
X105864654Y-99070116D01*
X106419642Y-99300000D01*
X107020358Y-99300000D01*
X107575346Y-99070116D01*
X107970000Y-98675462D01*
X108364654Y-99070116D01*
X108919642Y-99300000D01*
X109520358Y-99300000D01*
X110075346Y-99070116D01*
X110470000Y-98675462D01*
X110864654Y-99070116D01*
X111419642Y-99300000D01*
X112020358Y-99300000D01*
X112575346Y-99070116D01*
X112754426Y-98891036D01*
X117497193Y-98891036D01*
X117527518Y-99381413D01*
X117656836Y-99693617D01*
X117882265Y-99743130D01*
X118565395Y-99060000D01*
X117882265Y-98376870D01*
X117656836Y-98426383D01*
X117497193Y-98891036D01*
X112754426Y-98891036D01*
X113000116Y-98645346D01*
X113230000Y-98090358D01*
X113230000Y-97489642D01*
X113000116Y-96934654D01*
X112575346Y-96509884D01*
X112020358Y-96280000D01*
X111419642Y-96280000D01*
X111324296Y-96319494D01*
X110005001Y-95000200D01*
X110005001Y-94651746D01*
X110030582Y-94668839D01*
X110463744Y-94755000D01*
X110756256Y-94755000D01*
X111189418Y-94668839D01*
X111680625Y-94340625D01*
X111880000Y-94042239D01*
X112079375Y-94340625D01*
X112570582Y-94668839D01*
X113003744Y-94755000D01*
X113296256Y-94755000D01*
X113729418Y-94668839D01*
X114220625Y-94340625D01*
X114420000Y-94042239D01*
X114619375Y-94340625D01*
X115110582Y-94668839D01*
X115543744Y-94755000D01*
X115836256Y-94755000D01*
X116269418Y-94668839D01*
X116760625Y-94340625D01*
X116960000Y-94042239D01*
X117159375Y-94340625D01*
X117650582Y-94668839D01*
X118083744Y-94755000D01*
X118376256Y-94755000D01*
X118809418Y-94668839D01*
X119300625Y-94340625D01*
X119500000Y-94042239D01*
X119699375Y-94340625D01*
X120190582Y-94668839D01*
X120623744Y-94755000D01*
X120916256Y-94755000D01*
X121349418Y-94668839D01*
X121840625Y-94340625D01*
X122040000Y-94042239D01*
X122239375Y-94340625D01*
X122730582Y-94668839D01*
X123163744Y-94755000D01*
X123456256Y-94755000D01*
X123889418Y-94668839D01*
X124380625Y-94340625D01*
X124593843Y-94021522D01*
X124654817Y-94151358D01*
X125083076Y-94541645D01*
X125493110Y-94711476D01*
X125723000Y-94590155D01*
X125723000Y-93397000D01*
X125703000Y-93397000D01*
X125703000Y-93143000D01*
X125723000Y-93143000D01*
X125723000Y-93123000D01*
X125977000Y-93123000D01*
X125977000Y-93143000D01*
X125997000Y-93143000D01*
X125997000Y-93397000D01*
X125977000Y-93397000D01*
X125977000Y-94590155D01*
X126206890Y-94711476D01*
X126616924Y-94541645D01*
X127045183Y-94151358D01*
X127106157Y-94021522D01*
X127319375Y-94340625D01*
X127810582Y-94668839D01*
X128243744Y-94755000D01*
X128536256Y-94755000D01*
X128969418Y-94668839D01*
X129460625Y-94340625D01*
X129660000Y-94042239D01*
X129859375Y-94340625D01*
X130350582Y-94668839D01*
X130783744Y-94755000D01*
X131076256Y-94755000D01*
X131509418Y-94668839D01*
X132000625Y-94340625D01*
X132200000Y-94042239D01*
X132399375Y-94340625D01*
X132890582Y-94668839D01*
X133323744Y-94755000D01*
X133616256Y-94755000D01*
X134049418Y-94668839D01*
X134540625Y-94340625D01*
X134740000Y-94042239D01*
X134939375Y-94340625D01*
X135430582Y-94668839D01*
X135863744Y-94755000D01*
X136156256Y-94755000D01*
X136589418Y-94668839D01*
X137080625Y-94340625D01*
X137280000Y-94042239D01*
X137479375Y-94340625D01*
X137970582Y-94668839D01*
X138403744Y-94755000D01*
X138696256Y-94755000D01*
X139129418Y-94668839D01*
X139620625Y-94340625D01*
X139820000Y-94042239D01*
X140019375Y-94340625D01*
X140510582Y-94668839D01*
X140943744Y-94755000D01*
X141236256Y-94755000D01*
X141669418Y-94668839D01*
X142160625Y-94340625D01*
X142373843Y-94021522D01*
X142434817Y-94151358D01*
X142863076Y-94541645D01*
X143273110Y-94711476D01*
X143503000Y-94590155D01*
X143503000Y-93397000D01*
X143757000Y-93397000D01*
X143757000Y-94590155D01*
X143986890Y-94711476D01*
X144396924Y-94541645D01*
X144825183Y-94151358D01*
X145071486Y-93626892D01*
X144950819Y-93397000D01*
X143757000Y-93397000D01*
X143503000Y-93397000D01*
X143483000Y-93397000D01*
X143483000Y-93143000D01*
X143503000Y-93143000D01*
X143503000Y-93123000D01*
X143757000Y-93123000D01*
X143757000Y-93143000D01*
X144950819Y-93143000D01*
X145071486Y-92913108D01*
X145034804Y-92835000D01*
X145100199Y-92835000D01*
X145290000Y-93024802D01*
X145290001Y-93905149D01*
X145275112Y-93980000D01*
X145334097Y-94276537D01*
X145456759Y-94460113D01*
X145502072Y-94527929D01*
X145565528Y-94570329D01*
X146729670Y-95734472D01*
X146772071Y-95797929D01*
X147023463Y-95965904D01*
X147245148Y-96010000D01*
X147245152Y-96010000D01*
X147319999Y-96024888D01*
X147394846Y-96010000D01*
X148275199Y-96010000D01*
X149100000Y-96834802D01*
X149100001Y-103591559D01*
X148918026Y-103152233D01*
X148387767Y-102621974D01*
X147694950Y-102335000D01*
X146945050Y-102335000D01*
X146252233Y-102621974D01*
X145969207Y-102905000D01*
X135855000Y-102905000D01*
X135855000Y-101277440D01*
X136570000Y-101277440D01*
X136817765Y-101228157D01*
X137027809Y-101087809D01*
X137168157Y-100877765D01*
X137217440Y-100630000D01*
X137217440Y-100455000D01*
X138563541Y-100455000D01*
X138612191Y-100527809D01*
X138822235Y-100668157D01*
X139070000Y-100717440D01*
X139870000Y-100717440D01*
X140117765Y-100668157D01*
X140220000Y-100599845D01*
X140322235Y-100668157D01*
X140570000Y-100717440D01*
X141370000Y-100717440D01*
X141617765Y-100668157D01*
X141827809Y-100527809D01*
X141876459Y-100455000D01*
X142603541Y-100455000D01*
X142652191Y-100527809D01*
X142862235Y-100668157D01*
X143110000Y-100717440D01*
X143910000Y-100717440D01*
X144157765Y-100668157D01*
X144249102Y-100607127D01*
X144250302Y-100608327D01*
X144483691Y-100705000D01*
X144724250Y-100705000D01*
X144883000Y-100546250D01*
X144883000Y-99822000D01*
X145137000Y-99822000D01*
X145137000Y-100546250D01*
X145295750Y-100705000D01*
X145536309Y-100705000D01*
X145769698Y-100608327D01*
X145948327Y-100429699D01*
X146045000Y-100196310D01*
X146045000Y-99980750D01*
X145886250Y-99822000D01*
X145137000Y-99822000D01*
X144883000Y-99822000D01*
X144863000Y-99822000D01*
X144863000Y-99568000D01*
X144883000Y-99568000D01*
X144883000Y-98843750D01*
X145137000Y-98843750D01*
X145137000Y-99568000D01*
X145886250Y-99568000D01*
X146045000Y-99409250D01*
X146045000Y-99193690D01*
X145948327Y-98960301D01*
X145769698Y-98781673D01*
X145536309Y-98685000D01*
X145295750Y-98685000D01*
X145137000Y-98843750D01*
X144883000Y-98843750D01*
X144724250Y-98685000D01*
X144483691Y-98685000D01*
X144250302Y-98781673D01*
X144249102Y-98782873D01*
X144157765Y-98721843D01*
X143910000Y-98672560D01*
X143110000Y-98672560D01*
X142862235Y-98721843D01*
X142652191Y-98862191D01*
X142603541Y-98935000D01*
X141876459Y-98935000D01*
X141827809Y-98862191D01*
X141617765Y-98721843D01*
X141370000Y-98672560D01*
X140570000Y-98672560D01*
X140322235Y-98721843D01*
X140220000Y-98790155D01*
X140117765Y-98721843D01*
X139870000Y-98672560D01*
X139070000Y-98672560D01*
X138822235Y-98721843D01*
X138612191Y-98862191D01*
X138563541Y-98935000D01*
X137217440Y-98935000D01*
X137217440Y-96730000D01*
X137200533Y-96645000D01*
X138449413Y-96645000D01*
X138422560Y-96780000D01*
X138422560Y-97530000D01*
X138471843Y-97777765D01*
X138612191Y-97987809D01*
X138822235Y-98128157D01*
X139070000Y-98177440D01*
X139870000Y-98177440D01*
X140117765Y-98128157D01*
X140220000Y-98059845D01*
X140322235Y-98128157D01*
X140570000Y-98177440D01*
X141370000Y-98177440D01*
X141617765Y-98128157D01*
X141827809Y-97987809D01*
X141876459Y-97915000D01*
X142603541Y-97915000D01*
X142652191Y-97987809D01*
X142862235Y-98128157D01*
X143110000Y-98177440D01*
X143910000Y-98177440D01*
X144157765Y-98128157D01*
X144249102Y-98067127D01*
X144250302Y-98068327D01*
X144483691Y-98165000D01*
X144724250Y-98165000D01*
X144883000Y-98006250D01*
X144883000Y-97282000D01*
X145137000Y-97282000D01*
X145137000Y-98006250D01*
X145295750Y-98165000D01*
X145536309Y-98165000D01*
X145769698Y-98068327D01*
X145948327Y-97889699D01*
X146045000Y-97656310D01*
X146045000Y-97440750D01*
X145886250Y-97282000D01*
X145137000Y-97282000D01*
X144883000Y-97282000D01*
X144863000Y-97282000D01*
X144863000Y-97028000D01*
X144883000Y-97028000D01*
X144883000Y-96303750D01*
X145137000Y-96303750D01*
X145137000Y-97028000D01*
X145886250Y-97028000D01*
X146045000Y-96869250D01*
X146045000Y-96653690D01*
X145948327Y-96420301D01*
X145769698Y-96241673D01*
X145536309Y-96145000D01*
X145295750Y-96145000D01*
X145137000Y-96303750D01*
X144883000Y-96303750D01*
X144724250Y-96145000D01*
X144483691Y-96145000D01*
X144250302Y-96241673D01*
X144249102Y-96242873D01*
X144157765Y-96181843D01*
X143910000Y-96132560D01*
X143110000Y-96132560D01*
X142862235Y-96181843D01*
X142652191Y-96322191D01*
X142603541Y-96395000D01*
X141876459Y-96395000D01*
X141827809Y-96322191D01*
X141617765Y-96181843D01*
X141370000Y-96132560D01*
X140570000Y-96132560D01*
X140322235Y-96181843D01*
X140220000Y-96250155D01*
X140178553Y-96222461D01*
X140060329Y-96045527D01*
X140017929Y-95982071D01*
X139954473Y-95939671D01*
X139415331Y-95400530D01*
X139372929Y-95337071D01*
X139121537Y-95169096D01*
X138899852Y-95125000D01*
X138899847Y-95125000D01*
X138825000Y-95110112D01*
X138750153Y-95125000D01*
X127074846Y-95125000D01*
X126999999Y-95110112D01*
X126925152Y-95125000D01*
X126925148Y-95125000D01*
X126703463Y-95169096D01*
X126452071Y-95337071D01*
X126409669Y-95400530D01*
X126135530Y-95674669D01*
X126072071Y-95717071D01*
X125904096Y-95968464D01*
X125881401Y-96082560D01*
X124670000Y-96082560D01*
X124422235Y-96131843D01*
X124212191Y-96272191D01*
X124071843Y-96482235D01*
X124022560Y-96730000D01*
X124022560Y-97445000D01*
X121151632Y-97445000D01*
X121030000Y-97420806D01*
X120908368Y-97445000D01*
X120908364Y-97445000D01*
X120548127Y-97516656D01*
X120139615Y-97789615D01*
X120121108Y-97817312D01*
X119897235Y-97861843D01*
X119687191Y-98002191D01*
X119597970Y-98135718D01*
X119543822Y-98081570D01*
X119428129Y-98197263D01*
X119378617Y-97971836D01*
X118913964Y-97812193D01*
X118423587Y-97842518D01*
X118111383Y-97971836D01*
X118061870Y-98197265D01*
X118745000Y-98880395D01*
X118759143Y-98866253D01*
X118938748Y-99045858D01*
X118924605Y-99060000D01*
X118938748Y-99074143D01*
X118759143Y-99253748D01*
X118745000Y-99239605D01*
X118061870Y-99922735D01*
X118111383Y-100148164D01*
X118576036Y-100307807D01*
X119066413Y-100277482D01*
X119378617Y-100148164D01*
X119428129Y-99922737D01*
X119510000Y-100004608D01*
X119510001Y-100738364D01*
X119485806Y-100860000D01*
X119581656Y-101341872D01*
X119785714Y-101647267D01*
X119785716Y-101647269D01*
X119854616Y-101750385D01*
X119957732Y-101819285D01*
X120512711Y-102374264D01*
X120371673Y-102515302D01*
X120275000Y-102748691D01*
X120275000Y-102989250D01*
X120433750Y-103148000D01*
X121158000Y-103148000D01*
X121158000Y-103128000D01*
X121412000Y-103128000D01*
X121412000Y-103148000D01*
X121432000Y-103148000D01*
X121432000Y-103402000D01*
X121412000Y-103402000D01*
X121412000Y-103422000D01*
X121158000Y-103422000D01*
X121158000Y-103402000D01*
X120433750Y-103402000D01*
X120275000Y-103560750D01*
X120275000Y-103801309D01*
X120342076Y-103963245D01*
X120121656Y-104293128D01*
X120113327Y-104335000D01*
X119916673Y-104335000D01*
X119908344Y-104293127D01*
X119687924Y-103963245D01*
X119755000Y-103801309D01*
X119755000Y-103560750D01*
X119596250Y-103402000D01*
X118872000Y-103402000D01*
X118872000Y-103422000D01*
X118618000Y-103422000D01*
X118618000Y-103402000D01*
X117893750Y-103402000D01*
X117735000Y-103560750D01*
X117735000Y-103801309D01*
X117802076Y-103963245D01*
X117581656Y-104293128D01*
X117575802Y-104322560D01*
X116536533Y-104322560D01*
X116472809Y-104227191D01*
X116262765Y-104086843D01*
X116015000Y-104037560D01*
X114245000Y-104037560D01*
X114012964Y-104083714D01*
X113926250Y-103997000D01*
X112977000Y-103997000D01*
X112977000Y-104017000D01*
X112723000Y-104017000D01*
X112723000Y-103997000D01*
X111773750Y-103997000D01*
X111705000Y-104065750D01*
X111636250Y-103997000D01*
X110687000Y-103997000D01*
X110687000Y-104017000D01*
X110433000Y-104017000D01*
X110433000Y-103997000D01*
X110413000Y-103997000D01*
X110413000Y-103743000D01*
X110433000Y-103743000D01*
X110433000Y-102578750D01*
X110687000Y-102578750D01*
X110687000Y-103743000D01*
X111636250Y-103743000D01*
X111705000Y-103674250D01*
X111773750Y-103743000D01*
X112723000Y-103743000D01*
X112723000Y-102578750D01*
X112977000Y-102578750D01*
X112977000Y-103743000D01*
X113926250Y-103743000D01*
X114085000Y-103584250D01*
X114085000Y-102928691D01*
X114010442Y-102748691D01*
X117735000Y-102748691D01*
X117735000Y-102989250D01*
X117893750Y-103148000D01*
X118618000Y-103148000D01*
X118618000Y-102398750D01*
X118872000Y-102398750D01*
X118872000Y-103148000D01*
X119596250Y-103148000D01*
X119755000Y-102989250D01*
X119755000Y-102748691D01*
X119658327Y-102515302D01*
X119479699Y-102336673D01*
X119246310Y-102240000D01*
X119030750Y-102240000D01*
X118872000Y-102398750D01*
X118618000Y-102398750D01*
X118459250Y-102240000D01*
X118243690Y-102240000D01*
X118010301Y-102336673D01*
X117831673Y-102515302D01*
X117735000Y-102748691D01*
X114010442Y-102748691D01*
X113988327Y-102695302D01*
X113809699Y-102516673D01*
X113576310Y-102420000D01*
X113135750Y-102420000D01*
X112977000Y-102578750D01*
X112723000Y-102578750D01*
X112564250Y-102420000D01*
X112123690Y-102420000D01*
X111890301Y-102516673D01*
X111711673Y-102695302D01*
X111705000Y-102711412D01*
X111698327Y-102695302D01*
X111519699Y-102516673D01*
X111286310Y-102420000D01*
X110845750Y-102420000D01*
X110687000Y-102578750D01*
X110433000Y-102578750D01*
X110274250Y-102420000D01*
X109833690Y-102420000D01*
X109600301Y-102516673D01*
X109421673Y-102695302D01*
X109410840Y-102721455D01*
X109327809Y-102597191D01*
X109117765Y-102456843D01*
X108870000Y-102407560D01*
X107670000Y-102407560D01*
X107422235Y-102456843D01*
X107212191Y-102597191D01*
X107071843Y-102807235D01*
X107022560Y-103055000D01*
X107022560Y-104037560D01*
X105075000Y-104037560D01*
X104827235Y-104086843D01*
X104617191Y-104227191D01*
X104553467Y-104322560D01*
X103445000Y-104322560D01*
X103382459Y-104335000D01*
X102136673Y-104335000D01*
X102128344Y-104293127D01*
X101907924Y-103963245D01*
X101975000Y-103801309D01*
X101975000Y-103560750D01*
X101816250Y-103402000D01*
X101092000Y-103402000D01*
X101092000Y-103422000D01*
X100838000Y-103422000D01*
X100838000Y-103402000D01*
X100113750Y-103402000D01*
X99955000Y-103560750D01*
X99955000Y-103801309D01*
X100022076Y-103963245D01*
X99801656Y-104293128D01*
X99793327Y-104335000D01*
X98546630Y-104335000D01*
X98424999Y-104310806D01*
X98303368Y-104335000D01*
X98303364Y-104335000D01*
X97943127Y-104406656D01*
X97785183Y-104512191D01*
X97637732Y-104610714D01*
X97637731Y-104610715D01*
X97534615Y-104679615D01*
X97465715Y-104782731D01*
X96367731Y-105880716D01*
X96264616Y-105949615D01*
X96195716Y-106052731D01*
X96195714Y-106052733D01*
X95991656Y-106358128D01*
X95980305Y-106415195D01*
X95920000Y-106718364D01*
X95920000Y-106718368D01*
X95895806Y-106840000D01*
X95920000Y-106961632D01*
X95920000Y-108073446D01*
X95250000Y-108743446D01*
X94580000Y-108073447D01*
X94580000Y-106721630D01*
X94604194Y-106599999D01*
X94580000Y-106478368D01*
X94580000Y-106478364D01*
X94508344Y-106118127D01*
X94364773Y-105903258D01*
X94304286Y-105812732D01*
X94304285Y-105812731D01*
X94235385Y-105709615D01*
X94132269Y-105640715D01*
X93960000Y-105468446D01*
X93960000Y-104955050D01*
X93673026Y-104262233D01*
X93142767Y-103731974D01*
X92449950Y-103445000D01*
X91700050Y-103445000D01*
X91007233Y-103731974D01*
X90476974Y-104262233D01*
X90190000Y-104955050D01*
X90190000Y-105704950D01*
X90476974Y-106397767D01*
X91007233Y-106928026D01*
X91700050Y-107215000D01*
X92110001Y-107215000D01*
X92110000Y-107678120D01*
X91791027Y-107464990D01*
X91526074Y-107355243D01*
X91143391Y-107279123D01*
X90856608Y-107279123D01*
X90830349Y-107290000D01*
X88169650Y-107290000D01*
X88143391Y-107279123D01*
X87904101Y-107231525D01*
X87822798Y-107177201D01*
X87768475Y-107095901D01*
X87720877Y-106856609D01*
X87710000Y-106830350D01*
X87710000Y-102748691D01*
X99955000Y-102748691D01*
X99955000Y-102989250D01*
X100113750Y-103148000D01*
X100838000Y-103148000D01*
X100838000Y-102398750D01*
X101092000Y-102398750D01*
X101092000Y-103148000D01*
X101816250Y-103148000D01*
X101975000Y-102989250D01*
X101975000Y-102748691D01*
X101878327Y-102515302D01*
X101699699Y-102336673D01*
X101466310Y-102240000D01*
X101250750Y-102240000D01*
X101092000Y-102398750D01*
X100838000Y-102398750D01*
X100679250Y-102240000D01*
X100463690Y-102240000D01*
X100230301Y-102336673D01*
X100051673Y-102515302D01*
X99955000Y-102748691D01*
X87710000Y-102748691D01*
X87710000Y-100615750D01*
X90190000Y-100615750D01*
X90190000Y-101706309D01*
X90286673Y-101939698D01*
X90465301Y-102118327D01*
X90698690Y-102215000D01*
X91789250Y-102215000D01*
X91948000Y-102056250D01*
X91948000Y-100457000D01*
X92202000Y-100457000D01*
X92202000Y-102056250D01*
X92360750Y-102215000D01*
X93451310Y-102215000D01*
X93684699Y-102118327D01*
X93863327Y-101939698D01*
X93960000Y-101706309D01*
X93960000Y-100615750D01*
X93801250Y-100457000D01*
X92202000Y-100457000D01*
X91948000Y-100457000D01*
X90348750Y-100457000D01*
X90190000Y-100615750D01*
X87710000Y-100615750D01*
X87710000Y-98953691D01*
X90190000Y-98953691D01*
X90190000Y-100044250D01*
X90348750Y-100203000D01*
X91948000Y-100203000D01*
X91948000Y-98603750D01*
X92202000Y-98603750D01*
X92202000Y-100203000D01*
X93801250Y-100203000D01*
X93960000Y-100044250D01*
X93960000Y-98953691D01*
X93863327Y-98720302D01*
X93684699Y-98541673D01*
X93451310Y-98445000D01*
X92360750Y-98445000D01*
X92202000Y-98603750D01*
X91948000Y-98603750D01*
X91789250Y-98445000D01*
X90698690Y-98445000D01*
X90465301Y-98541673D01*
X90286673Y-98720302D01*
X90190000Y-98953691D01*
X87710000Y-98953691D01*
X87710000Y-91605159D01*
X88515000Y-91605159D01*
X88515000Y-92394841D01*
X88817199Y-93124412D01*
X89375588Y-93682801D01*
X90105159Y-93985000D01*
X90894841Y-93985000D01*
X91624412Y-93682801D01*
X92182801Y-93124412D01*
X92485000Y-92394841D01*
X92485000Y-91605159D01*
X92182801Y-90875588D01*
X91624412Y-90317199D01*
X90894841Y-90015000D01*
X90105159Y-90015000D01*
X89375588Y-90317199D01*
X88817199Y-90875588D01*
X88515000Y-91605159D01*
X87710000Y-91605159D01*
X87710000Y-91041247D01*
X87776100Y-90474292D01*
X87956685Y-89976788D01*
X88246881Y-89534165D01*
X88631116Y-89170177D01*
X89088784Y-88904342D01*
X89604629Y-88748108D01*
X90031618Y-88710000D01*
X148958753Y-88710000D01*
X149525708Y-88776100D01*
G36*
X111711673Y-105044698D02*
X111817000Y-105150026D01*
X111817000Y-105443000D01*
X111837000Y-105443000D01*
X111837000Y-105697000D01*
X111817000Y-105697000D01*
X111817000Y-105717000D01*
X111563000Y-105717000D01*
X111563000Y-105697000D01*
X111543000Y-105697000D01*
X111543000Y-105443000D01*
X111563000Y-105443000D01*
X111563000Y-105180026D01*
X111698327Y-105044698D01*
X111705000Y-105028588D01*
X111711673Y-105044698D01*
X111711673Y-105044698D01*
G37*
X111711673Y-105044698D02*
X111817000Y-105150026D01*
X111817000Y-105443000D01*
X111837000Y-105443000D01*
X111837000Y-105697000D01*
X111817000Y-105697000D01*
X111817000Y-105717000D01*
X111563000Y-105717000D01*
X111563000Y-105697000D01*
X111543000Y-105697000D01*
X111543000Y-105443000D01*
X111563000Y-105443000D01*
X111563000Y-105180026D01*
X111698327Y-105044698D01*
X111705000Y-105028588D01*
X111711673Y-105044698D01*
G36*
X105657000Y-93143000D02*
X105677000Y-93143000D01*
X105677000Y-93397000D01*
X105657000Y-93397000D01*
X105657000Y-93417000D01*
X105403000Y-93417000D01*
X105403000Y-93397000D01*
X105383000Y-93397000D01*
X105383000Y-93143000D01*
X105403000Y-93143000D01*
X105403000Y-93123000D01*
X105657000Y-93123000D01*
X105657000Y-93143000D01*
X105657000Y-93143000D01*
G37*
X105657000Y-93143000D02*
X105677000Y-93143000D01*
X105677000Y-93397000D01*
X105657000Y-93397000D01*
X105657000Y-93417000D01*
X105403000Y-93417000D01*
X105403000Y-93397000D01*
X105383000Y-93397000D01*
X105383000Y-93143000D01*
X105403000Y-93143000D01*
X105403000Y-93123000D01*
X105657000Y-93123000D01*
X105657000Y-93143000D01*
G04 #@! TD*
M02*
