M48
;DRILL file {KiCad (5.0.0)} date 02/20/19 12:48:36
;FORMAT={-:-/ absolute / metric / decimal}
FMAT,2
METRIC,TZ
T1C0.400
T2C0.600
T3C0.800
T4C1.000
T5C1.200
T6C1.300
%
G90
G05
M71
T1
X102.235Y-114.935
X144.145Y-114.935
T2
X118.745Y-99.06
X120.745Y-99.06
T3
X95.25Y-110.49
X95.25Y-112.99
T4
X101.72Y-97.79
X104.22Y-97.79
X106.72Y-97.79
X109.22Y-97.79
X111.72Y-97.79
X95.25Y-116.84
X97.79Y-116.84
X100.33Y-116.84
X95.37Y-90.73
X95.37Y-93.27
X97.91Y-90.73
X97.91Y-93.27
X100.45Y-90.73
X100.45Y-93.27
X102.99Y-90.73
X102.99Y-93.27
X105.53Y-90.73
X105.53Y-93.27
X108.07Y-90.73
X108.07Y-93.27
X110.61Y-90.73
X110.61Y-93.27
X113.15Y-90.73
X113.15Y-93.27
X115.69Y-90.73
X115.69Y-93.27
X118.23Y-90.73
X118.23Y-93.27
X120.77Y-90.73
X120.77Y-93.27
X123.31Y-90.73
X123.31Y-93.27
X125.85Y-90.73
X125.85Y-93.27
X128.39Y-90.73
X128.39Y-93.27
X130.93Y-90.73
X130.93Y-93.27
X133.47Y-90.73
X133.47Y-93.27
X136.01Y-90.73
X136.01Y-93.27
X138.55Y-90.73
X138.55Y-93.27
X141.09Y-90.73
X141.09Y-93.27
X143.63Y-90.73
X143.63Y-93.27
T5
X132.08Y-104.14
X132.08Y-109.14
T6
X91.Y-100.5
X91.Y-105.5
X147.32Y-104.22
X147.32Y-109.22
T0
M30
