G04 #@! TF.GenerationSoftware,KiCad,Pcbnew,(5.0.0)*
G04 #@! TF.CreationDate,2019-02-20T13:04:28+09:00*
G04 #@! TF.ProjectId,pi-ups,70692D7570732E6B696361645F706362,rev?*
G04 #@! TF.SameCoordinates,Original*
G04 #@! TF.FileFunction,Copper,L2,Bot,Signal*
G04 #@! TF.FilePolarity,Positive*
%FSLAX46Y46*%
G04 Gerber Fmt 4.6, Leading zero omitted, Abs format (unit mm)*
G04 Created by KiCad (PCBNEW (5.0.0)) date 02/20/19 13:04:28*
%MOMM*%
%LPD*%
G01*
G04 APERTURE LIST*
G04 #@! TA.AperFunction,ComponentPad*
%ADD10R,1.600000X1.600000*%
G04 #@! TD*
G04 #@! TA.AperFunction,ComponentPad*
%ADD11C,1.600000*%
G04 #@! TD*
G04 #@! TA.AperFunction,ComponentPad*
%ADD12R,1.200000X1.200000*%
G04 #@! TD*
G04 #@! TA.AperFunction,ComponentPad*
%ADD13C,1.200000*%
G04 #@! TD*
G04 #@! TA.AperFunction,ComponentPad*
%ADD14R,2.400000X2.400000*%
G04 #@! TD*
G04 #@! TA.AperFunction,ComponentPad*
%ADD15C,2.400000*%
G04 #@! TD*
G04 #@! TA.AperFunction,ComponentPad*
%ADD16C,2.500000*%
G04 #@! TD*
G04 #@! TA.AperFunction,ComponentPad*
%ADD17R,2.500000X2.500000*%
G04 #@! TD*
G04 #@! TA.AperFunction,ComponentPad*
%ADD18R,1.700000X1.700000*%
G04 #@! TD*
G04 #@! TA.AperFunction,ComponentPad*
%ADD19O,1.700000X1.700000*%
G04 #@! TD*
G04 #@! TA.AperFunction,ComponentPad*
%ADD20R,1.750000X1.750000*%
G04 #@! TD*
G04 #@! TA.AperFunction,ComponentPad*
%ADD21C,1.750000*%
G04 #@! TD*
G04 #@! TA.AperFunction,ViaPad*
%ADD22C,0.800000*%
G04 #@! TD*
G04 #@! TA.AperFunction,Conductor*
%ADD23C,0.250000*%
G04 #@! TD*
G04 #@! TA.AperFunction,Conductor*
%ADD24C,1.200000*%
G04 #@! TD*
G04 #@! TA.AperFunction,Conductor*
%ADD25C,0.254000*%
G04 #@! TD*
G04 APERTURE END LIST*
D10*
G04 #@! TO.P,C1,1*
G04 #@! TO.N,Net-(C1-Pad1)*
X95250000Y-110490000D03*
D11*
G04 #@! TO.P,C1,2*
G04 #@! TO.N,pi-06*
X95250000Y-112990000D03*
G04 #@! TD*
D12*
G04 #@! TO.P,C4,1*
G04 #@! TO.N,Net-(C3-Pad1)*
X120745000Y-99060000D03*
D13*
G04 #@! TO.P,C4,2*
G04 #@! TO.N,pi-06*
X118745000Y-99060000D03*
G04 #@! TD*
D14*
G04 #@! TO.P,C5,1*
G04 #@! TO.N,pi-02*
X132080000Y-104140000D03*
D15*
G04 #@! TO.P,C5,2*
G04 #@! TO.N,pi-06*
X132080000Y-109140000D03*
G04 #@! TD*
D16*
G04 #@! TO.P,J1,2*
G04 #@! TO.N,Net-(C1-Pad1)*
X92075000Y-105330000D03*
D17*
G04 #@! TO.P,J1,1*
G04 #@! TO.N,pi-06*
X92075000Y-100330000D03*
G04 #@! TD*
D18*
G04 #@! TO.P,J2,1*
G04 #@! TO.N,pi-01*
X95370000Y-93270000D03*
D19*
G04 #@! TO.P,J2,2*
G04 #@! TO.N,pi-02*
X95370000Y-90730000D03*
G04 #@! TO.P,J2,3*
G04 #@! TO.N,N/C*
X97910000Y-93270000D03*
G04 #@! TO.P,J2,4*
G04 #@! TO.N,pi-02*
X97910000Y-90730000D03*
G04 #@! TO.P,J2,5*
G04 #@! TO.N,N/C*
X100450000Y-93270000D03*
G04 #@! TO.P,J2,6*
G04 #@! TO.N,pi-06*
X100450000Y-90730000D03*
G04 #@! TO.P,J2,7*
G04 #@! TO.N,N/C*
X102990000Y-93270000D03*
G04 #@! TO.P,J2,8*
G04 #@! TO.N,pi-08*
X102990000Y-90730000D03*
G04 #@! TO.P,J2,9*
G04 #@! TO.N,pi-06*
X105530000Y-93270000D03*
G04 #@! TO.P,J2,10*
G04 #@! TO.N,pi-10*
X105530000Y-90730000D03*
G04 #@! TO.P,J2,11*
G04 #@! TO.N,N/C*
X108070000Y-93270000D03*
G04 #@! TO.P,J2,12*
G04 #@! TO.N,pi-12*
X108070000Y-90730000D03*
G04 #@! TO.P,J2,13*
G04 #@! TO.N,N/C*
X110610000Y-93270000D03*
G04 #@! TO.P,J2,14*
G04 #@! TO.N,pi-06*
X110610000Y-90730000D03*
G04 #@! TO.P,J2,15*
G04 #@! TO.N,N/C*
X113150000Y-93270000D03*
G04 #@! TO.P,J2,16*
X113150000Y-90730000D03*
G04 #@! TO.P,J2,17*
G04 #@! TO.N,pi-01*
X115690000Y-93270000D03*
G04 #@! TO.P,J2,18*
G04 #@! TO.N,N/C*
X115690000Y-90730000D03*
G04 #@! TO.P,J2,19*
X118230000Y-93270000D03*
G04 #@! TO.P,J2,20*
G04 #@! TO.N,pi-06*
X118230000Y-90730000D03*
G04 #@! TO.P,J2,21*
G04 #@! TO.N,N/C*
X120770000Y-93270000D03*
G04 #@! TO.P,J2,22*
X120770000Y-90730000D03*
G04 #@! TO.P,J2,23*
X123310000Y-93270000D03*
G04 #@! TO.P,J2,24*
X123310000Y-90730000D03*
G04 #@! TO.P,J2,25*
G04 #@! TO.N,pi-06*
X125850000Y-93270000D03*
G04 #@! TO.P,J2,26*
G04 #@! TO.N,N/C*
X125850000Y-90730000D03*
G04 #@! TO.P,J2,27*
X128390000Y-93270000D03*
G04 #@! TO.P,J2,28*
X128390000Y-90730000D03*
G04 #@! TO.P,J2,29*
X130930000Y-93270000D03*
G04 #@! TO.P,J2,30*
G04 #@! TO.N,pi-06*
X130930000Y-90730000D03*
G04 #@! TO.P,J2,31*
G04 #@! TO.N,N/C*
X133470000Y-93270000D03*
G04 #@! TO.P,J2,32*
X133470000Y-90730000D03*
G04 #@! TO.P,J2,33*
X136010000Y-93270000D03*
G04 #@! TO.P,J2,34*
G04 #@! TO.N,pi-06*
X136010000Y-90730000D03*
G04 #@! TO.P,J2,35*
G04 #@! TO.N,N/C*
X138550000Y-93270000D03*
G04 #@! TO.P,J2,36*
X138550000Y-90730000D03*
G04 #@! TO.P,J2,37*
G04 #@! TO.N,pi-37*
X141090000Y-93270000D03*
G04 #@! TO.P,J2,38*
G04 #@! TO.N,N/C*
X141090000Y-90730000D03*
G04 #@! TO.P,J2,39*
G04 #@! TO.N,pi-06*
X143630000Y-93270000D03*
G04 #@! TO.P,J2,40*
G04 #@! TO.N,N/C*
X143630000Y-90730000D03*
G04 #@! TD*
D20*
G04 #@! TO.P,J3,1*
G04 #@! TO.N,pi-02*
X101720000Y-97790000D03*
D21*
G04 #@! TO.P,J3,2*
G04 #@! TO.N,pi-06*
X104220000Y-97790000D03*
G04 #@! TO.P,J3,3*
G04 #@! TO.N,pi-08*
X106720000Y-97790000D03*
G04 #@! TO.P,J3,4*
G04 #@! TO.N,pi-10*
X109220000Y-97790000D03*
G04 #@! TO.P,J3,5*
G04 #@! TO.N,pi-12*
X111720000Y-97790000D03*
G04 #@! TD*
D17*
G04 #@! TO.P,J4,1*
G04 #@! TO.N,pi-06*
X147320000Y-109220000D03*
D16*
G04 #@! TO.P,J4,2*
G04 #@! TO.N,pi-02*
X147320000Y-104220000D03*
G04 #@! TD*
D18*
G04 #@! TO.P,SW1,1*
G04 #@! TO.N,Net-(C1-Pad1)*
X100330000Y-116840000D03*
D19*
G04 #@! TO.P,SW1,2*
G04 #@! TO.N,Net-(R1-Pad2)*
X97790000Y-116840000D03*
G04 #@! TO.P,SW1,3*
G04 #@! TO.N,pi-06*
X95250000Y-116840000D03*
G04 #@! TD*
D22*
G04 #@! TO.N,pi-37*
X144145000Y-114935000D03*
X102235000Y-114935000D03*
G04 #@! TD*
D23*
G04 #@! TO.N,Net-(C1-Pad1)*
X100330000Y-116840000D02*
X100330000Y-115570000D01*
X100330000Y-115570000D02*
X99060000Y-115570000D01*
X99060000Y-115570000D02*
X97790000Y-114300000D01*
X97790000Y-114300000D02*
X97790000Y-111125000D01*
X97155000Y-110490000D02*
X95250000Y-110490000D01*
X97790000Y-111125000D02*
X97155000Y-110490000D01*
D24*
G04 #@! TO.N,pi-02*
X129680000Y-104140000D02*
X132080000Y-104140000D01*
X105995000Y-104140000D02*
X129680000Y-104140000D01*
X101720000Y-99865000D02*
X105995000Y-104140000D01*
X101720000Y-97790000D02*
X101720000Y-99865000D01*
X99645000Y-97790000D02*
X101720000Y-97790000D01*
X94615000Y-97790000D02*
X99645000Y-97790000D01*
X93345000Y-96520000D02*
X94615000Y-97790000D01*
X93345000Y-91552919D02*
X93345000Y-96520000D01*
X95370000Y-90730000D02*
X94167919Y-90730000D01*
X94167919Y-90730000D02*
X93345000Y-91552919D01*
X95370000Y-90730000D02*
X97910000Y-90730000D01*
D23*
G04 #@! TO.N,pi-37*
X144145000Y-114935000D02*
X106680000Y-114935000D01*
X102235000Y-114935000D02*
X106680000Y-114935000D01*
G04 #@! TD*
D25*
G04 #@! TO.N,pi-06*
G36*
X149525708Y-88776100D02*
X150023212Y-88956685D01*
X150465835Y-89246881D01*
X150829823Y-89631116D01*
X151095658Y-90088784D01*
X151251892Y-90604629D01*
X151290000Y-91031618D01*
X151290001Y-115314712D01*
X151286063Y-115325301D01*
X151269945Y-115414884D01*
X151199405Y-116019918D01*
X151020809Y-116511944D01*
X150733810Y-116949689D01*
X150353807Y-117309670D01*
X149901180Y-117572576D01*
X149390584Y-117727220D01*
X148934663Y-117767910D01*
X148828463Y-117790000D01*
X101807549Y-117790000D01*
X101827440Y-117690000D01*
X101827440Y-115990000D01*
X101804995Y-115877162D01*
X102029126Y-115970000D01*
X102440874Y-115970000D01*
X102821280Y-115812431D01*
X102938711Y-115695000D01*
X143441289Y-115695000D01*
X143558720Y-115812431D01*
X143939126Y-115970000D01*
X144350874Y-115970000D01*
X144731280Y-115812431D01*
X145022431Y-115521280D01*
X145180000Y-115140874D01*
X145180000Y-114729126D01*
X145128652Y-114605159D01*
X146515000Y-114605159D01*
X146515000Y-115394841D01*
X146817199Y-116124412D01*
X147375588Y-116682801D01*
X148105159Y-116985000D01*
X148894841Y-116985000D01*
X149624412Y-116682801D01*
X150182801Y-116124412D01*
X150485000Y-115394841D01*
X150485000Y-114605159D01*
X150182801Y-113875588D01*
X149624412Y-113317199D01*
X148894841Y-113015000D01*
X148105159Y-113015000D01*
X147375588Y-113317199D01*
X146817199Y-113875588D01*
X146515000Y-114605159D01*
X145128652Y-114605159D01*
X145022431Y-114348720D01*
X144731280Y-114057569D01*
X144350874Y-113900000D01*
X143939126Y-113900000D01*
X143558720Y-114057569D01*
X143441289Y-114175000D01*
X102938711Y-114175000D01*
X102821280Y-114057569D01*
X102440874Y-113900000D01*
X102029126Y-113900000D01*
X101648720Y-114057569D01*
X101357569Y-114348720D01*
X101200000Y-114729126D01*
X101200000Y-115140874D01*
X101292838Y-115365005D01*
X101180000Y-115342560D01*
X101059648Y-115342560D01*
X101045904Y-115273463D01*
X100877929Y-115022071D01*
X100626537Y-114854096D01*
X100404852Y-114810000D01*
X100330000Y-114795111D01*
X100255148Y-114810000D01*
X99374802Y-114810000D01*
X98550000Y-113985199D01*
X98550000Y-111199848D01*
X98564888Y-111125000D01*
X98550000Y-111050152D01*
X98550000Y-111050148D01*
X98505904Y-110828463D01*
X98337929Y-110577071D01*
X98274473Y-110534671D01*
X98176977Y-110437175D01*
X130962430Y-110437175D01*
X131085565Y-110724788D01*
X131767734Y-110984707D01*
X132497443Y-110963786D01*
X133074435Y-110724788D01*
X133197570Y-110437175D01*
X132080000Y-109319605D01*
X130962430Y-110437175D01*
X98176977Y-110437175D01*
X97745331Y-110005530D01*
X97702929Y-109942071D01*
X97451537Y-109774096D01*
X97229852Y-109730000D01*
X97229847Y-109730000D01*
X97155000Y-109715112D01*
X97080153Y-109730000D01*
X96697440Y-109730000D01*
X96697440Y-109690000D01*
X96648157Y-109442235D01*
X96507809Y-109232191D01*
X96297765Y-109091843D01*
X96050000Y-109042560D01*
X94450000Y-109042560D01*
X94202235Y-109091843D01*
X93992191Y-109232191D01*
X93851843Y-109442235D01*
X93802560Y-109690000D01*
X93802560Y-111290000D01*
X93851843Y-111537765D01*
X93992191Y-111747809D01*
X94202235Y-111888157D01*
X94436187Y-111934693D01*
X94421861Y-111982255D01*
X95250000Y-112810395D01*
X96078139Y-111982255D01*
X96063813Y-111934693D01*
X96297765Y-111888157D01*
X96507809Y-111747809D01*
X96648157Y-111537765D01*
X96697440Y-111290000D01*
X96697440Y-111250000D01*
X96840199Y-111250000D01*
X97030001Y-111439803D01*
X97030000Y-114225153D01*
X97015112Y-114300000D01*
X97030000Y-114374847D01*
X97030000Y-114374851D01*
X97074096Y-114596536D01*
X97242071Y-114847929D01*
X97305530Y-114890331D01*
X97770199Y-115355000D01*
X97643744Y-115355000D01*
X97210582Y-115441161D01*
X96719375Y-115769375D01*
X96506157Y-116088478D01*
X96445183Y-115958642D01*
X96016924Y-115568355D01*
X95606890Y-115398524D01*
X95377000Y-115519845D01*
X95377000Y-116713000D01*
X95397000Y-116713000D01*
X95397000Y-116967000D01*
X95377000Y-116967000D01*
X95377000Y-116987000D01*
X95123000Y-116987000D01*
X95123000Y-116967000D01*
X93929181Y-116967000D01*
X93808514Y-117196892D01*
X94054817Y-117721358D01*
X94130137Y-117790000D01*
X93169650Y-117790000D01*
X93143391Y-117779123D01*
X92904101Y-117731525D01*
X92822798Y-117677201D01*
X92768475Y-117595901D01*
X92720877Y-117356609D01*
X92710000Y-117330350D01*
X92710000Y-116483108D01*
X93808514Y-116483108D01*
X93929181Y-116713000D01*
X95123000Y-116713000D01*
X95123000Y-115519845D01*
X94893110Y-115398524D01*
X94483076Y-115568355D01*
X94054817Y-115958642D01*
X93808514Y-116483108D01*
X92710000Y-116483108D01*
X92710000Y-113997745D01*
X94421861Y-113997745D01*
X94495995Y-114243864D01*
X95033223Y-114436965D01*
X95603454Y-114409778D01*
X96004005Y-114243864D01*
X96078139Y-113997745D01*
X95250000Y-113169605D01*
X94421861Y-113997745D01*
X92710000Y-113997745D01*
X92710000Y-112773223D01*
X93803035Y-112773223D01*
X93830222Y-113343454D01*
X93996136Y-113744005D01*
X94242255Y-113818139D01*
X95070395Y-112990000D01*
X95429605Y-112990000D01*
X96257745Y-113818139D01*
X96503864Y-113744005D01*
X96696965Y-113206777D01*
X96669778Y-112636546D01*
X96503864Y-112235995D01*
X96257745Y-112161861D01*
X95429605Y-112990000D01*
X95070395Y-112990000D01*
X94242255Y-112161861D01*
X93996136Y-112235995D01*
X93803035Y-112773223D01*
X92710000Y-112773223D01*
X92710000Y-109169651D01*
X92720877Y-109143392D01*
X92720877Y-108856609D01*
X92715134Y-108827734D01*
X130235293Y-108827734D01*
X130256214Y-109557443D01*
X130495212Y-110134435D01*
X130782825Y-110257570D01*
X131900395Y-109140000D01*
X132259605Y-109140000D01*
X133377175Y-110257570D01*
X133664788Y-110134435D01*
X133904328Y-109505750D01*
X145435000Y-109505750D01*
X145435000Y-110596309D01*
X145531673Y-110829698D01*
X145710301Y-111008327D01*
X145943690Y-111105000D01*
X147034250Y-111105000D01*
X147193000Y-110946250D01*
X147193000Y-109347000D01*
X147447000Y-109347000D01*
X147447000Y-110946250D01*
X147605750Y-111105000D01*
X148696310Y-111105000D01*
X148929699Y-111008327D01*
X149108327Y-110829698D01*
X149205000Y-110596309D01*
X149205000Y-109505750D01*
X149046250Y-109347000D01*
X147447000Y-109347000D01*
X147193000Y-109347000D01*
X145593750Y-109347000D01*
X145435000Y-109505750D01*
X133904328Y-109505750D01*
X133924707Y-109452266D01*
X133903786Y-108722557D01*
X133664788Y-108145565D01*
X133377175Y-108022430D01*
X132259605Y-109140000D01*
X131900395Y-109140000D01*
X130782825Y-108022430D01*
X130495212Y-108145565D01*
X130235293Y-108827734D01*
X92715134Y-108827734D01*
X92644757Y-108473926D01*
X92535010Y-108208974D01*
X92535010Y-108208973D01*
X92318237Y-107884549D01*
X92276513Y-107842825D01*
X130962430Y-107842825D01*
X132080000Y-108960395D01*
X133196704Y-107843691D01*
X145435000Y-107843691D01*
X145435000Y-108934250D01*
X145593750Y-109093000D01*
X147193000Y-109093000D01*
X147193000Y-107493750D01*
X147447000Y-107493750D01*
X147447000Y-109093000D01*
X149046250Y-109093000D01*
X149205000Y-108934250D01*
X149205000Y-107843691D01*
X149108327Y-107610302D01*
X148929699Y-107431673D01*
X148696310Y-107335000D01*
X147605750Y-107335000D01*
X147447000Y-107493750D01*
X147193000Y-107493750D01*
X147034250Y-107335000D01*
X145943690Y-107335000D01*
X145710301Y-107431673D01*
X145531673Y-107610302D01*
X145435000Y-107843691D01*
X133196704Y-107843691D01*
X133197570Y-107842825D01*
X133074435Y-107555212D01*
X132392266Y-107295293D01*
X131662557Y-107316214D01*
X131085565Y-107555212D01*
X130962430Y-107842825D01*
X92276513Y-107842825D01*
X92224714Y-107791026D01*
X92115451Y-107681762D01*
X91791027Y-107464990D01*
X91526074Y-107355243D01*
X91143391Y-107279123D01*
X90856608Y-107279123D01*
X90830349Y-107290000D01*
X88169650Y-107290000D01*
X88143391Y-107279123D01*
X87904101Y-107231525D01*
X87822798Y-107177201D01*
X87768475Y-107095901D01*
X87720877Y-106856609D01*
X87710000Y-106830350D01*
X87710000Y-104955050D01*
X90190000Y-104955050D01*
X90190000Y-105704950D01*
X90476974Y-106397767D01*
X91007233Y-106928026D01*
X91700050Y-107215000D01*
X92449950Y-107215000D01*
X93142767Y-106928026D01*
X93673026Y-106397767D01*
X93960000Y-105704950D01*
X93960000Y-104955050D01*
X93673026Y-104262233D01*
X93142767Y-103731974D01*
X92449950Y-103445000D01*
X91700050Y-103445000D01*
X91007233Y-103731974D01*
X90476974Y-104262233D01*
X90190000Y-104955050D01*
X87710000Y-104955050D01*
X87710000Y-100615750D01*
X90190000Y-100615750D01*
X90190000Y-101706309D01*
X90286673Y-101939698D01*
X90465301Y-102118327D01*
X90698690Y-102215000D01*
X91789250Y-102215000D01*
X91948000Y-102056250D01*
X91948000Y-100457000D01*
X92202000Y-100457000D01*
X92202000Y-102056250D01*
X92360750Y-102215000D01*
X93451310Y-102215000D01*
X93684699Y-102118327D01*
X93863327Y-101939698D01*
X93960000Y-101706309D01*
X93960000Y-100615750D01*
X93801250Y-100457000D01*
X92202000Y-100457000D01*
X91948000Y-100457000D01*
X90348750Y-100457000D01*
X90190000Y-100615750D01*
X87710000Y-100615750D01*
X87710000Y-98953691D01*
X90190000Y-98953691D01*
X90190000Y-100044250D01*
X90348750Y-100203000D01*
X91948000Y-100203000D01*
X91948000Y-98603750D01*
X91789250Y-98445000D01*
X90698690Y-98445000D01*
X90465301Y-98541673D01*
X90286673Y-98720302D01*
X90190000Y-98953691D01*
X87710000Y-98953691D01*
X87710000Y-91605159D01*
X88515000Y-91605159D01*
X88515000Y-92394841D01*
X88817199Y-93124412D01*
X89375588Y-93682801D01*
X90105159Y-93985000D01*
X90894841Y-93985000D01*
X91624412Y-93682801D01*
X92110000Y-93197213D01*
X92110001Y-96398363D01*
X92085806Y-96520000D01*
X92181656Y-97001872D01*
X92385714Y-97307267D01*
X92385716Y-97307269D01*
X92454616Y-97410385D01*
X92557731Y-97479284D01*
X93574454Y-98496008D01*
X93451310Y-98445000D01*
X92360750Y-98445000D01*
X92202000Y-98603750D01*
X92202000Y-100203000D01*
X93801250Y-100203000D01*
X93960000Y-100044250D01*
X93960000Y-98953691D01*
X93893548Y-98793263D01*
X93918258Y-98809773D01*
X94133127Y-98953344D01*
X94493364Y-99025000D01*
X94493368Y-99025000D01*
X94614999Y-99049194D01*
X94736630Y-99025000D01*
X100321837Y-99025000D01*
X100387191Y-99122809D01*
X100485001Y-99188164D01*
X100485001Y-99743364D01*
X100460806Y-99865000D01*
X100556656Y-100346872D01*
X100760714Y-100652267D01*
X100760716Y-100652269D01*
X100829616Y-100755385D01*
X100932732Y-100824285D01*
X105035715Y-104927269D01*
X105104615Y-105030385D01*
X105207731Y-105099285D01*
X105207732Y-105099286D01*
X105489814Y-105287767D01*
X105513127Y-105303344D01*
X105873364Y-105375000D01*
X105873368Y-105375000D01*
X105995000Y-105399194D01*
X106116632Y-105375000D01*
X130239522Y-105375000D01*
X130281843Y-105587765D01*
X130422191Y-105797809D01*
X130632235Y-105938157D01*
X130880000Y-105987440D01*
X133280000Y-105987440D01*
X133527765Y-105938157D01*
X133737809Y-105797809D01*
X133878157Y-105587765D01*
X133927440Y-105340000D01*
X133927440Y-103845050D01*
X145435000Y-103845050D01*
X145435000Y-104594950D01*
X145721974Y-105287767D01*
X146252233Y-105818026D01*
X146945050Y-106105000D01*
X147694950Y-106105000D01*
X148387767Y-105818026D01*
X148918026Y-105287767D01*
X149205000Y-104594950D01*
X149205000Y-103845050D01*
X148918026Y-103152233D01*
X148387767Y-102621974D01*
X147694950Y-102335000D01*
X146945050Y-102335000D01*
X146252233Y-102621974D01*
X145721974Y-103152233D01*
X145435000Y-103845050D01*
X133927440Y-103845050D01*
X133927440Y-102940000D01*
X133878157Y-102692235D01*
X133737809Y-102482191D01*
X133527765Y-102341843D01*
X133280000Y-102292560D01*
X130880000Y-102292560D01*
X130632235Y-102341843D01*
X130422191Y-102482191D01*
X130281843Y-102692235D01*
X130239522Y-102905000D01*
X106506554Y-102905000D01*
X102955000Y-99353447D01*
X102955000Y-99188163D01*
X103052809Y-99122809D01*
X103183475Y-98927255D01*
X103222914Y-98966694D01*
X103337546Y-98852062D01*
X103420884Y-99105953D01*
X103985306Y-99311590D01*
X104585458Y-99285579D01*
X105019116Y-99105953D01*
X105102455Y-98852060D01*
X104220000Y-97969605D01*
X104205858Y-97983748D01*
X104026253Y-97804143D01*
X104040395Y-97790000D01*
X104399605Y-97790000D01*
X105282060Y-98672455D01*
X105430879Y-98623606D01*
X105439884Y-98645346D01*
X105864654Y-99070116D01*
X106419642Y-99300000D01*
X107020358Y-99300000D01*
X107575346Y-99070116D01*
X107970000Y-98675462D01*
X108364654Y-99070116D01*
X108919642Y-99300000D01*
X109520358Y-99300000D01*
X110075346Y-99070116D01*
X110470000Y-98675462D01*
X110864654Y-99070116D01*
X111419642Y-99300000D01*
X112020358Y-99300000D01*
X112575346Y-99070116D01*
X112754426Y-98891036D01*
X117497193Y-98891036D01*
X117527518Y-99381413D01*
X117656836Y-99693617D01*
X117882265Y-99743130D01*
X118565395Y-99060000D01*
X117882265Y-98376870D01*
X117656836Y-98426383D01*
X117497193Y-98891036D01*
X112754426Y-98891036D01*
X113000116Y-98645346D01*
X113185717Y-98197265D01*
X118061870Y-98197265D01*
X118745000Y-98880395D01*
X118759143Y-98866253D01*
X118938748Y-99045858D01*
X118924605Y-99060000D01*
X118938748Y-99074143D01*
X118759143Y-99253748D01*
X118745000Y-99239605D01*
X118061870Y-99922735D01*
X118111383Y-100148164D01*
X118576036Y-100307807D01*
X119066413Y-100277482D01*
X119378617Y-100148164D01*
X119428129Y-99922737D01*
X119543822Y-100038430D01*
X119597970Y-99984282D01*
X119687191Y-100117809D01*
X119897235Y-100258157D01*
X120145000Y-100307440D01*
X121345000Y-100307440D01*
X121592765Y-100258157D01*
X121802809Y-100117809D01*
X121943157Y-99907765D01*
X121992440Y-99660000D01*
X121992440Y-98460000D01*
X121943157Y-98212235D01*
X121802809Y-98002191D01*
X121592765Y-97861843D01*
X121345000Y-97812560D01*
X120145000Y-97812560D01*
X119897235Y-97861843D01*
X119687191Y-98002191D01*
X119597970Y-98135718D01*
X119543822Y-98081570D01*
X119428129Y-98197263D01*
X119378617Y-97971836D01*
X118913964Y-97812193D01*
X118423587Y-97842518D01*
X118111383Y-97971836D01*
X118061870Y-98197265D01*
X113185717Y-98197265D01*
X113230000Y-98090358D01*
X113230000Y-97489642D01*
X113000116Y-96934654D01*
X112575346Y-96509884D01*
X112020358Y-96280000D01*
X111419642Y-96280000D01*
X110864654Y-96509884D01*
X110470000Y-96904538D01*
X110075346Y-96509884D01*
X109520358Y-96280000D01*
X108919642Y-96280000D01*
X108364654Y-96509884D01*
X107970000Y-96904538D01*
X107575346Y-96509884D01*
X107020358Y-96280000D01*
X106419642Y-96280000D01*
X105864654Y-96509884D01*
X105439884Y-96934654D01*
X105430879Y-96956394D01*
X105282060Y-96907545D01*
X104399605Y-97790000D01*
X104040395Y-97790000D01*
X104026253Y-97775858D01*
X104205858Y-97596253D01*
X104220000Y-97610395D01*
X105102455Y-96727940D01*
X105019116Y-96474047D01*
X104454694Y-96268410D01*
X103854542Y-96294421D01*
X103420884Y-96474047D01*
X103337546Y-96727938D01*
X103222914Y-96613306D01*
X103183475Y-96652745D01*
X103052809Y-96457191D01*
X102842765Y-96316843D01*
X102595000Y-96267560D01*
X100845000Y-96267560D01*
X100597235Y-96316843D01*
X100387191Y-96457191D01*
X100321837Y-96555000D01*
X95126554Y-96555000D01*
X94580000Y-96008447D01*
X94580000Y-94767440D01*
X96220000Y-94767440D01*
X96467765Y-94718157D01*
X96677809Y-94577809D01*
X96818157Y-94367765D01*
X96827184Y-94322381D01*
X96839375Y-94340625D01*
X97330582Y-94668839D01*
X97763744Y-94755000D01*
X98056256Y-94755000D01*
X98489418Y-94668839D01*
X98980625Y-94340625D01*
X99180000Y-94042239D01*
X99379375Y-94340625D01*
X99870582Y-94668839D01*
X100303744Y-94755000D01*
X100596256Y-94755000D01*
X101029418Y-94668839D01*
X101520625Y-94340625D01*
X101720000Y-94042239D01*
X101919375Y-94340625D01*
X102410582Y-94668839D01*
X102843744Y-94755000D01*
X103136256Y-94755000D01*
X103569418Y-94668839D01*
X104060625Y-94340625D01*
X104273843Y-94021522D01*
X104334817Y-94151358D01*
X104763076Y-94541645D01*
X105173110Y-94711476D01*
X105403000Y-94590155D01*
X105403000Y-93397000D01*
X105383000Y-93397000D01*
X105383000Y-93143000D01*
X105403000Y-93143000D01*
X105403000Y-93123000D01*
X105657000Y-93123000D01*
X105657000Y-93143000D01*
X105677000Y-93143000D01*
X105677000Y-93397000D01*
X105657000Y-93397000D01*
X105657000Y-94590155D01*
X105886890Y-94711476D01*
X106296924Y-94541645D01*
X106725183Y-94151358D01*
X106786157Y-94021522D01*
X106999375Y-94340625D01*
X107490582Y-94668839D01*
X107923744Y-94755000D01*
X108216256Y-94755000D01*
X108649418Y-94668839D01*
X109140625Y-94340625D01*
X109340000Y-94042239D01*
X109539375Y-94340625D01*
X110030582Y-94668839D01*
X110463744Y-94755000D01*
X110756256Y-94755000D01*
X111189418Y-94668839D01*
X111680625Y-94340625D01*
X111880000Y-94042239D01*
X112079375Y-94340625D01*
X112570582Y-94668839D01*
X113003744Y-94755000D01*
X113296256Y-94755000D01*
X113729418Y-94668839D01*
X114220625Y-94340625D01*
X114420000Y-94042239D01*
X114619375Y-94340625D01*
X115110582Y-94668839D01*
X115543744Y-94755000D01*
X115836256Y-94755000D01*
X116269418Y-94668839D01*
X116760625Y-94340625D01*
X116960000Y-94042239D01*
X117159375Y-94340625D01*
X117650582Y-94668839D01*
X118083744Y-94755000D01*
X118376256Y-94755000D01*
X118809418Y-94668839D01*
X119300625Y-94340625D01*
X119500000Y-94042239D01*
X119699375Y-94340625D01*
X120190582Y-94668839D01*
X120623744Y-94755000D01*
X120916256Y-94755000D01*
X121349418Y-94668839D01*
X121840625Y-94340625D01*
X122040000Y-94042239D01*
X122239375Y-94340625D01*
X122730582Y-94668839D01*
X123163744Y-94755000D01*
X123456256Y-94755000D01*
X123889418Y-94668839D01*
X124380625Y-94340625D01*
X124593843Y-94021522D01*
X124654817Y-94151358D01*
X125083076Y-94541645D01*
X125493110Y-94711476D01*
X125723000Y-94590155D01*
X125723000Y-93397000D01*
X125703000Y-93397000D01*
X125703000Y-93143000D01*
X125723000Y-93143000D01*
X125723000Y-93123000D01*
X125977000Y-93123000D01*
X125977000Y-93143000D01*
X125997000Y-93143000D01*
X125997000Y-93397000D01*
X125977000Y-93397000D01*
X125977000Y-94590155D01*
X126206890Y-94711476D01*
X126616924Y-94541645D01*
X127045183Y-94151358D01*
X127106157Y-94021522D01*
X127319375Y-94340625D01*
X127810582Y-94668839D01*
X128243744Y-94755000D01*
X128536256Y-94755000D01*
X128969418Y-94668839D01*
X129460625Y-94340625D01*
X129660000Y-94042239D01*
X129859375Y-94340625D01*
X130350582Y-94668839D01*
X130783744Y-94755000D01*
X131076256Y-94755000D01*
X131509418Y-94668839D01*
X132000625Y-94340625D01*
X132200000Y-94042239D01*
X132399375Y-94340625D01*
X132890582Y-94668839D01*
X133323744Y-94755000D01*
X133616256Y-94755000D01*
X134049418Y-94668839D01*
X134540625Y-94340625D01*
X134740000Y-94042239D01*
X134939375Y-94340625D01*
X135430582Y-94668839D01*
X135863744Y-94755000D01*
X136156256Y-94755000D01*
X136589418Y-94668839D01*
X137080625Y-94340625D01*
X137280000Y-94042239D01*
X137479375Y-94340625D01*
X137970582Y-94668839D01*
X138403744Y-94755000D01*
X138696256Y-94755000D01*
X139129418Y-94668839D01*
X139620625Y-94340625D01*
X139820000Y-94042239D01*
X140019375Y-94340625D01*
X140510582Y-94668839D01*
X140943744Y-94755000D01*
X141236256Y-94755000D01*
X141669418Y-94668839D01*
X142160625Y-94340625D01*
X142373843Y-94021522D01*
X142434817Y-94151358D01*
X142863076Y-94541645D01*
X143273110Y-94711476D01*
X143503000Y-94590155D01*
X143503000Y-93397000D01*
X143757000Y-93397000D01*
X143757000Y-94590155D01*
X143986890Y-94711476D01*
X144396924Y-94541645D01*
X144825183Y-94151358D01*
X145071486Y-93626892D01*
X144950819Y-93397000D01*
X143757000Y-93397000D01*
X143503000Y-93397000D01*
X143483000Y-93397000D01*
X143483000Y-93143000D01*
X143503000Y-93143000D01*
X143503000Y-93123000D01*
X143757000Y-93123000D01*
X143757000Y-93143000D01*
X144950819Y-93143000D01*
X145071486Y-92913108D01*
X144825183Y-92388642D01*
X144400214Y-92001353D01*
X144700625Y-91800625D01*
X144831231Y-91605159D01*
X146515000Y-91605159D01*
X146515000Y-92394841D01*
X146817199Y-93124412D01*
X147375588Y-93682801D01*
X148105159Y-93985000D01*
X148894841Y-93985000D01*
X149624412Y-93682801D01*
X150182801Y-93124412D01*
X150485000Y-92394841D01*
X150485000Y-91605159D01*
X150182801Y-90875588D01*
X149624412Y-90317199D01*
X148894841Y-90015000D01*
X148105159Y-90015000D01*
X147375588Y-90317199D01*
X146817199Y-90875588D01*
X146515000Y-91605159D01*
X144831231Y-91605159D01*
X145028839Y-91309418D01*
X145144092Y-90730000D01*
X145028839Y-90150582D01*
X144700625Y-89659375D01*
X144209418Y-89331161D01*
X143776256Y-89245000D01*
X143483744Y-89245000D01*
X143050582Y-89331161D01*
X142559375Y-89659375D01*
X142360000Y-89957761D01*
X142160625Y-89659375D01*
X141669418Y-89331161D01*
X141236256Y-89245000D01*
X140943744Y-89245000D01*
X140510582Y-89331161D01*
X140019375Y-89659375D01*
X139820000Y-89957761D01*
X139620625Y-89659375D01*
X139129418Y-89331161D01*
X138696256Y-89245000D01*
X138403744Y-89245000D01*
X137970582Y-89331161D01*
X137479375Y-89659375D01*
X137266157Y-89978478D01*
X137205183Y-89848642D01*
X136776924Y-89458355D01*
X136366890Y-89288524D01*
X136137000Y-89409845D01*
X136137000Y-90603000D01*
X136157000Y-90603000D01*
X136157000Y-90857000D01*
X136137000Y-90857000D01*
X136137000Y-90877000D01*
X135883000Y-90877000D01*
X135883000Y-90857000D01*
X135863000Y-90857000D01*
X135863000Y-90603000D01*
X135883000Y-90603000D01*
X135883000Y-89409845D01*
X135653110Y-89288524D01*
X135243076Y-89458355D01*
X134814817Y-89848642D01*
X134753843Y-89978478D01*
X134540625Y-89659375D01*
X134049418Y-89331161D01*
X133616256Y-89245000D01*
X133323744Y-89245000D01*
X132890582Y-89331161D01*
X132399375Y-89659375D01*
X132186157Y-89978478D01*
X132125183Y-89848642D01*
X131696924Y-89458355D01*
X131286890Y-89288524D01*
X131057000Y-89409845D01*
X131057000Y-90603000D01*
X131077000Y-90603000D01*
X131077000Y-90857000D01*
X131057000Y-90857000D01*
X131057000Y-90877000D01*
X130803000Y-90877000D01*
X130803000Y-90857000D01*
X130783000Y-90857000D01*
X130783000Y-90603000D01*
X130803000Y-90603000D01*
X130803000Y-89409845D01*
X130573110Y-89288524D01*
X130163076Y-89458355D01*
X129734817Y-89848642D01*
X129673843Y-89978478D01*
X129460625Y-89659375D01*
X128969418Y-89331161D01*
X128536256Y-89245000D01*
X128243744Y-89245000D01*
X127810582Y-89331161D01*
X127319375Y-89659375D01*
X127120000Y-89957761D01*
X126920625Y-89659375D01*
X126429418Y-89331161D01*
X125996256Y-89245000D01*
X125703744Y-89245000D01*
X125270582Y-89331161D01*
X124779375Y-89659375D01*
X124580000Y-89957761D01*
X124380625Y-89659375D01*
X123889418Y-89331161D01*
X123456256Y-89245000D01*
X123163744Y-89245000D01*
X122730582Y-89331161D01*
X122239375Y-89659375D01*
X122040000Y-89957761D01*
X121840625Y-89659375D01*
X121349418Y-89331161D01*
X120916256Y-89245000D01*
X120623744Y-89245000D01*
X120190582Y-89331161D01*
X119699375Y-89659375D01*
X119486157Y-89978478D01*
X119425183Y-89848642D01*
X118996924Y-89458355D01*
X118586890Y-89288524D01*
X118357000Y-89409845D01*
X118357000Y-90603000D01*
X118377000Y-90603000D01*
X118377000Y-90857000D01*
X118357000Y-90857000D01*
X118357000Y-90877000D01*
X118103000Y-90877000D01*
X118103000Y-90857000D01*
X118083000Y-90857000D01*
X118083000Y-90603000D01*
X118103000Y-90603000D01*
X118103000Y-89409845D01*
X117873110Y-89288524D01*
X117463076Y-89458355D01*
X117034817Y-89848642D01*
X116973843Y-89978478D01*
X116760625Y-89659375D01*
X116269418Y-89331161D01*
X115836256Y-89245000D01*
X115543744Y-89245000D01*
X115110582Y-89331161D01*
X114619375Y-89659375D01*
X114420000Y-89957761D01*
X114220625Y-89659375D01*
X113729418Y-89331161D01*
X113296256Y-89245000D01*
X113003744Y-89245000D01*
X112570582Y-89331161D01*
X112079375Y-89659375D01*
X111866157Y-89978478D01*
X111805183Y-89848642D01*
X111376924Y-89458355D01*
X110966890Y-89288524D01*
X110737000Y-89409845D01*
X110737000Y-90603000D01*
X110757000Y-90603000D01*
X110757000Y-90857000D01*
X110737000Y-90857000D01*
X110737000Y-90877000D01*
X110483000Y-90877000D01*
X110483000Y-90857000D01*
X110463000Y-90857000D01*
X110463000Y-90603000D01*
X110483000Y-90603000D01*
X110483000Y-89409845D01*
X110253110Y-89288524D01*
X109843076Y-89458355D01*
X109414817Y-89848642D01*
X109353843Y-89978478D01*
X109140625Y-89659375D01*
X108649418Y-89331161D01*
X108216256Y-89245000D01*
X107923744Y-89245000D01*
X107490582Y-89331161D01*
X106999375Y-89659375D01*
X106800000Y-89957761D01*
X106600625Y-89659375D01*
X106109418Y-89331161D01*
X105676256Y-89245000D01*
X105383744Y-89245000D01*
X104950582Y-89331161D01*
X104459375Y-89659375D01*
X104260000Y-89957761D01*
X104060625Y-89659375D01*
X103569418Y-89331161D01*
X103136256Y-89245000D01*
X102843744Y-89245000D01*
X102410582Y-89331161D01*
X101919375Y-89659375D01*
X101706157Y-89978478D01*
X101645183Y-89848642D01*
X101216924Y-89458355D01*
X100806890Y-89288524D01*
X100577000Y-89409845D01*
X100577000Y-90603000D01*
X100597000Y-90603000D01*
X100597000Y-90857000D01*
X100577000Y-90857000D01*
X100577000Y-90877000D01*
X100323000Y-90877000D01*
X100323000Y-90857000D01*
X100303000Y-90857000D01*
X100303000Y-90603000D01*
X100323000Y-90603000D01*
X100323000Y-89409845D01*
X100093110Y-89288524D01*
X99683076Y-89458355D01*
X99254817Y-89848642D01*
X99193843Y-89978478D01*
X98980625Y-89659375D01*
X98489418Y-89331161D01*
X98056256Y-89245000D01*
X97763744Y-89245000D01*
X97330582Y-89331161D01*
X97085380Y-89495000D01*
X96194620Y-89495000D01*
X95949418Y-89331161D01*
X95516256Y-89245000D01*
X95223744Y-89245000D01*
X94790582Y-89331161D01*
X94545380Y-89495000D01*
X94289549Y-89495000D01*
X94167918Y-89470806D01*
X94046287Y-89495000D01*
X94046283Y-89495000D01*
X93686046Y-89566656D01*
X93511154Y-89683515D01*
X93380651Y-89770714D01*
X93380650Y-89770715D01*
X93277534Y-89839615D01*
X93208634Y-89942731D01*
X92557733Y-90593633D01*
X92454615Y-90662534D01*
X92232342Y-90995190D01*
X92182801Y-90875588D01*
X91624412Y-90317199D01*
X90894841Y-90015000D01*
X90105159Y-90015000D01*
X89375588Y-90317199D01*
X88817199Y-90875588D01*
X88515000Y-91605159D01*
X87710000Y-91605159D01*
X87710000Y-91041247D01*
X87776100Y-90474292D01*
X87956685Y-89976788D01*
X88246881Y-89534165D01*
X88631116Y-89170177D01*
X89088784Y-88904342D01*
X89604629Y-88748108D01*
X90031618Y-88710000D01*
X148958753Y-88710000D01*
X149525708Y-88776100D01*
X149525708Y-88776100D01*
G37*
X149525708Y-88776100D02*
X150023212Y-88956685D01*
X150465835Y-89246881D01*
X150829823Y-89631116D01*
X151095658Y-90088784D01*
X151251892Y-90604629D01*
X151290000Y-91031618D01*
X151290001Y-115314712D01*
X151286063Y-115325301D01*
X151269945Y-115414884D01*
X151199405Y-116019918D01*
X151020809Y-116511944D01*
X150733810Y-116949689D01*
X150353807Y-117309670D01*
X149901180Y-117572576D01*
X149390584Y-117727220D01*
X148934663Y-117767910D01*
X148828463Y-117790000D01*
X101807549Y-117790000D01*
X101827440Y-117690000D01*
X101827440Y-115990000D01*
X101804995Y-115877162D01*
X102029126Y-115970000D01*
X102440874Y-115970000D01*
X102821280Y-115812431D01*
X102938711Y-115695000D01*
X143441289Y-115695000D01*
X143558720Y-115812431D01*
X143939126Y-115970000D01*
X144350874Y-115970000D01*
X144731280Y-115812431D01*
X145022431Y-115521280D01*
X145180000Y-115140874D01*
X145180000Y-114729126D01*
X145128652Y-114605159D01*
X146515000Y-114605159D01*
X146515000Y-115394841D01*
X146817199Y-116124412D01*
X147375588Y-116682801D01*
X148105159Y-116985000D01*
X148894841Y-116985000D01*
X149624412Y-116682801D01*
X150182801Y-116124412D01*
X150485000Y-115394841D01*
X150485000Y-114605159D01*
X150182801Y-113875588D01*
X149624412Y-113317199D01*
X148894841Y-113015000D01*
X148105159Y-113015000D01*
X147375588Y-113317199D01*
X146817199Y-113875588D01*
X146515000Y-114605159D01*
X145128652Y-114605159D01*
X145022431Y-114348720D01*
X144731280Y-114057569D01*
X144350874Y-113900000D01*
X143939126Y-113900000D01*
X143558720Y-114057569D01*
X143441289Y-114175000D01*
X102938711Y-114175000D01*
X102821280Y-114057569D01*
X102440874Y-113900000D01*
X102029126Y-113900000D01*
X101648720Y-114057569D01*
X101357569Y-114348720D01*
X101200000Y-114729126D01*
X101200000Y-115140874D01*
X101292838Y-115365005D01*
X101180000Y-115342560D01*
X101059648Y-115342560D01*
X101045904Y-115273463D01*
X100877929Y-115022071D01*
X100626537Y-114854096D01*
X100404852Y-114810000D01*
X100330000Y-114795111D01*
X100255148Y-114810000D01*
X99374802Y-114810000D01*
X98550000Y-113985199D01*
X98550000Y-111199848D01*
X98564888Y-111125000D01*
X98550000Y-111050152D01*
X98550000Y-111050148D01*
X98505904Y-110828463D01*
X98337929Y-110577071D01*
X98274473Y-110534671D01*
X98176977Y-110437175D01*
X130962430Y-110437175D01*
X131085565Y-110724788D01*
X131767734Y-110984707D01*
X132497443Y-110963786D01*
X133074435Y-110724788D01*
X133197570Y-110437175D01*
X132080000Y-109319605D01*
X130962430Y-110437175D01*
X98176977Y-110437175D01*
X97745331Y-110005530D01*
X97702929Y-109942071D01*
X97451537Y-109774096D01*
X97229852Y-109730000D01*
X97229847Y-109730000D01*
X97155000Y-109715112D01*
X97080153Y-109730000D01*
X96697440Y-109730000D01*
X96697440Y-109690000D01*
X96648157Y-109442235D01*
X96507809Y-109232191D01*
X96297765Y-109091843D01*
X96050000Y-109042560D01*
X94450000Y-109042560D01*
X94202235Y-109091843D01*
X93992191Y-109232191D01*
X93851843Y-109442235D01*
X93802560Y-109690000D01*
X93802560Y-111290000D01*
X93851843Y-111537765D01*
X93992191Y-111747809D01*
X94202235Y-111888157D01*
X94436187Y-111934693D01*
X94421861Y-111982255D01*
X95250000Y-112810395D01*
X96078139Y-111982255D01*
X96063813Y-111934693D01*
X96297765Y-111888157D01*
X96507809Y-111747809D01*
X96648157Y-111537765D01*
X96697440Y-111290000D01*
X96697440Y-111250000D01*
X96840199Y-111250000D01*
X97030001Y-111439803D01*
X97030000Y-114225153D01*
X97015112Y-114300000D01*
X97030000Y-114374847D01*
X97030000Y-114374851D01*
X97074096Y-114596536D01*
X97242071Y-114847929D01*
X97305530Y-114890331D01*
X97770199Y-115355000D01*
X97643744Y-115355000D01*
X97210582Y-115441161D01*
X96719375Y-115769375D01*
X96506157Y-116088478D01*
X96445183Y-115958642D01*
X96016924Y-115568355D01*
X95606890Y-115398524D01*
X95377000Y-115519845D01*
X95377000Y-116713000D01*
X95397000Y-116713000D01*
X95397000Y-116967000D01*
X95377000Y-116967000D01*
X95377000Y-116987000D01*
X95123000Y-116987000D01*
X95123000Y-116967000D01*
X93929181Y-116967000D01*
X93808514Y-117196892D01*
X94054817Y-117721358D01*
X94130137Y-117790000D01*
X93169650Y-117790000D01*
X93143391Y-117779123D01*
X92904101Y-117731525D01*
X92822798Y-117677201D01*
X92768475Y-117595901D01*
X92720877Y-117356609D01*
X92710000Y-117330350D01*
X92710000Y-116483108D01*
X93808514Y-116483108D01*
X93929181Y-116713000D01*
X95123000Y-116713000D01*
X95123000Y-115519845D01*
X94893110Y-115398524D01*
X94483076Y-115568355D01*
X94054817Y-115958642D01*
X93808514Y-116483108D01*
X92710000Y-116483108D01*
X92710000Y-113997745D01*
X94421861Y-113997745D01*
X94495995Y-114243864D01*
X95033223Y-114436965D01*
X95603454Y-114409778D01*
X96004005Y-114243864D01*
X96078139Y-113997745D01*
X95250000Y-113169605D01*
X94421861Y-113997745D01*
X92710000Y-113997745D01*
X92710000Y-112773223D01*
X93803035Y-112773223D01*
X93830222Y-113343454D01*
X93996136Y-113744005D01*
X94242255Y-113818139D01*
X95070395Y-112990000D01*
X95429605Y-112990000D01*
X96257745Y-113818139D01*
X96503864Y-113744005D01*
X96696965Y-113206777D01*
X96669778Y-112636546D01*
X96503864Y-112235995D01*
X96257745Y-112161861D01*
X95429605Y-112990000D01*
X95070395Y-112990000D01*
X94242255Y-112161861D01*
X93996136Y-112235995D01*
X93803035Y-112773223D01*
X92710000Y-112773223D01*
X92710000Y-109169651D01*
X92720877Y-109143392D01*
X92720877Y-108856609D01*
X92715134Y-108827734D01*
X130235293Y-108827734D01*
X130256214Y-109557443D01*
X130495212Y-110134435D01*
X130782825Y-110257570D01*
X131900395Y-109140000D01*
X132259605Y-109140000D01*
X133377175Y-110257570D01*
X133664788Y-110134435D01*
X133904328Y-109505750D01*
X145435000Y-109505750D01*
X145435000Y-110596309D01*
X145531673Y-110829698D01*
X145710301Y-111008327D01*
X145943690Y-111105000D01*
X147034250Y-111105000D01*
X147193000Y-110946250D01*
X147193000Y-109347000D01*
X147447000Y-109347000D01*
X147447000Y-110946250D01*
X147605750Y-111105000D01*
X148696310Y-111105000D01*
X148929699Y-111008327D01*
X149108327Y-110829698D01*
X149205000Y-110596309D01*
X149205000Y-109505750D01*
X149046250Y-109347000D01*
X147447000Y-109347000D01*
X147193000Y-109347000D01*
X145593750Y-109347000D01*
X145435000Y-109505750D01*
X133904328Y-109505750D01*
X133924707Y-109452266D01*
X133903786Y-108722557D01*
X133664788Y-108145565D01*
X133377175Y-108022430D01*
X132259605Y-109140000D01*
X131900395Y-109140000D01*
X130782825Y-108022430D01*
X130495212Y-108145565D01*
X130235293Y-108827734D01*
X92715134Y-108827734D01*
X92644757Y-108473926D01*
X92535010Y-108208974D01*
X92535010Y-108208973D01*
X92318237Y-107884549D01*
X92276513Y-107842825D01*
X130962430Y-107842825D01*
X132080000Y-108960395D01*
X133196704Y-107843691D01*
X145435000Y-107843691D01*
X145435000Y-108934250D01*
X145593750Y-109093000D01*
X147193000Y-109093000D01*
X147193000Y-107493750D01*
X147447000Y-107493750D01*
X147447000Y-109093000D01*
X149046250Y-109093000D01*
X149205000Y-108934250D01*
X149205000Y-107843691D01*
X149108327Y-107610302D01*
X148929699Y-107431673D01*
X148696310Y-107335000D01*
X147605750Y-107335000D01*
X147447000Y-107493750D01*
X147193000Y-107493750D01*
X147034250Y-107335000D01*
X145943690Y-107335000D01*
X145710301Y-107431673D01*
X145531673Y-107610302D01*
X145435000Y-107843691D01*
X133196704Y-107843691D01*
X133197570Y-107842825D01*
X133074435Y-107555212D01*
X132392266Y-107295293D01*
X131662557Y-107316214D01*
X131085565Y-107555212D01*
X130962430Y-107842825D01*
X92276513Y-107842825D01*
X92224714Y-107791026D01*
X92115451Y-107681762D01*
X91791027Y-107464990D01*
X91526074Y-107355243D01*
X91143391Y-107279123D01*
X90856608Y-107279123D01*
X90830349Y-107290000D01*
X88169650Y-107290000D01*
X88143391Y-107279123D01*
X87904101Y-107231525D01*
X87822798Y-107177201D01*
X87768475Y-107095901D01*
X87720877Y-106856609D01*
X87710000Y-106830350D01*
X87710000Y-104955050D01*
X90190000Y-104955050D01*
X90190000Y-105704950D01*
X90476974Y-106397767D01*
X91007233Y-106928026D01*
X91700050Y-107215000D01*
X92449950Y-107215000D01*
X93142767Y-106928026D01*
X93673026Y-106397767D01*
X93960000Y-105704950D01*
X93960000Y-104955050D01*
X93673026Y-104262233D01*
X93142767Y-103731974D01*
X92449950Y-103445000D01*
X91700050Y-103445000D01*
X91007233Y-103731974D01*
X90476974Y-104262233D01*
X90190000Y-104955050D01*
X87710000Y-104955050D01*
X87710000Y-100615750D01*
X90190000Y-100615750D01*
X90190000Y-101706309D01*
X90286673Y-101939698D01*
X90465301Y-102118327D01*
X90698690Y-102215000D01*
X91789250Y-102215000D01*
X91948000Y-102056250D01*
X91948000Y-100457000D01*
X92202000Y-100457000D01*
X92202000Y-102056250D01*
X92360750Y-102215000D01*
X93451310Y-102215000D01*
X93684699Y-102118327D01*
X93863327Y-101939698D01*
X93960000Y-101706309D01*
X93960000Y-100615750D01*
X93801250Y-100457000D01*
X92202000Y-100457000D01*
X91948000Y-100457000D01*
X90348750Y-100457000D01*
X90190000Y-100615750D01*
X87710000Y-100615750D01*
X87710000Y-98953691D01*
X90190000Y-98953691D01*
X90190000Y-100044250D01*
X90348750Y-100203000D01*
X91948000Y-100203000D01*
X91948000Y-98603750D01*
X91789250Y-98445000D01*
X90698690Y-98445000D01*
X90465301Y-98541673D01*
X90286673Y-98720302D01*
X90190000Y-98953691D01*
X87710000Y-98953691D01*
X87710000Y-91605159D01*
X88515000Y-91605159D01*
X88515000Y-92394841D01*
X88817199Y-93124412D01*
X89375588Y-93682801D01*
X90105159Y-93985000D01*
X90894841Y-93985000D01*
X91624412Y-93682801D01*
X92110000Y-93197213D01*
X92110001Y-96398363D01*
X92085806Y-96520000D01*
X92181656Y-97001872D01*
X92385714Y-97307267D01*
X92385716Y-97307269D01*
X92454616Y-97410385D01*
X92557731Y-97479284D01*
X93574454Y-98496008D01*
X93451310Y-98445000D01*
X92360750Y-98445000D01*
X92202000Y-98603750D01*
X92202000Y-100203000D01*
X93801250Y-100203000D01*
X93960000Y-100044250D01*
X93960000Y-98953691D01*
X93893548Y-98793263D01*
X93918258Y-98809773D01*
X94133127Y-98953344D01*
X94493364Y-99025000D01*
X94493368Y-99025000D01*
X94614999Y-99049194D01*
X94736630Y-99025000D01*
X100321837Y-99025000D01*
X100387191Y-99122809D01*
X100485001Y-99188164D01*
X100485001Y-99743364D01*
X100460806Y-99865000D01*
X100556656Y-100346872D01*
X100760714Y-100652267D01*
X100760716Y-100652269D01*
X100829616Y-100755385D01*
X100932732Y-100824285D01*
X105035715Y-104927269D01*
X105104615Y-105030385D01*
X105207731Y-105099285D01*
X105207732Y-105099286D01*
X105489814Y-105287767D01*
X105513127Y-105303344D01*
X105873364Y-105375000D01*
X105873368Y-105375000D01*
X105995000Y-105399194D01*
X106116632Y-105375000D01*
X130239522Y-105375000D01*
X130281843Y-105587765D01*
X130422191Y-105797809D01*
X130632235Y-105938157D01*
X130880000Y-105987440D01*
X133280000Y-105987440D01*
X133527765Y-105938157D01*
X133737809Y-105797809D01*
X133878157Y-105587765D01*
X133927440Y-105340000D01*
X133927440Y-103845050D01*
X145435000Y-103845050D01*
X145435000Y-104594950D01*
X145721974Y-105287767D01*
X146252233Y-105818026D01*
X146945050Y-106105000D01*
X147694950Y-106105000D01*
X148387767Y-105818026D01*
X148918026Y-105287767D01*
X149205000Y-104594950D01*
X149205000Y-103845050D01*
X148918026Y-103152233D01*
X148387767Y-102621974D01*
X147694950Y-102335000D01*
X146945050Y-102335000D01*
X146252233Y-102621974D01*
X145721974Y-103152233D01*
X145435000Y-103845050D01*
X133927440Y-103845050D01*
X133927440Y-102940000D01*
X133878157Y-102692235D01*
X133737809Y-102482191D01*
X133527765Y-102341843D01*
X133280000Y-102292560D01*
X130880000Y-102292560D01*
X130632235Y-102341843D01*
X130422191Y-102482191D01*
X130281843Y-102692235D01*
X130239522Y-102905000D01*
X106506554Y-102905000D01*
X102955000Y-99353447D01*
X102955000Y-99188163D01*
X103052809Y-99122809D01*
X103183475Y-98927255D01*
X103222914Y-98966694D01*
X103337546Y-98852062D01*
X103420884Y-99105953D01*
X103985306Y-99311590D01*
X104585458Y-99285579D01*
X105019116Y-99105953D01*
X105102455Y-98852060D01*
X104220000Y-97969605D01*
X104205858Y-97983748D01*
X104026253Y-97804143D01*
X104040395Y-97790000D01*
X104399605Y-97790000D01*
X105282060Y-98672455D01*
X105430879Y-98623606D01*
X105439884Y-98645346D01*
X105864654Y-99070116D01*
X106419642Y-99300000D01*
X107020358Y-99300000D01*
X107575346Y-99070116D01*
X107970000Y-98675462D01*
X108364654Y-99070116D01*
X108919642Y-99300000D01*
X109520358Y-99300000D01*
X110075346Y-99070116D01*
X110470000Y-98675462D01*
X110864654Y-99070116D01*
X111419642Y-99300000D01*
X112020358Y-99300000D01*
X112575346Y-99070116D01*
X112754426Y-98891036D01*
X117497193Y-98891036D01*
X117527518Y-99381413D01*
X117656836Y-99693617D01*
X117882265Y-99743130D01*
X118565395Y-99060000D01*
X117882265Y-98376870D01*
X117656836Y-98426383D01*
X117497193Y-98891036D01*
X112754426Y-98891036D01*
X113000116Y-98645346D01*
X113185717Y-98197265D01*
X118061870Y-98197265D01*
X118745000Y-98880395D01*
X118759143Y-98866253D01*
X118938748Y-99045858D01*
X118924605Y-99060000D01*
X118938748Y-99074143D01*
X118759143Y-99253748D01*
X118745000Y-99239605D01*
X118061870Y-99922735D01*
X118111383Y-100148164D01*
X118576036Y-100307807D01*
X119066413Y-100277482D01*
X119378617Y-100148164D01*
X119428129Y-99922737D01*
X119543822Y-100038430D01*
X119597970Y-99984282D01*
X119687191Y-100117809D01*
X119897235Y-100258157D01*
X120145000Y-100307440D01*
X121345000Y-100307440D01*
X121592765Y-100258157D01*
X121802809Y-100117809D01*
X121943157Y-99907765D01*
X121992440Y-99660000D01*
X121992440Y-98460000D01*
X121943157Y-98212235D01*
X121802809Y-98002191D01*
X121592765Y-97861843D01*
X121345000Y-97812560D01*
X120145000Y-97812560D01*
X119897235Y-97861843D01*
X119687191Y-98002191D01*
X119597970Y-98135718D01*
X119543822Y-98081570D01*
X119428129Y-98197263D01*
X119378617Y-97971836D01*
X118913964Y-97812193D01*
X118423587Y-97842518D01*
X118111383Y-97971836D01*
X118061870Y-98197265D01*
X113185717Y-98197265D01*
X113230000Y-98090358D01*
X113230000Y-97489642D01*
X113000116Y-96934654D01*
X112575346Y-96509884D01*
X112020358Y-96280000D01*
X111419642Y-96280000D01*
X110864654Y-96509884D01*
X110470000Y-96904538D01*
X110075346Y-96509884D01*
X109520358Y-96280000D01*
X108919642Y-96280000D01*
X108364654Y-96509884D01*
X107970000Y-96904538D01*
X107575346Y-96509884D01*
X107020358Y-96280000D01*
X106419642Y-96280000D01*
X105864654Y-96509884D01*
X105439884Y-96934654D01*
X105430879Y-96956394D01*
X105282060Y-96907545D01*
X104399605Y-97790000D01*
X104040395Y-97790000D01*
X104026253Y-97775858D01*
X104205858Y-97596253D01*
X104220000Y-97610395D01*
X105102455Y-96727940D01*
X105019116Y-96474047D01*
X104454694Y-96268410D01*
X103854542Y-96294421D01*
X103420884Y-96474047D01*
X103337546Y-96727938D01*
X103222914Y-96613306D01*
X103183475Y-96652745D01*
X103052809Y-96457191D01*
X102842765Y-96316843D01*
X102595000Y-96267560D01*
X100845000Y-96267560D01*
X100597235Y-96316843D01*
X100387191Y-96457191D01*
X100321837Y-96555000D01*
X95126554Y-96555000D01*
X94580000Y-96008447D01*
X94580000Y-94767440D01*
X96220000Y-94767440D01*
X96467765Y-94718157D01*
X96677809Y-94577809D01*
X96818157Y-94367765D01*
X96827184Y-94322381D01*
X96839375Y-94340625D01*
X97330582Y-94668839D01*
X97763744Y-94755000D01*
X98056256Y-94755000D01*
X98489418Y-94668839D01*
X98980625Y-94340625D01*
X99180000Y-94042239D01*
X99379375Y-94340625D01*
X99870582Y-94668839D01*
X100303744Y-94755000D01*
X100596256Y-94755000D01*
X101029418Y-94668839D01*
X101520625Y-94340625D01*
X101720000Y-94042239D01*
X101919375Y-94340625D01*
X102410582Y-94668839D01*
X102843744Y-94755000D01*
X103136256Y-94755000D01*
X103569418Y-94668839D01*
X104060625Y-94340625D01*
X104273843Y-94021522D01*
X104334817Y-94151358D01*
X104763076Y-94541645D01*
X105173110Y-94711476D01*
X105403000Y-94590155D01*
X105403000Y-93397000D01*
X105383000Y-93397000D01*
X105383000Y-93143000D01*
X105403000Y-93143000D01*
X105403000Y-93123000D01*
X105657000Y-93123000D01*
X105657000Y-93143000D01*
X105677000Y-93143000D01*
X105677000Y-93397000D01*
X105657000Y-93397000D01*
X105657000Y-94590155D01*
X105886890Y-94711476D01*
X106296924Y-94541645D01*
X106725183Y-94151358D01*
X106786157Y-94021522D01*
X106999375Y-94340625D01*
X107490582Y-94668839D01*
X107923744Y-94755000D01*
X108216256Y-94755000D01*
X108649418Y-94668839D01*
X109140625Y-94340625D01*
X109340000Y-94042239D01*
X109539375Y-94340625D01*
X110030582Y-94668839D01*
X110463744Y-94755000D01*
X110756256Y-94755000D01*
X111189418Y-94668839D01*
X111680625Y-94340625D01*
X111880000Y-94042239D01*
X112079375Y-94340625D01*
X112570582Y-94668839D01*
X113003744Y-94755000D01*
X113296256Y-94755000D01*
X113729418Y-94668839D01*
X114220625Y-94340625D01*
X114420000Y-94042239D01*
X114619375Y-94340625D01*
X115110582Y-94668839D01*
X115543744Y-94755000D01*
X115836256Y-94755000D01*
X116269418Y-94668839D01*
X116760625Y-94340625D01*
X116960000Y-94042239D01*
X117159375Y-94340625D01*
X117650582Y-94668839D01*
X118083744Y-94755000D01*
X118376256Y-94755000D01*
X118809418Y-94668839D01*
X119300625Y-94340625D01*
X119500000Y-94042239D01*
X119699375Y-94340625D01*
X120190582Y-94668839D01*
X120623744Y-94755000D01*
X120916256Y-94755000D01*
X121349418Y-94668839D01*
X121840625Y-94340625D01*
X122040000Y-94042239D01*
X122239375Y-94340625D01*
X122730582Y-94668839D01*
X123163744Y-94755000D01*
X123456256Y-94755000D01*
X123889418Y-94668839D01*
X124380625Y-94340625D01*
X124593843Y-94021522D01*
X124654817Y-94151358D01*
X125083076Y-94541645D01*
X125493110Y-94711476D01*
X125723000Y-94590155D01*
X125723000Y-93397000D01*
X125703000Y-93397000D01*
X125703000Y-93143000D01*
X125723000Y-93143000D01*
X125723000Y-93123000D01*
X125977000Y-93123000D01*
X125977000Y-93143000D01*
X125997000Y-93143000D01*
X125997000Y-93397000D01*
X125977000Y-93397000D01*
X125977000Y-94590155D01*
X126206890Y-94711476D01*
X126616924Y-94541645D01*
X127045183Y-94151358D01*
X127106157Y-94021522D01*
X127319375Y-94340625D01*
X127810582Y-94668839D01*
X128243744Y-94755000D01*
X128536256Y-94755000D01*
X128969418Y-94668839D01*
X129460625Y-94340625D01*
X129660000Y-94042239D01*
X129859375Y-94340625D01*
X130350582Y-94668839D01*
X130783744Y-94755000D01*
X131076256Y-94755000D01*
X131509418Y-94668839D01*
X132000625Y-94340625D01*
X132200000Y-94042239D01*
X132399375Y-94340625D01*
X132890582Y-94668839D01*
X133323744Y-94755000D01*
X133616256Y-94755000D01*
X134049418Y-94668839D01*
X134540625Y-94340625D01*
X134740000Y-94042239D01*
X134939375Y-94340625D01*
X135430582Y-94668839D01*
X135863744Y-94755000D01*
X136156256Y-94755000D01*
X136589418Y-94668839D01*
X137080625Y-94340625D01*
X137280000Y-94042239D01*
X137479375Y-94340625D01*
X137970582Y-94668839D01*
X138403744Y-94755000D01*
X138696256Y-94755000D01*
X139129418Y-94668839D01*
X139620625Y-94340625D01*
X139820000Y-94042239D01*
X140019375Y-94340625D01*
X140510582Y-94668839D01*
X140943744Y-94755000D01*
X141236256Y-94755000D01*
X141669418Y-94668839D01*
X142160625Y-94340625D01*
X142373843Y-94021522D01*
X142434817Y-94151358D01*
X142863076Y-94541645D01*
X143273110Y-94711476D01*
X143503000Y-94590155D01*
X143503000Y-93397000D01*
X143757000Y-93397000D01*
X143757000Y-94590155D01*
X143986890Y-94711476D01*
X144396924Y-94541645D01*
X144825183Y-94151358D01*
X145071486Y-93626892D01*
X144950819Y-93397000D01*
X143757000Y-93397000D01*
X143503000Y-93397000D01*
X143483000Y-93397000D01*
X143483000Y-93143000D01*
X143503000Y-93143000D01*
X143503000Y-93123000D01*
X143757000Y-93123000D01*
X143757000Y-93143000D01*
X144950819Y-93143000D01*
X145071486Y-92913108D01*
X144825183Y-92388642D01*
X144400214Y-92001353D01*
X144700625Y-91800625D01*
X144831231Y-91605159D01*
X146515000Y-91605159D01*
X146515000Y-92394841D01*
X146817199Y-93124412D01*
X147375588Y-93682801D01*
X148105159Y-93985000D01*
X148894841Y-93985000D01*
X149624412Y-93682801D01*
X150182801Y-93124412D01*
X150485000Y-92394841D01*
X150485000Y-91605159D01*
X150182801Y-90875588D01*
X149624412Y-90317199D01*
X148894841Y-90015000D01*
X148105159Y-90015000D01*
X147375588Y-90317199D01*
X146817199Y-90875588D01*
X146515000Y-91605159D01*
X144831231Y-91605159D01*
X145028839Y-91309418D01*
X145144092Y-90730000D01*
X145028839Y-90150582D01*
X144700625Y-89659375D01*
X144209418Y-89331161D01*
X143776256Y-89245000D01*
X143483744Y-89245000D01*
X143050582Y-89331161D01*
X142559375Y-89659375D01*
X142360000Y-89957761D01*
X142160625Y-89659375D01*
X141669418Y-89331161D01*
X141236256Y-89245000D01*
X140943744Y-89245000D01*
X140510582Y-89331161D01*
X140019375Y-89659375D01*
X139820000Y-89957761D01*
X139620625Y-89659375D01*
X139129418Y-89331161D01*
X138696256Y-89245000D01*
X138403744Y-89245000D01*
X137970582Y-89331161D01*
X137479375Y-89659375D01*
X137266157Y-89978478D01*
X137205183Y-89848642D01*
X136776924Y-89458355D01*
X136366890Y-89288524D01*
X136137000Y-89409845D01*
X136137000Y-90603000D01*
X136157000Y-90603000D01*
X136157000Y-90857000D01*
X136137000Y-90857000D01*
X136137000Y-90877000D01*
X135883000Y-90877000D01*
X135883000Y-90857000D01*
X135863000Y-90857000D01*
X135863000Y-90603000D01*
X135883000Y-90603000D01*
X135883000Y-89409845D01*
X135653110Y-89288524D01*
X135243076Y-89458355D01*
X134814817Y-89848642D01*
X134753843Y-89978478D01*
X134540625Y-89659375D01*
X134049418Y-89331161D01*
X133616256Y-89245000D01*
X133323744Y-89245000D01*
X132890582Y-89331161D01*
X132399375Y-89659375D01*
X132186157Y-89978478D01*
X132125183Y-89848642D01*
X131696924Y-89458355D01*
X131286890Y-89288524D01*
X131057000Y-89409845D01*
X131057000Y-90603000D01*
X131077000Y-90603000D01*
X131077000Y-90857000D01*
X131057000Y-90857000D01*
X131057000Y-90877000D01*
X130803000Y-90877000D01*
X130803000Y-90857000D01*
X130783000Y-90857000D01*
X130783000Y-90603000D01*
X130803000Y-90603000D01*
X130803000Y-89409845D01*
X130573110Y-89288524D01*
X130163076Y-89458355D01*
X129734817Y-89848642D01*
X129673843Y-89978478D01*
X129460625Y-89659375D01*
X128969418Y-89331161D01*
X128536256Y-89245000D01*
X128243744Y-89245000D01*
X127810582Y-89331161D01*
X127319375Y-89659375D01*
X127120000Y-89957761D01*
X126920625Y-89659375D01*
X126429418Y-89331161D01*
X125996256Y-89245000D01*
X125703744Y-89245000D01*
X125270582Y-89331161D01*
X124779375Y-89659375D01*
X124580000Y-89957761D01*
X124380625Y-89659375D01*
X123889418Y-89331161D01*
X123456256Y-89245000D01*
X123163744Y-89245000D01*
X122730582Y-89331161D01*
X122239375Y-89659375D01*
X122040000Y-89957761D01*
X121840625Y-89659375D01*
X121349418Y-89331161D01*
X120916256Y-89245000D01*
X120623744Y-89245000D01*
X120190582Y-89331161D01*
X119699375Y-89659375D01*
X119486157Y-89978478D01*
X119425183Y-89848642D01*
X118996924Y-89458355D01*
X118586890Y-89288524D01*
X118357000Y-89409845D01*
X118357000Y-90603000D01*
X118377000Y-90603000D01*
X118377000Y-90857000D01*
X118357000Y-90857000D01*
X118357000Y-90877000D01*
X118103000Y-90877000D01*
X118103000Y-90857000D01*
X118083000Y-90857000D01*
X118083000Y-90603000D01*
X118103000Y-90603000D01*
X118103000Y-89409845D01*
X117873110Y-89288524D01*
X117463076Y-89458355D01*
X117034817Y-89848642D01*
X116973843Y-89978478D01*
X116760625Y-89659375D01*
X116269418Y-89331161D01*
X115836256Y-89245000D01*
X115543744Y-89245000D01*
X115110582Y-89331161D01*
X114619375Y-89659375D01*
X114420000Y-89957761D01*
X114220625Y-89659375D01*
X113729418Y-89331161D01*
X113296256Y-89245000D01*
X113003744Y-89245000D01*
X112570582Y-89331161D01*
X112079375Y-89659375D01*
X111866157Y-89978478D01*
X111805183Y-89848642D01*
X111376924Y-89458355D01*
X110966890Y-89288524D01*
X110737000Y-89409845D01*
X110737000Y-90603000D01*
X110757000Y-90603000D01*
X110757000Y-90857000D01*
X110737000Y-90857000D01*
X110737000Y-90877000D01*
X110483000Y-90877000D01*
X110483000Y-90857000D01*
X110463000Y-90857000D01*
X110463000Y-90603000D01*
X110483000Y-90603000D01*
X110483000Y-89409845D01*
X110253110Y-89288524D01*
X109843076Y-89458355D01*
X109414817Y-89848642D01*
X109353843Y-89978478D01*
X109140625Y-89659375D01*
X108649418Y-89331161D01*
X108216256Y-89245000D01*
X107923744Y-89245000D01*
X107490582Y-89331161D01*
X106999375Y-89659375D01*
X106800000Y-89957761D01*
X106600625Y-89659375D01*
X106109418Y-89331161D01*
X105676256Y-89245000D01*
X105383744Y-89245000D01*
X104950582Y-89331161D01*
X104459375Y-89659375D01*
X104260000Y-89957761D01*
X104060625Y-89659375D01*
X103569418Y-89331161D01*
X103136256Y-89245000D01*
X102843744Y-89245000D01*
X102410582Y-89331161D01*
X101919375Y-89659375D01*
X101706157Y-89978478D01*
X101645183Y-89848642D01*
X101216924Y-89458355D01*
X100806890Y-89288524D01*
X100577000Y-89409845D01*
X100577000Y-90603000D01*
X100597000Y-90603000D01*
X100597000Y-90857000D01*
X100577000Y-90857000D01*
X100577000Y-90877000D01*
X100323000Y-90877000D01*
X100323000Y-90857000D01*
X100303000Y-90857000D01*
X100303000Y-90603000D01*
X100323000Y-90603000D01*
X100323000Y-89409845D01*
X100093110Y-89288524D01*
X99683076Y-89458355D01*
X99254817Y-89848642D01*
X99193843Y-89978478D01*
X98980625Y-89659375D01*
X98489418Y-89331161D01*
X98056256Y-89245000D01*
X97763744Y-89245000D01*
X97330582Y-89331161D01*
X97085380Y-89495000D01*
X96194620Y-89495000D01*
X95949418Y-89331161D01*
X95516256Y-89245000D01*
X95223744Y-89245000D01*
X94790582Y-89331161D01*
X94545380Y-89495000D01*
X94289549Y-89495000D01*
X94167918Y-89470806D01*
X94046287Y-89495000D01*
X94046283Y-89495000D01*
X93686046Y-89566656D01*
X93511154Y-89683515D01*
X93380651Y-89770714D01*
X93380650Y-89770715D01*
X93277534Y-89839615D01*
X93208634Y-89942731D01*
X92557733Y-90593633D01*
X92454615Y-90662534D01*
X92232342Y-90995190D01*
X92182801Y-90875588D01*
X91624412Y-90317199D01*
X90894841Y-90015000D01*
X90105159Y-90015000D01*
X89375588Y-90317199D01*
X88817199Y-90875588D01*
X88515000Y-91605159D01*
X87710000Y-91605159D01*
X87710000Y-91041247D01*
X87776100Y-90474292D01*
X87956685Y-89976788D01*
X88246881Y-89534165D01*
X88631116Y-89170177D01*
X89088784Y-88904342D01*
X89604629Y-88748108D01*
X90031618Y-88710000D01*
X148958753Y-88710000D01*
X149525708Y-88776100D01*
G04 #@! TD*
M02*
