G04 #@! TF.GenerationSoftware,KiCad,Pcbnew,(5.0.0)*
G04 #@! TF.CreationDate,2019-02-20T13:04:28+09:00*
G04 #@! TF.ProjectId,pi-ups,70692D7570732E6B696361645F706362,rev?*
G04 #@! TF.SameCoordinates,Original*
G04 #@! TF.FileFunction,Paste,Top*
G04 #@! TF.FilePolarity,Positive*
%FSLAX46Y46*%
G04 Gerber Fmt 4.6, Leading zero omitted, Abs format (unit mm)*
G04 Created by KiCad (PCBNEW (5.0.0)) date 02/20/19 13:04:28*
%MOMM*%
%LPD*%
G01*
G04 APERTURE LIST*
%ADD10R,0.750000X0.800000*%
%ADD11R,3.900000X3.900000*%
%ADD12R,0.800000X0.750000*%
%ADD13R,4.070000X1.770000*%
%ADD14R,1.770000X4.070000*%
%ADD15R,3.000000X1.200000*%
%ADD16R,1.200000X3.000000*%
%ADD17R,1.500000X1.200000*%
%ADD18R,1.000000X1.200000*%
%ADD19R,1.630000X1.200000*%
%ADD20R,1.200000X1.630000*%
G04 APERTURE END LIST*
D10*
G04 #@! TO.C,C2*
X100965000Y-103275000D03*
X100965000Y-104775000D03*
G04 #@! TD*
G04 #@! TO.C,C3*
X118745000Y-103275000D03*
X118745000Y-104775000D03*
G04 #@! TD*
D11*
G04 #@! TO.C,D1*
X134620000Y-98680000D03*
X126620000Y-98680000D03*
G04 #@! TD*
D12*
G04 #@! TO.C,D2*
X143510000Y-97155000D03*
X145010000Y-97155000D03*
G04 #@! TD*
G04 #@! TO.C,D3*
X145010000Y-99695000D03*
X143510000Y-99695000D03*
G04 #@! TD*
D10*
G04 #@! TO.C,R1*
X100330000Y-108355000D03*
X100330000Y-109855000D03*
G04 #@! TD*
G04 #@! TO.C,R2*
X121285000Y-104775000D03*
X121285000Y-103275000D03*
G04 #@! TD*
D12*
G04 #@! TO.C,R3*
X121515000Y-114935000D03*
X120015000Y-114935000D03*
G04 #@! TD*
G04 #@! TO.C,R4*
X139470000Y-97155000D03*
X140970000Y-97155000D03*
G04 #@! TD*
G04 #@! TO.C,R5*
X140970000Y-99695000D03*
X139470000Y-99695000D03*
G04 #@! TD*
D10*
G04 #@! TO.C,R6*
X100330000Y-113490000D03*
X100330000Y-111990000D03*
G04 #@! TD*
D13*
G04 #@! TO.C,U1*
X107110000Y-105570000D03*
X111690000Y-105570000D03*
D14*
X115130000Y-106720000D03*
D15*
X104940000Y-110150000D03*
X104940000Y-112440000D03*
X104940000Y-114730000D03*
D16*
X108250000Y-115630000D03*
X110540000Y-115630000D03*
X112830000Y-115630000D03*
D15*
X116140000Y-110150000D03*
X116140000Y-114730000D03*
D17*
X116890000Y-112440000D03*
D18*
X115140000Y-112440000D03*
D19*
X104260000Y-105570000D03*
D20*
X108270000Y-103870000D03*
X110560000Y-103870000D03*
X112850000Y-103870000D03*
D19*
X116830000Y-105570000D03*
G04 #@! TD*
M02*
